{"glyphs":{"0":{"ha":954,"x_min":0,"x_max":0,"o":"m 842 770 b 584 965 784 870 696 940 b 477 980 533 976 526 982 b 369 965 428 982 420 976 b 111 770 257 940 169 870 b 189 108 -7 569 25 274 b 406 -2 254 42 315 22 b 461 -8 429 -8 436 -6 b 477 -8 466 -8 471 -8 b 492 -8 482 -8 487 -8 b 547 -2 517 -6 524 -8 b 764 108 638 22 699 42 b 842 770 928 274 960 569 z m 606 199 b 514 57 589 139 582 68 b 477 52 497 54 493 49 b 458 57 460 49 474 54 b 347 199 389 68 364 139 b 317 487 318 295 319 369 b 326 650 319 528 317 590 b 368 826 334 709 348 769 b 476 916 390 887 410 917 l 477 916 b 585 826 543 917 563 887 b 628 650 606 769 619 709 b 636 487 636 590 634 528 b 606 199 634 369 635 295 z "},"1":{"ha":494,"x_min":0,"x_max":0,"o":"m 416 75 b 369 212 398 101 369 149 b 370 412 372 279 370 377 b 370 532 371 444 369 500 b 374 735 370 605 374 662 b 385 982 374 816 381 898 b 218 950 329 971 274 957 b 16 941 161 943 73 943 b 15 935 15 935 16 941 b 141 803 22 930 143 852 b 139 649 139 750 139 702 b 144 445 138 573 143 513 b 141 302 145 401 141 347 l 141 258 b 140 156 141 233 141 178 b 59 18 139 100 96 56 b 56 5 53 12 56 5 b 334 5 87 5 334 5 l 471 5 b 416 75 460 28 434 49 z "},"2":{"ha":899,"x_min":0,"x_max":0,"o":"m 858 48 b 797 276 834 145 821 179 b 778 302 791 300 787 304 b 757 263 773 301 773 298 b 547 198 692 197 705 198 b 181 202 408 198 342 198 b 232 325 195 254 218 308 b 431 453 292 397 344 420 b 703 542 541 494 593 499 b 798 621 747 559 768 584 b 814 824 836 682 842 773 b 630 962 769 908 727 939 b 349 971 520 988 459 985 b 134 876 252 960 216 930 b 64 821 107 858 82 835 b 214 666 116 767 164 718 b 230 716 218 680 225 698 b 490 895 263 835 342 956 b 555 687 575 862 582 755 b 437 579 534 632 488 603 b 344 528 391 558 388 552 b 168 387 272 488 222 453 b 44 118 107 312 67 213 b 29 5 34 79 20 40 b 861 5 345 5 546 5 b 858 48 860 24 861 36 z "},"3":{"ha":944,"x_min":0,"x_max":0,"o":"m 907 296 b 764 499 902 392 851 463 b 656 525 745 507 688 521 b 738 552 685 531 723 542 b 789 603 764 569 771 578 b 780 861 850 692 855 781 b 656 944 738 904 713 928 b 217 915 443 1007 380 986 b 90 826 180 899 115 868 b 240 670 152 775 175 725 b 275 772 252 697 263 754 b 373 882 295 801 345 866 b 556 873 452 922 484 918 b 581 625 635 825 630 694 b 499 582 564 601 527 593 b 378 568 455 567 432 568 b 329 569 364 568 348 569 b 336 465 327 499 329 465 b 422 464 347 464 407 464 b 536 442 475 464 487 462 b 630 219 603 415 642 336 b 500 75 623 160 569 91 b 204 318 362 43 251 93 b 196 347 202 326 206 329 b 4 156 129 280 69 229 b 133 72 57 127 87 93 b 508 -6 290 1 338 -15 b 789 74 610 -1 700 14 b 907 296 865 126 912 200 z "},"4":{"ha":893,"x_min":0,"x_max":0,"o":"m 880 421 b 867 461 880 468 874 461 b 663 460 808 461 727 463 b 662 749 663 552 665 666 b 721 960 659 822 676 927 b 711 968 721 973 725 968 b 471 969 660 965 517 969 b 437 939 461 969 457 959 b 29 477 295 802 171 612 b 10 452 21 469 10 462 b 7 345 9 411 6 390 b 421 347 155 348 274 348 b 425 248 423 319 423 284 l 425 245 b 424 168 425 221 425 190 b 331 18 423 113 368 56 b 327 5 324 12 327 5 b 618 5 358 5 618 5 l 768 5 b 700 75 756 28 718 49 b 653 225 682 101 653 161 b 654 248 653 233 653 241 l 654 248 b 654 267 654 255 654 261 b 654 343 655 297 655 320 b 702 343 667 345 694 343 b 862 344 757 342 807 344 b 883 353 883 344 883 339 b 880 421 882 371 880 403 z m 411 463 l 130 463 b 411 780 207 541 337 714 z "},"5":{"ha":1006,"x_min":0,"x_max":0,"o":"m 970 296 b 923 454 968 351 955 407 b 819 545 898 492 860 525 b 677 594 775 566 726 586 b 575 608 643 599 609 604 b 425 586 507 615 491 603 b 353 554 404 581 382 571 b 408 771 375 636 389 700 b 597 772 503 771 507 768 b 819 773 688 772 728 773 l 925 967 b 586 968 844 968 666 969 b 290 968 466 966 412 968 b 177 505 252 818 214 659 b 192 487 174 492 183 495 b 289 439 220 465 258 459 b 370 497 314 457 341 486 b 478 530 404 509 438 528 b 543 517 511 531 514 524 b 672 390 597 504 651 443 b 689 283 686 354 690 319 b 687 219 689 268 689 237 b 558 75 681 160 626 90 b 256 318 420 43 303 93 b 247 347 254 326 258 329 b 56 156 180 280 121 229 b 184 72 108 127 138 93 b 566 -6 341 1 396 -15 b 846 74 668 -1 758 14 b 971 277 918 123 970 190 b 970 296 971 283 971 289 z "},"6":{"ha":946,"x_min":0,"x_max":0,"o":"m 725 599 b 520 643 643 637 602 648 b 318 544 419 637 385 617 b 287 484 314 542 296 504 b 295 539 286 500 295 500 b 462 899 288 644 302 871 b 687 795 575 908 619 867 b 744 723 701 782 731 743 b 856 850 794 777 820 807 b 847 881 867 861 869 868 b 725 939 795 911 783 920 b 645 965 709 945 662 962 b 372 958 532 983 482 990 b 148 802 280 932 211 875 b 42 480 83 727 44 603 b 191 97 40 331 61 198 b 500 -8 292 18 383 -8 b 731 44 603 -8 661 6 b 898 245 826 96 885 193 b 725 599 938 411 855 538 z m 633 176 b 486 85 601 121 565 85 b 324 299 395 85 324 168 b 342 441 324 342 326 408 b 482 529 369 494 411 529 b 614 465 542 529 585 506 b 633 176 663 392 667 233 z "},"7":{"ha":933,"x_min":0,"x_max":0,"o":"m 788 969 b 337 971 667 969 455 969 b 69 970 257 972 149 971 l 186 778 b 325 777 277 778 236 777 b 582 776 407 773 504 776 b 581 775 582 776 582 775 b 702 775 607 773 677 778 b 468 521 641 714 514 599 b 331 297 422 444 371 377 b 196 7 290 216 236 103 b 227 7 219 5 211 7 b 618 7 348 8 498 6 b 596 81 618 7 610 44 b 575 181 579 124 584 136 b 694 644 543 349 616 498 b 863 816 728 708 802 780 b 788 969 841 861 796 941 z "},"8":{"ha":933,"x_min":0,"x_max":0,"o":"m 887 373 b 776 505 863 436 831 469 b 629 587 757 517 672 571 b 739 647 656 598 721 626 b 718 916 814 733 821 851 b 630 962 683 938 671 953 b 481 981 566 976 532 982 b 226 925 391 980 321 984 b 190 593 107 849 88 689 b 297 527 199 585 277 537 b 109 426 218 500 134 453 b 64 138 45 356 -2 243 b 247 11 103 75 171 32 b 483 -7 355 -16 424 -7 b 835 118 590 -7 755 13 b 887 373 894 179 920 284 z m 309 806 b 463 919 311 848 349 919 b 613 861 510 920 571 907 b 636 748 628 851 641 783 b 557 628 629 691 578 631 b 513 641 542 627 532 633 b 352 713 460 660 400 688 b 309 806 326 725 306 765 z m 510 71 b 461 66 471 66 500 71 b 274 154 384 72 329 81 b 292 413 211 256 250 357 b 336 452 304 429 318 437 b 386 480 355 467 373 475 b 574 377 487 442 471 434 b 659 257 612 354 653 310 b 510 71 669 172 617 83 z "},"9":{"ha":947,"x_min":0,"x_max":0,"o":"m 755 877 b 446 982 654 956 564 982 b 215 929 343 982 285 967 b 48 728 120 877 61 780 b 221 374 7 562 91 435 b 426 329 303 336 344 324 b 629 428 527 335 561 356 b 659 488 632 431 651 469 b 651 434 660 473 652 473 b 484 73 659 328 645 102 b 259 178 371 64 327 106 b 202 250 245 191 215 229 b 90 122 152 195 126 165 b 99 92 79 112 77 104 b 221 33 151 61 163 52 b 301 7 237 27 284 10 b 575 14 414 -11 465 -18 b 798 170 666 40 735 98 b 905 493 863 245 903 369 b 755 877 907 642 886 775 z m 604 532 b 464 444 578 478 536 444 b 333 508 404 444 361 467 b 313 797 283 581 279 740 b 460 888 345 852 382 888 b 622 674 552 888 622 805 b 604 532 622 631 620 565 z "},"\u0000":{"ha":0,"x_min":0,"x_max":0,"o":""},"\n":{"ha":0,"x_min":0,"x_max":0,"o":""},"\r":{"ha":0,"x_min":0,"x_max":0,"o":""}," ":{"ha":468,"x_min":0,"x_max":0,"o":""},"!":{"ha":379,"x_min":0,"x_max":0,"o":"m 160 243 l 207 242 b 213 309 207 263 212 289 b 264 610 221 417 242 509 b 286 747 275 662 276 696 b 352 967 300 815 325 898 b 31 967 242 963 127 968 b 74 832 47 923 63 877 b 92 727 80 798 86 762 b 160 243 120 559 149 383 z m 182 181 b 83 81 126 182 84 140 b 185 -8 83 30 126 -8 b 293 89 249 -9 295 32 b 182 181 291 135 239 179 z "},"#":{"ha":760,"x_min":0,"x_max":0,"o":"m 549 584 l 568 649 l 737 649 l 737 707 l 637 703 l 582 707 l 609 842 l 643 968 l 585 968 l 525 707 l 324 707 l 336 782 l 385 968 l 327 968 l 277 783 l 266 707 l 193 700 l 87 707 l 87 649 l 252 649 l 205 425 l 187 365 l 146 361 l 24 366 l 24 307 l 98 302 l 173 307 l 145 194 l 105 6 l 163 6 l 230 307 l 378 303 l 431 307 l 363 6 l 421 6 l 489 307 l 674 307 l 674 366 l 605 361 l 503 365 l 521 444 z m 511 649 l 473 499 l 445 366 l 245 366 l 310 649 z "},"$":{"ha":815,"x_min":0,"x_max":0,"o":"m 784 438 b 770 488 779 453 773 473 b 680 620 760 533 717 591 b 526 677 641 651 573 663 b 478 687 509 682 494 685 l 476 780 l 476 827 b 607 779 521 817 569 800 b 651 744 624 770 633 756 b 683 849 663 782 672 814 b 576 864 648 853 615 860 b 476 883 545 868 508 878 l 476 969 l 431 969 l 430 892 l 431 887 b 377 887 413 888 395 888 l 377 969 l 331 969 l 331 892 l 331 884 b 255 872 304 881 277 877 b 109 776 195 858 144 828 b 88 650 87 744 74 688 b 115 599 94 633 107 611 b 229 531 142 560 178 554 b 332 506 268 519 294 513 l 331 423 l 326 303 l 328 196 b 321 197 325 196 323 197 b 143 403 239 219 171 316 b 133 409 142 406 137 407 b 24 265 111 377 46 298 b 156 184 55 230 115 197 b 251 141 194 165 212 152 b 329 127 275 135 302 130 l 331 5 l 377 5 l 372 124 b 428 124 391 123 410 123 l 431 5 l 476 5 l 471 127 b 515 133 486 128 501 130 b 700 223 601 155 632 155 b 782 381 745 269 764 296 b 784 438 783 384 785 435 z m 400 839 b 434 835 411 838 422 837 l 436 810 l 435 695 b 386 706 419 698 403 701 b 378 708 384 707 381 707 l 377 780 l 377 839 b 400 839 385 839 394 839 z m 253 745 b 285 825 232 776 251 809 b 335 835 292 828 312 832 l 337 810 l 335 715 b 253 745 301 721 263 729 z m 371 183 l 381 499 b 432 491 398 496 415 494 l 431 423 l 425 303 l 427 181 b 371 183 404 177 388 179 z m 597 305 b 542 212 591 275 570 236 b 471 188 523 196 496 191 l 480 477 b 572 423 512 464 552 453 b 597 305 593 392 603 335 z "},"%":{"ha":911,"x_min":0,"x_max":0,"o":"m 231 451 b 239 451 234 451 236 451 b 246 451 241 451 244 451 b 273 454 258 452 262 451 b 379 507 317 465 347 475 b 417 830 459 588 474 732 b 291 925 389 878 346 913 b 239 932 266 930 263 933 b 187 925 215 933 212 930 b 61 830 132 913 89 878 b 99 507 3 732 19 588 b 204 454 131 475 160 465 b 231 451 216 451 219 452 z m 164 692 b 168 768 165 711 164 740 b 188 851 172 796 178 825 b 239 894 198 880 207 894 l 239 894 b 290 851 270 894 280 880 b 310 768 300 825 306 796 b 314 692 314 740 313 711 b 300 556 313 636 313 601 b 256 490 292 528 289 495 b 239 487 249 488 247 486 b 230 490 231 486 238 488 b 178 556 198 495 186 528 b 164 692 165 601 165 636 z m 849 421 b 723 516 821 470 778 504 b 671 523 698 522 695 524 b 619 516 647 524 644 522 b 493 421 564 504 521 470 b 531 99 436 323 451 180 b 637 45 563 66 593 57 b 664 42 648 42 652 43 b 671 42 666 42 669 42 b 679 42 674 42 676 42 b 706 45 691 43 694 42 b 811 99 750 57 779 66 b 849 421 891 180 907 323 z m 732 148 b 689 81 724 119 721 86 b 671 79 681 80 679 77 b 662 81 663 77 670 80 b 610 148 630 86 618 119 b 596 283 597 193 597 228 b 600 360 597 303 596 332 b 620 443 604 388 610 416 b 671 485 630 472 640 486 l 671 485 b 722 443 703 486 712 472 b 742 360 732 416 738 388 b 746 283 746 332 745 303 b 732 148 745 228 745 193 z m 694 921 l 718 969 l 663 969 l 534 694 l 442 519 l 297 230 l 244 116 l 189 5 l 244 5 l 359 249 l 633 796 z "},"&":{"ha":1088,"x_min":0,"x_max":0,"o":"m 858 293 b 895 332 874 309 884 321 b 1019 505 963 403 972 417 b 1047 583 1029 523 1041 562 b 1024 607 1052 601 1044 597 b 934 658 995 622 966 640 b 824 362 906 515 893 428 b 445 890 718 519 553 729 b 825 851 551 930 711 900 b 836 1018 829 910 832 960 b 118 968 640 950 332 968 b 320 626 196 848 266 697 b 297 617 310 621 300 618 b 262 603 287 613 272 607 b 75 433 147 561 110 497 b 32 230 45 392 25 281 b 353 -8 76 38 227 -8 b 600 82 466 -8 528 26 b 646 114 619 97 621 99 b 704 4 670 70 684 41 b 1068 4 826 4 947 4 b 858 293 997 102 928 195 z m 527 100 b 297 226 436 91 344 135 b 251 474 266 283 223 371 b 346 592 268 516 296 571 b 618 168 416 472 546 291 b 527 100 600 139 540 101 z "},"'":{"ha":285,"x_min":0,"x_max":0,"o":"m 224 944 b 148 983 203 969 178 983 b 61 948 119 983 81 971 b 29 881 40 924 29 914 b 36 837 29 865 32 850 b 57 800 41 824 48 811 b 134 760 75 776 108 764 b 86 633 133 705 117 670 l 89 629 b 207 724 136 654 176 677 b 249 813 229 756 243 780 b 254 860 253 829 254 844 b 224 944 254 899 244 918 z "},"(":{"ha":363,"x_min":0,"x_max":0,"o":"m 131 -56 b 202 -133 150 -87 174 -113 b 474 -165 252 -172 387 -165 l 474 -156 b 333 -34 429 -139 356 -81 b 284 130 309 13 292 42 b 271 275 281 174 273 210 b 278 491 269 337 278 411 b 273 585 278 518 273 560 b 272 766 274 656 269 712 b 284 884 273 808 282 852 b 330 1056 292 971 306 1009 b 474 1163 353 1103 426 1148 l 474 1178 b 218 1144 389 1178 268 1182 b 129 1060 185 1120 150 1098 b 97 983 116 1037 106 1012 b 66 779 81 931 71 851 b 58 634 64 746 58 671 l 63 352 b 67 159 63 288 61 210 b 92 49 73 115 81 83 b 131 -56 102 14 115 -29 z "},")":{"ha":360,"x_min":0,"x_max":0,"o":"m 228 1069 b 157 1146 209 1100 185 1126 b -115 1178 107 1185 -28 1178 l -115 1169 b 26 1047 -70 1152 3 1094 b 75 883 50 1000 67 970 b 88 738 78 839 86 803 b 81 522 90 676 81 602 b 86 428 81 495 86 453 b 87 247 85 357 90 301 b 75 129 86 205 77 161 b 29 -43 67 42 53 4 b -115 -150 6 -90 -67 -135 l -115 -165 b 141 -132 -30 -165 91 -169 b 230 -47 174 -107 209 -85 b 262 30 243 -24 253 1 b 293 233 278 81 288 162 b 301 379 295 267 301 342 l 296 660 b 292 854 296 725 298 803 b 267 964 286 897 278 929 b 228 1069 257 999 244 1042 z "},"*":{"ha":414,"x_min":0,"x_max":0,"o":"m 163 908 l 175 880 l 195 837 l 205 809 b 209 809 206 807 208 807 l 225 847 l 250 909 b 254 926 253 914 254 920 l 255 941 l 254 963 l 199 962 l 160 963 l 160 942 l 162 926 b 163 908 162 920 161 913 z m 62 817 b 78 809 67 814 73 810 l 108 805 l 156 801 l 186 795 b 187 798 187 795 188 797 l 162 832 l 121 885 b 108 896 118 889 113 893 l 76 915 l 50 867 l 29 833 l 48 823 z m 187 772 b 186 775 188 773 187 775 l 144 770 l 78 761 b 61 755 72 760 66 758 l 43 742 l 29 737 l 58 691 l 76 655 l 95 666 l 107 676 b 122 686 112 679 118 681 l 140 710 l 168 749 z m 250 662 l 239 690 l 219 733 l 208 761 b 205 762 208 763 206 763 l 192 725 l 163 661 b 160 644 161 656 160 650 l 162 622 l 160 607 l 214 609 l 254 607 l 254 628 l 252 644 b 250 662 252 650 253 657 z m 351 753 b 335 761 346 756 341 760 l 305 765 l 258 770 l 228 775 b 226 772 226 775 225 773 l 252 739 l 292 685 b 305 674 296 681 300 677 l 326 665 l 337 655 l 363 703 l 384 737 l 366 747 z m 226 798 b 228 795 225 797 226 795 l 269 801 l 336 809 b 352 815 342 810 347 812 l 365 822 l 384 833 l 356 880 l 338 915 l 319 904 l 307 894 b 292 884 301 891 295 889 l 273 860 l 246 821 z "},"+":{"ha":444,"x_min":0,"x_max":0,"o":"m 369 525 l 257 523 l 255 643 l 257 685 l 186 685 l 184 611 l 186 523 l 66 521 l 24 523 l 24 452 l 98 450 l 186 451 l 184 345 l 186 289 l 257 289 l 259 340 l 258 451 l 364 450 l 420 451 l 420 523 z "},",":{"ha":278,"x_min":0,"x_max":0,"o":"m 221 173 b 145 212 200 198 176 212 b 58 177 117 212 79 200 b 26 110 37 153 26 143 b 34 66 26 94 29 79 b 54 29 38 53 45 40 b 132 -11 72 5 106 -7 b 84 -150 130 -66 114 -113 l 86 -154 b 205 -47 133 -129 173 -94 b 247 42 226 -15 240 9 b 251 89 250 58 251 73 b 221 173 251 128 242 147 z "},"-":{"ha":371,"x_min":0,"x_max":0,"o":"m 301 525 l 185 523 l 61 521 l 18 523 l 18 446 l 92 444 l 202 446 l 296 444 l 353 445 l 353 523 z "},".":{"ha":294,"x_min":0,"x_max":0,"o":"m 141 209 b 26 95 76 211 27 162 b 144 -8 26 36 76 -8 b 268 104 217 -9 270 39 b 141 209 266 157 206 207 z "},"/":{"ha":328,"x_min":0,"x_max":0,"o":"m 79 -6 l 174 407 l 276 805 l 350 1176 l 294 1176 l 273 1085 l 160 581 l 65 202 l 16 16 l -19 -165 l 42 -165 z "},":":{"ha":315,"x_min":0,"x_max":0,"o":"m 152 209 b 38 95 87 211 38 162 b 155 -8 37 36 87 -8 b 279 104 228 -9 281 39 b 152 209 277 157 217 207 z m 155 459 b 279 571 228 458 281 506 b 152 676 277 624 217 675 b 38 562 87 678 38 629 b 155 459 37 503 87 459 z "},";":{"ha":314,"x_min":0,"x_max":0,"o":"m 153 462 b 278 574 227 461 280 509 b 150 679 276 627 215 677 b 36 565 86 681 37 632 b 153 462 36 506 85 462 z m 164 212 b 76 176 135 212 97 200 b 44 109 55 153 44 142 b 52 65 44 93 47 79 b 72 28 56 52 63 40 b 150 -12 90 5 124 -7 b 102 -150 148 -67 132 -113 l 104 -155 b 223 -47 151 -130 191 -94 b 265 42 244 -15 258 9 b 269 89 268 57 269 73 b 239 173 269 127 260 146 b 164 212 218 197 194 212 z "},"<":{"ha":449,"x_min":0,"x_max":0,"o":"m 1 382 l 417 42 l 423 55 l 220 382 l 423 710 l 417 723 z "},"=":{"ha":469,"x_min":0,"x_max":0,"o":"m 393 609 l 191 607 l 66 605 l 24 607 l 24 536 l 98 534 l 208 536 l 388 534 l 445 536 l 445 607 z m 191 419 l 66 417 l 24 419 l 24 348 l 98 346 l 208 348 l 388 346 l 445 348 l 445 419 l 393 421 z "},">":{"ha":450,"x_min":0,"x_max":0,"o":"m 446 382 l 30 722 l 25 710 l 227 382 l 25 54 l 30 42 z "},"?":{"ha":806,"x_min":0,"x_max":0,"o":"m 397 181 b 298 81 341 182 298 140 b 400 -8 297 30 341 -8 b 507 89 463 -9 509 32 b 397 181 506 135 453 179 z m 766 827 b 581 959 722 908 675 937 b 329 968 476 984 436 981 b 130 893 236 957 209 946 b 63 840 104 876 80 854 b 207 691 113 788 159 741 b 223 739 211 704 218 721 b 444 913 254 864 315 923 b 532 735 542 906 536 790 b 415 600 526 645 504 600 b 320 600 401 600 336 600 b 305 576 304 600 305 593 b 318 526 305 564 314 550 b 357 369 326 480 346 420 b 374 264 370 314 374 270 b 438 263 403 263 407 263 b 444 402 438 291 444 351 b 472 516 445 455 441 516 b 646 548 539 516 571 518 b 750 631 689 566 722 595 b 766 827 787 690 793 777 z "},"@":{"ha":1114,"x_min":0,"x_max":0,"o":"m 955 690 b 805 762 911 720 868 745 b 624 785 751 777 679 785 b 350 735 530 785 430 769 b 126 583 270 702 174 652 b 68 477 103 552 83 516 b 39 328 50 432 39 382 b 51 192 39 280 39 232 b 108 85 63 151 85 117 b 295 -58 153 20 224 -28 b 558 -104 366 -89 479 -104 b 723 -82 618 -104 674 -97 b 836 -35 771 -67 810 -52 l 831 -31 b 686 -49 797 -43 750 -49 b 324 49 556 -49 409 -16 b 190 271 259 99 208 165 b 184 386 184 303 184 350 b 569 749 184 629 351 749 b 754 699 636 749 697 730 b 878 598 805 671 855 634 b 937 304 926 520 937 443 b 918 193 937 256 923 219 b 886 147 914 168 900 153 b 818 177 872 143 834 128 b 809 284 812 206 809 251 b 810 398 811 332 810 373 b 820 588 810 421 817 528 b 658 567 779 580 699 572 b 653 517 658 567 655 544 b 590 573 640 538 619 563 b 447 586 516 600 514 598 b 392 561 430 583 406 571 b 272 327 310 509 265 431 b 415 111 280 219 324 143 b 634 141 498 81 562 82 b 661 186 644 150 652 163 b 805 98 678 127 721 98 b 853 103 821 98 837 99 l 858 103 b 858 104 858 103 858 104 b 924 130 880 109 903 118 b 1028 228 959 152 1003 181 b 1076 409 1051 276 1076 336 b 955 690 1076 544 1035 633 z m 573 159 b 474 277 504 153 476 199 b 472 348 473 320 472 318 b 479 456 472 394 472 425 b 531 522 485 487 500 515 b 649 462 583 534 627 523 b 652 422 649 445 652 464 b 652 397 652 414 652 406 l 652 251 b 649 236 651 243 649 238 b 573 159 630 192 617 164 z "},"A":{"ha":907,"x_min":0,"x_max":0,"o":"m 920 5 b 815 143 890 44 834 101 b 566 758 761 262 642 564 b 505 905 540 822 519 875 b 455 1011 491 936 475 981 b 169 318 448 985 254 532 b 89 134 138 250 120 190 b 12 30 69 98 41 64 b -15 5 10 27 -4 12 b 189 5 28 5 148 5 b 152 82 151 30 145 60 b 225 259 170 137 204 204 l 513 257 b 553 157 535 194 538 214 b 557 107 554 152 553 128 b 506 5 564 69 533 32 b 920 5 629 5 799 5 z m 245 319 b 376 652 284 426 337 545 b 487 319 380 651 442 429 z "},"B":{"ha":918,"x_min":0,"x_max":0,"o":"m 58 7 b 58 7 58 6 59 5 z m 760 584 b 683 619 740 595 709 611 b 593 634 656 626 623 630 b 668 652 616 642 651 644 b 778 804 729 679 784 745 b 667 945 771 870 722 924 b 626 959 659 948 635 958 b 489 970 582 964 537 970 b 370 970 446 971 413 970 b 176 971 303 971 240 971 b 93 971 148 971 124 971 l 93 970 l 54 970 b 30 970 42 971 49 970 l 20 970 b 92 723 103 896 85 805 b 93 704 92 717 93 710 b 93 569 93 660 93 614 b 89 176 91 440 87 302 b 62 61 90 126 91 95 b 15 7 49 45 37 32 b 58 7 24 7 40 7 b 58 7 58 7 58 7 b 58 7 58 7 58 7 b 184 7 106 7 172 7 b 207 7 194 7 197 7 b 225 7 213 7 219 7 b 331 7 259 6 294 6 b 502 10 384 8 448 6 b 836 163 633 20 752 53 b 902 319 870 207 897 262 b 760 584 910 432 855 532 z m 347 927 b 416 931 369 928 393 931 b 528 871 464 930 507 916 b 510 706 553 819 546 749 b 347 642 470 658 415 643 b 347 927 347 734 347 836 z m 597 178 b 351 66 553 87 468 51 b 345 438 349 190 347 314 b 343 595 345 474 345 559 b 384 596 343 595 356 597 b 634 359 521 591 621 534 b 597 178 639 296 625 235 z "},"C":{"ha":924,"x_min":0,"x_max":0,"o":"m 874 217 b 828 314 853 259 849 275 b 795 386 818 335 801 374 b 780 380 789 383 780 380 b 699 168 778 322 724 222 b 528 68 646 82 591 69 b 336 218 443 67 372 105 b 348 806 280 401 276 631 b 381 855 356 826 368 839 b 515 918 416 896 457 920 b 704 774 605 916 677 856 b 744 688 714 743 732 732 b 884 860 803 750 828 801 b 759 931 830 893 811 907 b 513 981 687 965 600 982 b 284 923 428 979 364 965 b 149 823 236 898 190 864 b 187 105 -34 639 -8 253 b 516 -9 321 2 427 -11 b 912 125 611 -11 804 33 b 874 217 907 141 887 189 z "},"D":{"ha":974,"x_min":0,"x_max":0,"o":"m 802 854 b 462 962 703 934 584 957 b 84 972 336 968 210 968 b 21 978 63 972 42 976 b 17 968 20 975 18 971 b 47 937 27 958 40 949 b 91 853 64 910 90 881 b 91 209 94 653 91 409 b 33 10 92 136 87 67 b 33 6 32 9 33 7 b 195 6 89 8 139 5 b 360 6 245 7 310 5 b 681 57 458 6 578 -1 b 949 477 838 145 933 263 b 802 854 956 608 902 773 z m 628 180 b 353 79 576 79 457 58 b 353 896 353 331 353 646 b 645 784 459 942 606 885 b 675 638 662 738 671 687 b 628 180 688 465 686 293 z "},"E":{"ha":889,"x_min":0,"x_max":0,"o":"m 356 97 b 349 304 356 160 349 242 b 356 527 349 385 356 447 b 356 659 356 571 356 615 b 440 659 398 659 404 662 b 697 622 552 649 588 668 b 722 612 703 620 722 605 b 723 745 725 648 723 712 b 360 719 564 703 517 731 b 356 784 360 744 356 758 b 360 847 356 801 360 829 b 360 915 360 870 360 893 b 588 902 438 909 518 915 b 800 843 659 889 728 864 b 778 970 792 888 785 931 b 596 970 716 970 656 969 b 408 970 535 971 468 968 b 226 970 347 971 287 970 b 37 970 168 970 107 970 b 103 722 120 895 96 804 b 105 634 105 693 105 663 b 100 181 103 486 98 329 b 54 60 101 131 84 95 b 8 6 41 45 30 31 b 85 6 40 6 65 6 b 259 6 145 6 199 7 b 761 6 433 6 586 9 b 822 45 810 5 809 2 b 875 190 836 94 857 142 b 884 225 878 198 879 206 b 356 97 718 65 549 91 z "},"F":{"ha":771,"x_min":0,"x_max":0,"o":"m 343 707 l 343 915 b 559 902 422 909 489 915 b 771 843 630 889 699 864 b 749 970 764 888 756 931 b 567 970 687 970 627 969 b 391 970 506 971 451 968 b 210 970 331 971 271 970 l 21 970 b 86 722 103 895 79 804 b 88 634 89 693 89 663 b 83 271 87 518 83 390 l 83 271 b 83 185 83 242 83 213 b 21 6 82 119 88 52 l 407 6 b 343 190 347 87 345 87 b 340 285 343 217 340 258 l 340 647 b 429 646 382 647 394 649 b 662 610 542 637 553 656 b 687 599 668 608 687 593 b 688 732 690 636 688 700 b 343 707 529 691 500 719 z "},"G":{"ha":961,"x_min":0,"x_max":0,"o":"m 911 200 b 910 263 910 220 910 241 l 909 263 l 909 367 b 910 376 909 374 910 369 b 909 661 914 417 909 661 l 909 661 b 783 661 867 661 825 661 b 657 661 741 661 699 661 l 657 661 l 522 661 b 523 647 522 661 522 652 b 612 589 539 644 606 597 b 676 453 635 565 676 491 b 674 376 676 415 676 415 b 675 367 674 369 675 374 b 675 221 675 367 675 233 b 584 72 658 122 613 83 b 515 60 555 61 542 62 b 404 100 478 57 438 71 b 339 231 370 128 348 173 b 317 431 330 287 316 375 b 365 790 317 549 324 678 b 515 916 387 850 436 909 b 734 818 617 924 674 884 b 763 771 745 807 755 781 b 859 932 795 819 829 886 b 719 954 809 940 764 947 b 530 981 647 964 602 979 b 203 889 420 985 291 957 b 95 206 22 751 -33 421 b 516 -8 182 62 368 -8 b 734 33 596 -8 673 4 b 927 133 805 57 851 99 b 911 200 922 154 911 177 z "},"H":{"ha":944,"x_min":0,"x_max":0,"o":"m 880 60 b 848 185 850 95 847 135 b 848 587 850 318 850 452 l 848 699 b 849 721 848 707 849 714 b 854 852 853 762 847 810 b 872 915 857 875 861 894 b 915 969 882 934 896 952 l 848 969 l 848 969 b 722 969 806 969 764 969 b 608 969 680 969 650 969 l 608 969 l 535 969 b 569 929 549 956 560 943 b 600 829 590 898 596 863 b 607 721 604 792 604 757 b 608 699 607 714 608 707 l 608 685 l 570 685 l 422 683 l 353 685 l 332 685 l 332 699 b 334 721 333 707 333 714 b 338 852 337 762 331 810 b 357 915 342 875 345 894 b 399 969 367 934 380 952 l 332 969 l 332 969 b 206 969 290 969 249 969 b 93 969 164 969 134 969 l 93 969 l 20 969 b 54 929 34 956 45 943 b 84 829 74 898 81 863 b 91 721 88 792 88 757 b 93 699 92 714 92 707 l 96 574 b 89 318 94 488 91 404 b 88 175 88 271 88 223 b 67 60 89 125 97 95 b 19 5 54 45 41 30 b 79 5 51 5 59 5 b 140 6 102 5 118 6 b 183 6 157 6 167 6 b 206 7 193 7 197 7 b 235 6 216 7 225 7 b 284 6 252 6 268 6 b 340 5 307 6 317 5 b 412 5 360 5 380 5 b 364 60 390 30 377 45 b 332 185 334 95 331 135 b 332 587 334 318 334 452 l 332 621 l 409 621 l 421 623 l 434 621 l 473 621 l 507 619 l 547 624 l 610 622 l 611 574 b 605 318 610 488 606 404 b 604 175 604 271 603 223 b 583 60 605 125 613 95 b 535 5 570 45 557 30 b 594 5 567 5 574 5 b 656 6 618 5 634 6 b 699 6 672 6 683 6 b 722 7 709 7 712 7 b 751 6 731 7 741 7 b 800 6 767 6 784 6 b 856 5 822 6 832 5 b 927 5 876 5 896 5 b 880 60 906 30 893 45 z "},"I":{"ha":429,"x_min":0,"x_max":0,"o":"m 364 60 b 332 185 334 95 331 135 b 332 587 334 318 335 452 l 332 699 b 334 721 333 707 333 714 b 338 852 337 762 331 810 b 357 915 342 875 345 894 b 399 969 367 934 380 952 l 332 969 l 332 969 b 206 969 290 969 249 969 b 93 969 164 969 134 969 l 93 969 l 20 969 b 54 929 34 956 45 943 b 84 829 74 898 81 863 b 91 721 88 792 88 757 b 93 699 92 714 92 707 l 96 574 b 89 318 94 488 91 404 b 88 175 88 271 88 223 b 67 60 89 125 97 95 b 19 5 54 45 41 30 b 79 5 51 5 59 5 b 140 6 102 5 118 6 b 183 6 157 6 167 6 b 206 7 193 7 197 7 b 235 6 216 7 225 7 b 284 6 252 6 268 6 b 340 5 307 6 317 5 b 412 5 360 5 380 5 b 364 60 390 30 377 45 z "},"J":{"ha":744,"x_min":0,"x_max":0,"o":"m 661 968 b 535 967 619 968 577 968 b 421 968 493 968 463 968 l 421 967 l 348 967 b 382 928 362 955 374 941 b 413 828 403 897 409 861 b 420 720 417 791 417 756 b 421 698 420 713 421 705 l 424 573 b 418 316 423 486 419 401 b 418 304 418 312 418 308 b 417 156 413 251 417 215 b 344 53 417 85 380 54 b 246 253 283 52 246 119 b 251 361 246 288 244 349 b 245 364 249 362 247 363 b -8 204 152 301 87 269 b 95 72 23 146 47 111 b 394 -3 193 -7 287 -19 b 663 140 511 15 579 66 b 659 201 661 163 659 182 b 659 243 659 213 659 231 b 661 586 660 337 662 492 l 661 698 b 662 720 661 705 662 713 b 667 851 666 761 660 808 b 685 914 670 874 674 892 b 728 967 695 932 709 950 l 661 967 z "},"K":{"ha":990,"x_min":0,"x_max":0,"o":"m 1004 11 b 852 142 976 54 876 99 b 614 571 776 282 690 429 b 537 713 590 616 566 661 b 868 969 650 797 747 868 l 558 969 b 534 813 582 933 575 851 b 332 641 473 758 407 695 l 332 699 b 334 721 333 707 333 714 b 338 852 337 762 331 810 b 357 915 342 875 345 894 b 399 969 367 934 380 952 l 332 969 l 332 969 b 206 969 290 969 249 969 b 93 969 164 969 134 969 l 93 969 l 20 969 b 54 929 34 956 45 943 b 84 829 74 898 81 863 b 91 721 88 792 88 757 b 93 699 92 714 92 707 l 96 574 b 89 317 94 488 91 402 b 88 175 88 269 88 223 b 67 60 89 125 97 95 b 19 5 54 45 41 30 b 79 5 51 5 59 5 b 140 6 102 5 118 6 b 183 6 157 6 167 6 b 206 7 193 7 197 7 b 235 6 216 7 225 7 b 284 6 252 6 268 6 b 340 5 307 6 317 5 b 412 5 360 5 380 5 b 364 60 390 30 377 45 b 332 185 334 95 331 135 b 332 586 334 317 334 452 b 345 587 338 586 343 586 b 392 495 355 568 383 515 b 537 190 439 390 492 297 b 549 11 559 135 563 81 l 1004 11 z "},"L":{"ha":799,"x_min":0,"x_max":0,"o":"m 621 97 b 358 98 580 97 417 96 b 355 107 357 101 356 104 l 350 332 l 350 332 b 349 589 350 418 350 503 l 349 701 b 350 723 349 708 349 716 b 354 854 353 764 347 811 b 373 917 358 877 362 895 b 415 970 383 935 396 953 l 349 970 l 349 971 b 223 970 307 971 265 970 b 109 971 180 970 151 971 l 109 970 l 36 970 b 70 931 50 958 61 944 b 100 831 90 900 97 864 b 107 723 104 794 104 759 b 109 701 108 716 108 708 l 112 576 b 106 327 111 492 107 409 l 106 327 b 105 325 106 326 105 325 b 105 319 105 323 105 321 b 104 235 105 291 104 263 b 104 189 104 220 104 205 b 53 61 105 139 83 95 b 7 7 40 45 28 32 b 157 6 32 7 134 6 b 200 7 173 6 183 6 b 219 7 208 7 212 7 b 232 7 223 7 228 7 b 252 7 238 7 245 7 b 301 6 268 6 284 6 b 726 7 323 6 615 7 b 747 46 730 7 734 3 b 794 203 761 95 776 155 b 804 238 797 211 798 219 b 621 97 686 129 632 97 z "},"M":{"ha":1271,"x_min":0,"x_max":0,"o":"m 837 6 b 1281 6 963 6 1143 6 b 1167 206 1209 63 1178 132 b 1167 222 1167 211 1168 216 b 1092 847 1142 425 1117 643 b 1132 970 1086 893 1085 936 b 814 970 1023 970 904 970 b 642 621 776 889 693 720 b 476 881 586 706 525 801 b 433 969 461 905 444 936 b 119 970 385 969 188 970 b 166 786 173 916 184 852 b 164 765 164 779 165 772 b 90 175 139 568 115 371 b 73 132 88 160 81 145 b -4 6 53 95 19 45 b 244 6 71 6 168 6 b 177 159 199 51 171 107 b 207 416 186 244 197 330 b 249 789 221 544 234 661 b 251 795 249 789 247 794 b 573 266 356 618 464 450 b 828 792 639 421 734 624 b 836 765 834 782 835 774 b 893 193 855 575 874 384 b 890 142 895 176 894 158 b 837 6 882 95 862 54 z "},"N":{"ha":889,"x_min":0,"x_max":0,"o":"m 790 462 b 793 772 789 565 791 668 l 793 772 b 793 783 793 775 793 779 b 793 794 793 787 793 791 b 875 969 795 856 833 913 b 751 969 845 969 790 969 b 648 969 719 969 679 969 b 705 808 688 917 703 864 b 706 784 706 800 706 792 b 706 495 706 704 707 509 b 647 567 703 497 680 525 b 483 785 598 629 547 704 b 422 851 469 802 435 836 b 376 908 405 872 389 892 b 348 969 362 925 357 948 b 13 969 243 969 121 969 b 100 824 69 934 100 889 b 98 158 99 608 100 374 b 38 27 98 107 86 58 b 18 5 33 24 20 13 b 283 5 105 5 200 5 b 188 188 204 44 189 113 b 189 677 187 347 189 518 b 192 733 189 691 190 706 b 273 640 224 696 250 670 b 284 625 276 635 280 630 b 392 476 320 578 357 522 b 567 261 453 398 507 338 b 766 3 632 177 702 87 b 805 -33 774 -8 786 -15 b 805 38 805 1 806 19 b 790 462 800 179 791 320 z "},"O":{"ha":1000,"x_min":0,"x_max":0,"o":"m 902 770 b 638 965 844 869 750 940 b 500 979 586 976 549 981 b 361 965 451 981 413 976 b 97 770 249 940 155 869 b 175 108 -21 569 11 274 b 398 -2 241 41 308 21 b 484 -9 422 -8 459 -7 b 500 -9 489 -9 495 -9 b 515 -9 505 -9 510 -9 b 601 -2 540 -7 578 -8 b 824 108 691 21 759 41 b 902 770 988 274 1020 569 z m 660 174 b 549 50 643 114 618 62 b 500 45 533 48 516 42 b 450 50 483 42 467 48 b 339 174 381 62 356 114 b 309 486 311 270 311 368 b 318 649 311 528 309 589 b 360 825 326 709 340 769 b 499 922 382 887 433 923 l 500 922 b 639 825 566 923 617 887 b 681 649 659 769 673 709 b 690 486 690 589 688 528 b 660 174 688 368 688 270 z "},"P":{"ha":843,"x_min":0,"x_max":0,"o":"m 804 859 b 654 957 768 909 715 947 b 532 971 611 963 574 971 b 316 971 485 970 387 971 b 331 971 321 971 326 971 l 331 970 l 262 970 b 277 970 270 970 266 970 b 205 970 253 970 229 970 b 91 971 163 970 133 971 l 91 970 l 18 970 b 52 930 32 957 43 944 b 83 831 73 899 79 864 b 90 722 87 793 87 758 b 91 701 90 715 91 708 l 94 575 b 88 318 93 489 89 403 b 87 177 87 270 86 224 b 66 62 88 127 96 96 b 18 6 53 46 40 31 b 77 6 50 6 57 6 b 139 7 101 6 117 7 b 182 8 155 7 166 8 b 205 8 192 8 195 8 b 234 8 214 8 224 8 b 283 7 250 8 267 7 b 339 6 305 7 315 6 b 410 6 359 6 379 6 b 363 62 389 31 376 46 b 331 186 333 96 330 136 b 332 515 332 293 333 406 b 521 517 420 515 427 517 b 780 589 632 517 729 532 b 804 859 840 656 857 787 z m 578 643 b 508 579 567 607 545 584 b 332 574 456 571 395 574 l 332 715 b 332 714 332 714 332 714 b 332 764 332 727 332 745 b 333 883 332 806 332 854 b 337 916 333 893 325 916 b 523 900 396 916 478 921 b 577 834 550 886 567 864 b 578 643 596 776 596 701 z "},"Q":{"ha":1000,"x_min":0,"x_max":0,"o":"m 927 -5 b 770 -56 885 -52 828 -58 b 527 -47 691 -55 612 -51 b 568 -5 542 -36 555 -21 b 601 -1 580 -5 592 -3 b 824 109 691 23 759 42 b 902 771 988 275 1020 570 b 638 966 844 871 750 941 b 500 981 586 977 549 983 b 361 966 451 983 413 977 b 97 771 249 941 155 871 b 175 109 -21 570 11 275 b 398 -1 241 42 308 23 b 484 -7 422 -7 459 -5 b 500 -7 489 -8 495 -8 b 515 -7 505 -8 510 -8 b 515 -7 515 -7 515 -7 b 454 -49 495 -25 468 -43 b 300 -109 403 -70 352 -90 b 223 -155 271 -119 242 -127 b 234 -160 228 -157 231 -160 b 249 -156 239 -159 244 -158 b 460 -163 321 -123 391 -138 b 566 -204 496 -175 530 -191 b 920 -109 710 -255 836 -211 b 944 -2 945 -79 953 -42 b 927 -5 937 -3 930 -2 z m 309 488 b 318 650 311 529 309 590 b 360 827 326 710 340 770 b 499 923 382 888 433 924 l 500 923 b 639 827 566 924 617 888 b 681 650 659 770 673 710 b 690 488 690 590 688 529 b 660 175 688 370 688 271 b 580 61 646 125 626 80 b 467 159 563 118 519 157 b 352 137 427 160 392 155 b 339 175 347 149 343 162 b 309 488 311 271 311 370 z m 500 47 b 450 52 483 43 467 49 b 375 95 416 57 392 73 b 409 114 383 102 397 110 b 465 125 425 119 452 125 b 538 50 503 122 530 96 b 500 47 525 47 512 44 z "},"R":{"ha":988,"x_min":0,"x_max":0,"o":"m 955 282 b 905 362 948 296 917 344 b 771 211 886 282 834 211 b 715 217 743 211 741 208 b 583 310 651 237 623 264 b 393 550 524 377 423 488 b 541 552 440 551 472 552 b 800 624 652 552 749 567 b 824 863 860 690 876 791 b 674 954 788 913 734 945 b 551 968 631 961 594 969 b 317 968 504 968 388 969 b 332 968 322 968 327 968 l 332 968 l 263 968 b 278 968 271 968 267 968 b 206 968 254 968 230 968 b 93 968 164 968 134 969 l 93 968 l 20 968 b 54 928 34 955 45 942 b 84 828 74 897 81 862 b 91 720 88 791 88 756 b 93 699 92 713 92 706 l 96 573 b 89 316 94 487 91 401 b 88 174 88 268 88 222 b 67 59 89 124 97 94 b 19 4 54 44 41 29 b 79 4 51 4 59 4 b 140 5 102 4 118 5 b 183 6 157 5 167 5 b 206 6 193 6 197 6 b 235 6 216 6 225 6 b 284 5 252 5 268 5 b 340 4 307 5 317 4 b 412 4 360 4 380 4 b 364 59 390 29 377 44 b 332 184 334 94 331 134 b 333 549 334 291 334 441 b 334 549 334 549 334 549 b 453 266 355 477 429 328 b 602 44 483 188 534 93 b 799 -8 667 -3 695 -8 b 975 175 881 -8 973 61 b 955 282 975 214 971 246 z m 339 913 b 542 897 397 913 498 919 b 597 838 570 884 587 868 b 598 672 616 780 616 729 b 528 614 587 636 565 619 b 333 609 476 606 397 609 l 333 731 b 333 730 333 731 333 730 b 333 768 333 743 333 749 b 334 881 333 810 334 852 b 339 913 335 891 327 913 z "},"S":{"ha":1015,"x_min":0,"x_max":0,"o":"m 997 399 b 980 464 991 419 984 444 b 863 635 967 522 912 596 b 664 708 813 675 725 691 b 483 746 600 726 547 727 b 310 796 447 757 331 764 b 352 900 283 836 308 880 b 501 918 369 907 461 921 b 776 848 576 913 698 892 b 834 803 798 836 810 819 b 875 938 849 852 861 894 b 737 958 829 944 787 953 b 569 979 687 964 616 977 b 313 960 485 985 385 977 b 124 836 235 942 169 904 b 96 673 96 795 79 722 b 132 608 104 652 122 623 b 280 519 167 557 214 549 b 440 483 339 501 375 493 b 594 453 488 475 545 470 b 724 379 638 435 695 421 b 756 226 751 339 763 266 b 685 107 748 188 721 137 b 553 69 649 76 593 77 b 398 87 485 55 465 70 b 160 346 292 115 197 233 b 147 354 159 349 152 351 b 6 167 118 312 35 210 b 177 62 46 122 124 79 b 308 15 226 37 257 28 b 649 4 412 -13 545 -15 b 889 121 762 33 801 33 b 996 325 948 180 972 215 b 997 399 997 329 999 394 z "},"T":{"ha":878,"x_min":0,"x_max":0,"o":"m 802 980 b 678 969 799 980 718 969 b 677 969 678 969 678 969 l 609 969 l 609 970 b 434 969 567 970 476 969 b 174 969 391 969 213 969 b 75 980 134 969 78 980 b -4 744 55 911 11 811 b 6 737 -1 741 3 739 b 90 795 49 772 56 782 b 315 894 135 812 264 894 b 315 855 316 878 315 865 b 315 837 315 851 315 841 b 316 815 315 829 315 821 b 316 812 316 814 316 813 b 316 810 316 811 316 811 l 316 810 b 319 722 320 775 316 756 b 320 700 319 715 320 707 l 323 574 b 317 319 322 488 318 404 b 316 176 316 271 315 224 b 294 61 317 126 324 96 b 247 6 281 46 268 31 b 306 6 278 6 286 5 b 368 7 329 6 346 6 b 411 7 384 7 395 7 b 434 7 421 7 424 7 b 463 7 443 7 453 7 b 512 7 479 7 495 7 b 568 6 534 6 544 6 b 639 6 587 5 607 6 b 591 61 617 31 604 46 b 560 185 561 96 559 135 b 560 588 562 318 562 453 b 562 806 560 588 561 733 l 562 806 b 563 852 562 819 563 839 b 563 893 563 861 562 876 b 799 795 613 893 755 813 b 871 737 834 780 833 767 b 881 744 874 739 878 741 b 802 980 865 815 824 924 z m 707 969 b 707 969 707 969 707 969 b 707 969 709 969 710 969 z "},"U":{"ha":918,"x_min":0,"x_max":0,"o":"m 644 971 b 739 789 723 933 738 864 b 739 321 740 645 739 467 l 739 321 b 739 313 739 318 739 316 b 712 177 739 267 731 218 b 423 95 657 54 516 51 b 335 246 372 126 335 160 b 330 375 335 289 333 331 b 329 590 330 438 330 526 l 329 702 b 330 724 329 709 329 717 b 334 855 333 765 327 812 b 353 918 338 878 342 896 b 395 971 363 936 377 954 l 329 971 l 329 972 b 196 971 287 972 239 972 b 83 972 154 972 125 972 l 83 971 l 10 971 b 44 932 24 959 35 945 b 74 832 64 901 71 865 b 81 724 78 795 78 760 b 83 702 82 717 82 709 l 86 577 b 81 354 85 516 83 413 l 81 354 b 101 182 84 302 85 233 b 296 11 126 103 215 32 b 590 4 413 -18 496 -10 b 775 114 673 16 727 49 b 828 321 817 170 826 251 l 828 321 b 828 353 828 332 828 342 b 828 358 828 355 828 357 l 828 358 b 829 819 828 508 828 677 b 890 949 830 870 842 918 b 909 971 894 952 907 963 l 644 971 z "},"V":{"ha":925,"x_min":0,"x_max":0,"o":"m 674 969 b 730 846 726 954 744 886 b 657 662 708 783 682 724 b 565 411 633 602 596 493 b 528 501 555 430 533 489 b 437 761 493 583 473 679 b 441 969 408 826 373 915 b 19 969 314 969 136 970 b -21 969 12 969 -12 973 b 151 746 72 927 118 823 b 448 57 246 521 353 283 b 484 -40 456 40 474 -20 b 533 92 508 18 523 60 b 811 844 602 312 714 603 b 946 969 824 875 868 936 b 674 969 888 964 725 969 z "},"W":{"ha":1403,"x_min":0,"x_max":0,"o":"m 1245 969 b 1073 426 1206 831 1131 575 b 786 993 981 584 791 994 b 678 724 753 923 707 796 b 595 487 650 651 623 565 b 446 868 545 601 492 760 b 422 969 433 899 430 935 b -18 969 310 969 98 969 b 6 959 -20 965 -3 963 b 148 785 71 918 121 849 b 328 335 200 657 279 463 b 440 53 367 235 403 153 b 484 -31 447 34 470 -2 b 725 553 554 134 658 360 b 997 -31 826 348 898 168 b 1280 788 1041 85 1120 342 b 1419 969 1309 863 1360 927 b 1245 969 1387 969 1275 969 z "},"X":{"ha":958,"x_min":0,"x_max":0,"o":"m 969 5 b 830 183 924 65 860 137 b 552 619 745 311 639 492 b 576 649 552 619 557 621 b 687 808 610 692 654 757 b 808 915 713 849 770 897 b 887 969 811 916 865 956 b 650 969 827 969 705 969 b 655 881 653 937 666 903 b 519 673 622 817 559 730 b 399 969 461 765 414 819 b -8 969 256 969 133 969 b 31 933 3 950 18 943 b 128 818 60 912 105 844 b 358 481 230 698 275 615 b 368 455 374 455 368 455 b 169 179 323 392 217 240 b 49 52 135 135 88 92 b 3 5 36 39 24 26 b 230 5 83 5 160 5 b 215 60 224 27 215 43 b 226 123 215 81 215 106 b 391 360 267 183 346 299 b 412 393 396 368 405 379 b 538 166 468 303 493 243 b 533 5 559 127 573 63 b 969 5 593 5 899 5 z "},"Y":{"ha":988,"x_min":0,"x_max":0,"o":"m 734 969 b 763 842 770 941 780 871 b 723 777 751 821 741 805 b 619 629 694 730 660 680 b 439 896 565 701 491 825 b 452 969 422 919 440 947 l -14 969 b -17 954 -15 964 -16 959 b 8 938 -9 948 -1 940 b 109 880 49 931 80 908 b 309 626 175 814 241 701 b 394 501 323 611 367 543 b 390 318 392 437 391 367 b 389 175 389 271 388 223 b 368 60 390 125 397 95 b 320 5 355 45 342 30 b 379 5 352 5 359 5 b 441 6 402 5 419 6 b 484 6 457 6 468 6 b 507 7 494 7 497 7 b 536 6 516 7 526 7 b 585 6 552 6 569 6 b 641 5 607 6 617 5 b 712 5 661 5 680 5 b 664 60 691 30 677 45 b 633 185 635 95 632 135 b 634 514 634 260 635 395 b 635 515 634 514 634 515 b 855 844 700 608 789 742 b 954 928 881 884 906 898 b 1006 969 961 932 994 956 b 734 969 925 964 814 973 z "},"Z":{"ha":860,"x_min":0,"x_max":0,"o":"m 363 94 b 406 191 378 126 395 171 b 717 769 513 386 592 585 b 806 910 759 831 769 860 b 858 970 810 916 852 963 b 538 970 741 970 651 970 b 537 969 538 970 538 969 b 174 970 415 968 288 968 b 113 930 125 970 126 974 b 60 786 98 881 78 834 b 50 750 57 778 55 769 b 503 884 175 872 345 886 b 500 878 502 881 501 879 b 167 285 365 680 305 481 b 71 111 124 223 122 167 b -4 6 46 83 25 30 b 33 6 43 6 10 6 b 199 7 103 6 151 7 b 198 6 199 7 199 6 b 255 7 217 6 236 6 b 272 6 261 6 267 6 b 277 7 274 6 276 6 b 719 6 422 7 581 8 b 780 46 769 6 767 2 b 834 190 795 95 816 142 b 843 226 837 198 838 207 b 363 94 705 92 529 88 z "},"[":{"ha":342,"x_min":0,"x_max":0,"o":"m 286 1178 l 157 1175 l 83 1178 b 65 1169 78 1178 65 1174 l 61 1031 l 70 688 l 61 350 l 65 104 l 69 -56 l 65 -165 l 263 -161 l 451 -165 b 443 -153 451 -160 448 -155 l 359 -114 l 302 -86 l 275 -75 l 270 281 l 283 618 l 275 804 l 270 999 l 275 1037 l 275 1081 l 323 1108 l 353 1124 l 451 1169 l 451 1178 z "},"\\":{"ha":326,"x_min":0,"x_max":0,"o":"m 310 16 l 262 202 l 166 581 l 53 1085 l 32 1176 l -24 1176 l 50 805 l 153 407 l 248 -6 l 284 -165 l 346 -165 z "},"]":{"ha":342,"x_min":0,"x_max":0,"o":"m 55 -165 l 184 -162 l 259 -165 b 276 -155 264 -165 276 -161 l 280 -17 l 271 325 l 280 663 l 276 910 l 272 1070 l 276 1178 l 78 1175 l -110 1178 b -102 1167 -110 1173 -106 1168 l -18 1128 l 39 1099 l 66 1088 l 71 732 l 58 396 l 66 209 l 71 14 l 66 -24 l 66 -68 l 18 -95 l -11 -111 l -110 -156 l -110 -165 z "},"^":{"ha":471,"x_min":0,"x_max":0,"o":"m 235 976 l 15 627 l 21 622 l 235 782 l 449 622 l 455 627 z "},"_":{"ha":818,"x_min":0,"x_max":0,"o":"m 703 -28 l 230 -29 l 105 -32 l 63 -29 l 63 -88 l 136 -90 l 247 -88 l 698 -90 l 754 -89 l 754 -29 z "},"a":{"ha":807,"x_min":0,"x_max":0,"o":"m 694 171 b 693 235 691 209 695 206 b 692 455 688 308 700 382 b 496 671 678 591 610 641 b 442 678 479 675 460 677 b 311 676 397 681 351 681 b 181 628 241 666 250 655 b 90 511 160 620 106 567 b 249 471 145 497 194 485 b 250 499 251 486 249 489 b 366 641 260 568 289 639 b 454 580 417 642 437 627 b 463 466 467 543 466 498 b 368 435 426 454 396 446 b 250 404 323 418 293 417 b 141 358 216 393 175 376 b 38 260 86 328 55 301 b 20 155 25 230 17 190 b 69 57 24 117 46 81 b 162 6 93 31 125 18 b 261 -8 192 -4 229 -8 b 477 89 326 -8 412 5 b 602 -8 490 42 548 -8 b 808 65 671 -8 747 -8 b 694 171 791 65 700 72 z m 465 159 b 395 86 465 150 443 108 b 271 143 332 67 292 89 b 344 377 243 216 249 329 b 462 420 379 391 416 402 b 465 322 462 380 465 357 b 462 282 465 311 462 294 b 460 202 462 253 460 232 b 465 159 460 197 465 165 z "},"b":{"ha":869,"x_min":0,"x_max":0,"o":"m 838 370 b 667 652 828 517 765 606 b 468 674 607 680 534 688 b 375 636 442 669 402 654 b 298 547 348 618 310 579 b 298 546 298 547 298 547 b 302 727 299 610 303 662 b 313 971 302 808 309 889 b 148 940 257 960 203 946 b 3 931 92 933 60 933 b 3 925 3 925 3 931 b 72 801 9 921 75 850 b 70 642 70 748 70 695 b 75 441 70 567 75 509 b 73 300 76 398 72 344 b 72 156 73 259 72 200 b 28 20 70 101 64 57 b 25 7 21 14 25 7 b 191 7 114 7 105 7 b 269 7 221 7 269 7 b 291 99 287 47 283 75 b 392 16 304 78 336 37 b 628 12 486 -18 519 -14 b 685 38 651 17 666 26 b 838 370 797 109 848 229 z m 474 91 b 305 231 420 69 332 88 b 300 292 302 252 300 260 b 313 463 299 367 302 428 b 432 584 329 517 364 582 b 584 379 531 588 580 513 b 585 335 585 362 585 349 b 586 302 585 311 585 303 b 551 160 580 242 567 196 b 474 91 534 123 494 99 z "},"c":{"ha":731,"x_min":0,"x_max":0,"o":"m 687 169 b 676 181 680 176 689 172 b 622 125 665 166 646 140 b 554 84 596 106 577 92 b 406 78 503 66 460 54 b 311 183 351 103 326 143 b 309 504 283 303 275 374 b 468 620 332 592 390 630 b 538 580 503 613 517 602 b 584 462 561 554 579 508 l 589 461 b 715 594 626 504 684 558 b 693 606 711 601 694 605 b 680 614 689 609 684 611 b 242 650 549 688 382 701 b 27 370 124 607 44 502 b 199 42 11 238 81 104 b 415 -8 268 6 340 -9 b 554 17 472 -7 487 -6 b 713 136 608 36 655 69 b 687 169 713 136 726 132 z "},"d":{"ha":865,"x_min":0,"x_max":0,"o":"m 801 75 b 791 254 783 101 791 191 b 792 409 794 319 792 374 b 791 527 792 440 791 495 b 796 727 792 599 796 656 b 806 971 796 808 802 889 b 642 940 751 960 697 946 b 496 931 586 933 553 933 b 496 925 496 925 496 931 b 566 801 503 921 568 850 b 564 642 564 748 564 695 b 564 593 563 625 564 609 b 477 656 547 615 518 641 b 241 661 383 691 350 687 b 183 635 218 656 203 647 b 30 302 71 564 21 444 b 201 21 40 156 103 67 b 400 -2 261 -7 335 -16 b 494 37 427 4 467 19 b 569 122 520 54 555 91 l 569 7 b 757 7 599 7 757 7 l 843 7 b 801 75 832 29 819 50 z m 437 89 b 284 294 337 85 289 160 b 283 338 284 311 283 323 b 283 371 283 361 283 369 b 318 513 288 431 301 477 b 394 582 335 550 374 574 b 563 442 449 604 536 585 b 569 398 566 425 568 417 l 569 328 b 556 210 568 277 564 236 b 437 89 539 156 505 91 z "},"e":{"ha":747,"x_min":0,"x_max":0,"o":"m 680 236 b 587 117 658 187 648 155 b 486 91 557 99 520 93 b 373 125 450 88 405 106 b 275 375 280 184 273 292 b 275 418 276 427 275 369 b 275 421 275 419 275 420 l 714 421 b 708 464 714 421 712 446 b 661 579 703 495 694 543 b 417 681 605 642 505 678 b 239 650 347 683 301 673 b 28 370 120 607 38 503 b 201 38 16 212 85 98 b 370 -7 259 7 308 -4 b 541 17 433 -11 482 -8 b 723 216 596 41 671 90 b 680 236 723 216 696 229 z m 400 633 b 481 580 453 632 463 614 b 511 464 498 551 506 508 l 276 464 b 400 633 291 584 333 635 z "},"f":{"ha":449,"x_min":0,"x_max":0,"o":"m 313 253 b 311 404 316 318 311 370 b 311 481 311 424 311 454 l 90 484 b 91 440 91 469 91 455 b 88 299 92 396 88 343 l 88 255 b 87 154 88 231 88 176 b 31 19 86 99 68 56 b 28 6 25 12 28 6 b 279 6 59 6 279 6 l 384 6 b 342 62 373 28 359 37 b 313 253 324 87 313 190 z m 447 669 b 334 669 394 669 403 667 l 285 669 b 282 669 284 669 283 669 b 207 823 167 669 158 771 b 333 815 242 860 282 815 b 437 892 382 815 437 823 b 337 970 437 951 378 970 b 87 669 206 970 148 782 b 86 668 87 669 86 669 l 69 668 b 18 606 77 669 6 606 b 96 604 18 605 51 604 b 90 484 96 588 90 499 l 311 481 b 312 571 310 491 312 561 b 312 595 311 580 311 587 b 312 603 312 598 312 600 b 316 603 315 603 316 603 b 343 603 316 603 310 603 b 421 601 386 603 391 601 b 447 669 421 601 448 666 z "},"g":{"ha":750,"x_min":0,"x_max":0,"o":"m 674 776 b 506 683 609 767 544 731 b 484 663 500 675 492 668 b 377 674 450 671 422 673 b 237 654 318 673 288 669 b 29 369 91 612 22 490 b 179 129 36 264 93 182 b 116 79 160 112 126 87 b 30 -11 83 49 49 32 b 23 -91 20 -32 13 -69 b 126 -162 45 -140 78 -151 b 378 -222 204 -181 301 -199 b 515 -262 426 -236 468 -243 b 563 -332 548 -275 563 -296 b 475 -397 563 -367 522 -390 b 410 -398 462 -399 423 -396 b 411 -436 410 -411 411 -424 b 642 -384 498 -436 586 -432 b 707 -291 683 -350 693 -341 b 681 -129 724 -232 720 -165 b 597 -82 660 -109 624 -93 b 357 -16 509 -48 441 -37 b 221 20 316 -6 262 9 b 215 98 190 29 173 49 b 222 108 218 101 220 105 b 312 90 251 98 281 94 b 377 85 342 87 347 84 b 441 90 406 84 411 87 b 569 125 486 96 528 101 b 724 369 658 179 717 262 b 520 653 731 489 663 610 b 537 670 525 659 531 665 b 651 687 569 700 592 714 b 736 674 675 676 710 668 b 787 730 759 680 784 703 b 674 776 774 770 715 781 z m 472 205 b 412 133 459 170 443 155 b 377 125 402 126 390 127 b 341 133 364 127 351 126 b 281 205 310 155 294 170 b 272 531 242 305 250 427 b 295 595 276 553 285 573 b 377 638 310 626 342 638 b 458 595 411 638 444 626 b 481 531 468 573 477 553 b 472 205 503 427 511 305 z "},"h":{"ha":846,"x_min":0,"x_max":0,"o":"m 791 65 b 766 253 769 89 766 190 b 769 360 767 286 768 328 b 770 366 769 362 770 364 b 770 503 770 439 770 391 b 590 682 770 627 692 679 b 403 628 529 683 456 657 b 309 573 379 614 341 592 b 309 761 309 658 309 757 b 313 857 310 793 311 825 b 319 970 315 895 318 932 b 313 969 317 970 315 969 b 155 939 260 958 208 945 b 115 935 140 937 127 936 b 16 930 82 932 57 932 b 15 924 15 924 16 930 b 79 794 22 920 81 842 b 79 587 77 741 79 632 l 79 255 b 78 154 79 231 78 176 b 22 19 77 99 59 56 b 19 6 16 13 19 6 b 270 6 49 6 270 6 l 375 6 b 373 10 374 7 373 8 b 323 71 362 31 334 43 b 304 241 310 100 304 178 b 309 438 307 306 309 366 b 309 452 309 443 309 448 b 309 507 309 454 309 476 b 415 588 324 548 377 583 b 541 499 480 596 537 577 b 540 366 543 471 538 393 b 541 314 541 345 541 327 l 541 255 b 540 154 541 231 540 176 b 484 19 539 99 520 56 b 481 6 477 13 481 6 b 732 6 511 6 732 6 l 834 6 b 791 65 820 21 812 43 z "},"i":{"ha":399,"x_min":0,"x_max":0,"o":"m 343 74 b 308 253 325 100 308 190 b 313 438 311 318 313 366 b 323 682 313 519 320 599 b 159 650 268 671 214 657 b 20 641 103 643 76 644 b 19 636 19 636 20 641 b 83 505 26 631 85 554 b 83 299 81 453 83 343 l 83 255 b 82 154 83 231 83 176 b 38 19 81 99 75 56 b 35 6 32 12 35 6 b 274 6 66 6 274 6 l 385 6 b 343 74 374 28 361 49 z m 125 767 b 204 751 143 756 178 751 b 266 767 236 754 245 754 b 332 869 306 791 337 814 b 264 953 328 912 300 940 b 111 932 214 972 154 968 b 125 767 48 880 54 793 z "},"j":{"ha":368,"x_min":0,"x_max":0,"o":"m 18 637 b 17 632 17 632 18 637 b 81 501 24 627 83 550 b 81 295 79 449 81 339 l 81 251 b 81 103 81 244 81 113 l 81 103 b 80 -41 81 41 80 21 b 48 -188 80 -114 81 -162 b -57 -205 17 -211 -31 -208 b 117 -268 -31 -249 46 -277 b 235 -216 162 -262 211 -240 b 307 60 309 -141 307 -29 b 306 103 307 74 307 89 l 307 103 b 306 249 306 111 306 241 b 311 434 309 314 311 362 b 321 678 311 514 318 595 b 157 646 266 667 212 653 b 18 637 101 639 74 640 z m 123 763 b 202 747 141 752 176 747 b 264 763 234 749 243 750 b 330 864 303 787 335 810 b 262 949 326 908 298 935 b 109 928 212 968 151 964 b 123 763 46 876 52 789 z "},"k":{"ha":851,"x_min":0,"x_max":0,"o":"m 502 6 b 859 6 553 6 824 6 b 811 46 853 12 818 39 b 710 182 770 90 741 139 b 652 273 689 211 671 242 b 522 502 598 358 576 415 b 774 669 600 555 683 606 b 538 669 723 669 575 669 b 538 633 538 669 541 654 b 506 568 536 610 522 581 b 327 432 429 507 408 490 b 297 412 319 425 308 418 b 296 526 297 444 296 496 b 301 726 296 598 301 655 b 311 970 300 807 307 888 b 146 939 256 959 201 945 b 7 929 90 932 64 932 b 7 924 7 924 7 929 b 71 794 13 919 73 842 b 68 641 68 741 68 694 b 74 440 68 566 73 507 b 71 299 74 396 71 343 l 71 255 b 70 154 70 231 70 176 b 26 19 69 99 62 56 b 23 6 19 12 23 6 b 261 6 53 6 261 6 l 372 6 b 330 74 361 28 348 49 b 295 253 312 100 295 190 b 297 359 297 293 297 329 b 346 389 307 365 335 385 b 502 6 426 269 473 140 z "},"l":{"ha":385,"x_min":0,"x_max":0,"o":"m 330 74 b 295 253 312 100 295 190 b 297 407 298 318 297 373 b 296 526 297 439 296 494 b 301 726 296 598 301 655 b 311 970 300 807 307 888 b 146 939 256 959 201 945 b 7 930 90 932 64 932 b 7 924 7 924 7 930 b 71 794 13 920 73 842 b 68 641 68 741 69 694 b 74 440 68 566 73 508 b 71 299 74 396 71 343 l 71 255 b 70 154 70 231 70 176 b 26 19 69 99 62 56 b 23 6 19 12 23 6 b 261 6 53 6 261 6 l 372 6 b 330 74 361 28 348 49 z "},"m":{"ha":1286,"x_min":0,"x_max":0,"o":"m 1231 65 b 1206 253 1209 88 1206 190 b 1210 359 1208 286 1209 328 b 1210 366 1210 362 1210 364 b 1210 503 1210 439 1210 391 b 1031 681 1210 627 1133 678 b 843 625 969 683 896 654 b 754 566 816 609 785 588 b 582 681 731 644 665 679 b 395 625 521 683 447 654 b 319 575 372 612 346 594 b 325 682 321 611 323 646 b 319 680 323 681 321 681 b 160 650 265 670 213 657 b 121 646 145 648 133 647 b 21 641 88 643 63 643 b 21 636 21 636 21 641 b 84 505 27 631 87 554 b 85 299 82 453 84 343 l 85 255 b 84 154 84 231 84 176 b 28 19 82 99 64 56 b 24 6 21 12 24 6 b 275 6 55 6 275 6 l 380 6 b 378 10 380 7 379 8 b 328 71 367 30 340 43 b 309 241 316 100 309 178 b 314 438 312 306 315 366 b 314 452 314 442 314 447 b 315 473 315 459 315 466 b 316 509 315 485 315 497 b 416 587 332 548 380 583 b 533 498 482 596 529 576 b 532 366 535 471 530 393 b 533 314 533 345 533 327 l 533 255 b 532 154 533 231 532 176 b 476 19 531 99 512 56 b 473 6 469 12 473 6 b 724 6 503 6 724 6 l 826 6 b 783 65 812 21 804 42 b 758 253 761 88 758 190 b 761 359 759 286 760 328 b 762 366 761 362 762 364 b 762 501 762 438 762 392 b 865 587 774 544 826 583 b 982 498 930 596 978 576 b 981 366 983 471 979 393 b 981 314 981 345 981 327 l 981 255 b 980 154 981 231 981 176 b 925 19 979 99 961 56 b 921 6 918 12 921 6 b 1172 6 952 6 1172 6 l 1275 6 b 1231 65 1260 21 1252 42 z "},"n":{"ha":851,"x_min":0,"x_max":0,"o":"m 796 65 b 771 253 774 89 771 190 b 775 360 773 286 774 328 b 775 366 775 362 775 364 b 775 503 775 439 775 391 b 596 682 775 627 698 679 b 409 628 534 683 462 657 b 319 576 385 614 350 594 b 325 682 321 611 323 646 b 319 680 323 681 321 681 b 160 650 265 670 213 657 b 121 646 145 648 133 647 b 21 641 88 643 63 643 b 21 636 21 636 21 641 b 84 505 27 631 87 554 b 85 299 82 453 84 343 l 85 255 b 84 154 84 231 84 176 b 28 19 82 99 64 56 b 24 6 21 13 24 6 b 275 6 55 6 275 6 l 380 6 b 378 10 380 7 379 8 b 328 71 367 31 340 43 b 309 241 316 100 309 178 b 314 438 312 306 315 366 b 314 452 314 443 314 448 b 315 473 315 459 315 466 b 316 511 315 485 316 498 b 421 588 333 550 384 583 b 547 499 486 596 543 577 b 546 366 548 471 544 393 b 546 314 546 345 546 327 l 546 255 b 545 154 546 231 546 176 b 490 19 544 99 526 56 b 486 6 483 13 486 6 b 737 6 517 6 737 6 l 840 6 b 796 65 825 21 817 43 z "},"o":{"ha":858,"x_min":0,"x_max":0,"o":"m 591 653 b 429 676 531 670 497 674 b 266 653 361 674 326 670 b 26 321 97 603 17 462 b 205 39 33 197 102 101 b 354 -2 253 10 302 5 b 429 -8 388 -6 395 -9 b 503 -2 463 -9 469 -6 b 652 39 555 5 604 10 b 832 321 755 101 824 197 b 591 653 840 462 761 603 z m 540 131 b 470 48 524 91 505 73 b 429 38 458 39 444 41 b 387 48 413 41 399 39 b 317 131 352 73 333 91 b 307 509 273 247 282 389 b 334 584 312 535 322 559 b 429 634 351 620 389 634 b 524 584 468 634 506 620 b 550 509 535 559 545 535 b 540 131 575 389 585 247 z "},"p":{"ha":865,"x_min":0,"x_max":0,"o":"m 834 366 b 663 647 824 513 761 601 b 464 670 603 676 529 684 b 370 631 438 664 397 649 b 296 546 344 614 309 578 l 296 664 b 107 664 265 664 107 664 l 21 664 b 63 593 32 642 45 618 b 73 414 81 567 73 477 b 72 260 71 349 72 294 b 73 141 72 228 73 173 b 68 -59 72 69 68 12 b 58 -269 68 -140 62 -187 b 223 -238 113 -259 167 -245 b 368 -229 279 -231 311 -232 b 368 -224 368 -224 368 -229 b 298 -99 361 -219 296 -148 b 301 26 300 -47 300 -27 b 300 75 301 43 301 59 b 387 12 317 54 346 27 b 623 7 481 -22 514 -19 b 681 34 647 13 661 21 b 834 366 793 104 843 224 z m 470 87 b 301 227 415 65 328 83 b 296 270 298 243 296 252 l 296 340 b 308 459 297 391 300 432 b 427 580 325 512 359 577 b 580 374 527 583 576 508 b 581 330 580 357 581 345 b 581 297 581 307 581 299 b 546 155 576 237 563 191 b 470 87 529 118 490 95 z "},"q":{"ha":869,"x_min":0,"x_max":0,"o":"m 796 -99 b 799 26 798 -46 798 -27 b 793 227 799 101 794 160 b 796 369 793 271 796 324 b 797 513 796 410 796 468 b 841 651 798 568 804 614 b 844 664 847 657 844 664 b 678 664 755 664 764 664 b 600 664 648 664 600 664 b 578 570 582 624 586 594 b 477 652 564 591 532 632 b 241 657 383 686 350 682 b 183 630 218 651 203 642 b 30 298 71 559 21 440 b 201 16 40 151 103 63 b 400 -6 261 -12 335 -20 b 494 33 427 0 467 15 b 570 122 521 51 559 89 b 570 122 570 122 570 122 b 566 -59 569 58 566 6 b 556 -269 566 -140 559 -187 b 720 -238 611 -259 665 -245 b 866 -229 776 -231 809 -232 b 866 -224 866 -224 866 -229 b 796 -99 859 -219 794 -148 z m 437 84 b 284 290 337 80 289 156 b 284 333 284 306 284 319 b 283 367 284 357 283 365 b 318 508 288 426 301 472 b 394 577 335 546 374 569 b 563 437 449 599 536 581 b 569 376 567 416 569 408 b 556 205 569 301 567 240 b 437 84 539 152 505 87 z "},"r":{"ha":643,"x_min":0,"x_max":0,"o":"m 474 681 b 341 534 392 675 369 599 b 315 454 328 502 320 477 b 319 569 316 486 317 538 b 325 681 321 606 323 644 b 319 680 323 681 321 681 b 160 650 265 670 213 656 b 121 646 145 648 133 647 b 21 641 88 643 63 643 b 21 636 21 636 21 641 b 84 505 27 631 87 554 b 85 299 82 452 84 343 l 85 255 b 84 154 84 231 84 176 b 28 18 82 99 64 56 b 24 6 21 12 24 6 b 275 6 55 6 275 6 l 380 6 b 378 10 380 7 379 8 b 328 71 367 30 340 43 b 309 241 316 100 309 178 b 312 298 310 262 311 280 b 312 287 312 294 312 290 b 421 518 313 392 334 515 b 547 425 477 520 504 499 l 551 427 b 638 601 553 429 610 539 b 474 681 602 657 548 687 z "},"s":{"ha":722,"x_min":0,"x_max":0,"o":"m 699 244 b 691 289 694 257 694 275 b 614 399 682 330 648 373 b 459 462 579 428 502 450 b 355 493 414 475 400 480 b 297 524 330 501 312 502 b 343 616 279 553 294 601 b 394 620 355 622 381 621 b 563 579 446 617 506 612 b 603 547 578 570 586 558 b 631 642 613 582 622 611 b 534 659 600 646 569 655 b 393 678 498 663 426 677 b 221 661 335 683 271 673 b 84 570 167 648 115 618 b 58 434 64 541 46 469 b 83 387 63 419 76 397 b 188 311 107 351 142 333 b 342 266 226 294 300 276 b 400 244 376 258 370 261 b 465 141 451 214 474 191 b 387 63 455 91 425 72 b 252 63 340 52 299 50 b 93 183 178 82 119 104 b 84 189 92 186 87 187 b 18 93 63 159 39 123 b 128 30 43 70 91 42 b 208 4 155 21 181 10 b 473 0 296 -14 390 -11 b 629 68 536 16 583 22 b 697 218 670 109 681 141 b 699 244 698 220 700 241 z "},"t":{"ha":508,"x_min":0,"x_max":0,"o":"m 497 132 b 411 105 485 118 427 105 b 327 189 359 105 327 155 b 327 228 327 190 327 220 l 327 228 b 325 403 328 281 325 373 b 324 479 325 423 324 452 l 103 482 b 104 438 104 468 104 453 b 101 272 105 395 101 317 l 101 253 b 104 157 101 222 104 191 b 283 -8 110 97 139 -8 b 475 80 366 -8 423 29 b 503 126 479 87 496 110 z m 103 482 l 324 479 b 325 570 324 489 325 559 b 325 593 325 578 325 585 b 325 601 325 595 325 598 b 329 601 328 601 329 601 b 356 602 329 602 323 602 b 434 599 399 602 404 599 b 460 668 434 599 462 665 b 347 668 407 668 416 665 l 325 668 b 325 668 325 668 325 668 b 325 935 325 684 321 892 b 315 933 321 931 321 934 b 58 667 256 875 99 710 b 55 662 56 665 55 663 b 7 604 43 647 -3 604 b 109 602 7 603 52 602 b 103 482 109 586 103 497 z "},"u":{"ha":836,"x_min":0,"x_max":0,"o":"m 751 168 b 751 375 753 221 751 330 l 751 418 b 752 519 751 442 752 498 b 808 655 753 574 772 617 b 811 668 815 661 811 668 b 560 668 781 668 560 668 l 456 668 b 458 664 456 666 457 665 b 508 602 468 643 496 630 b 526 433 520 573 526 496 b 521 236 524 367 521 307 b 521 221 521 231 521 226 b 521 216 521 219 521 218 b 521 221 521 218 521 219 b 429 89 519 172 468 97 b 309 178 364 77 313 100 b 306 307 307 206 309 280 b 306 359 306 328 306 346 l 306 418 b 307 519 306 442 306 498 b 363 655 308 574 326 617 b 366 668 369 661 366 668 b 115 668 335 668 115 668 l 13 668 b 56 608 27 653 35 631 b 81 420 78 585 81 483 b 77 314 80 387 78 345 b 77 307 77 311 77 309 b 77 170 77 234 77 282 b 262 -8 77 47 161 -8 b 443 45 318 -8 391 16 b 516 96 466 58 491 76 b 511 -8 515 61 512 27 b 517 -7 513 -8 515 -8 b 676 23 570 4 622 17 b 715 27 690 25 703 26 b 815 32 748 30 773 30 b 815 37 815 37 815 32 b 751 168 808 42 749 119 z "},"v":{"ha":792,"x_min":0,"x_max":0,"o":"m 792 675 b 592 675 772 675 608 675 b 628 567 592 675 643 617 b 558 414 584 469 609 517 b 508 307 538 372 529 351 b 419 490 470 376 452 425 b 390 547 405 516 401 521 b 433 661 363 615 385 648 b 433 677 433 661 434 672 b 188 675 360 671 271 674 b -10 675 105 668 60 675 b 102 554 -26 685 102 554 b 323 128 201 403 241 276 b 409 -36 341 91 409 -36 b 644 484 409 -36 586 363 b 718 590 666 529 685 565 b 792 675 730 598 817 675 z "},"w":{"ha":1168,"x_min":0,"x_max":0,"o":"m 1167 669 l 968 669 b 1003 561 968 669 1018 611 b 933 407 959 463 984 511 b 892 319 916 372 907 351 b 749 545 838 397 800 473 b 691 630 729 573 712 603 b 651 681 684 639 665 671 b 482 356 592 579 527 445 b 373 595 446 441 405 515 b 384 669 366 613 375 650 l -6 669 b 20 634 5 654 12 644 b 90 547 43 605 70 578 b 150 443 111 514 133 478 b 318 96 204 327 264 211 b 366 -34 333 64 349 7 b 393 17 379 -16 389 6 b 511 266 430 105 474 178 b 574 386 529 307 551 336 b 799 -34 651 235 733 112 b 820 13 804 -30 818 9 b 914 248 860 93 884 170 b 914 248 914 248 914 248 b 1020 478 956 340 997 430 b 1093 583 1042 523 1060 559 b 1167 669 1105 592 1192 669 z "},"x":{"ha":871,"x_min":0,"x_max":0,"o":"m 515 461 l 527 472 b 573 510 559 500 543 485 b 793 671 599 536 735 637 b 572 671 793 671 595 671 b 556 555 584 654 586 591 b 519 519 526 526 545 545 b 488 493 493 494 488 493 b 402 629 451 545 436 583 b 380 671 395 639 380 671 b 328 671 362 675 348 670 b 31 672 225 674 135 669 b 16 671 18 672 35 673 b 120 581 22 660 88 613 b 303 335 192 511 241 416 b 327 301 311 327 319 312 b 54 51 302 279 165 120 b -1 7 53 50 5 24 b 244 7 73 5 177 7 b 280 7 252 7 264 7 b 250 51 270 17 256 44 b 255 150 226 79 230 123 b 360 262 285 189 296 201 b 377 242 375 242 366 255 b 473 88 425 179 426 151 b 528 7 490 65 508 38 b 822 7 520 11 712 4 b 878 7 837 7 878 7 b 515 461 715 160 642 307 z "},"y":{"ha":833,"x_min":0,"x_max":0,"o":"m 643 665 b 677 530 679 644 699 572 b 582 348 641 461 617 418 b 557 311 577 338 570 329 b 412 585 523 380 449 499 b 382 665 399 614 387 633 b 332 665 346 665 361 669 b 76 665 242 665 161 665 b -5 665 57 669 13 665 b -5 660 -5 661 -6 660 b 152 484 89 602 115 547 b 417 15 231 348 335 149 b 388 -51 417 15 400 -31 b 327 -161 363 -94 357 -113 b 106 -196 295 -218 206 -207 b 89 -221 102 -195 95 -213 b 299 -325 121 -239 267 -312 b 373 -198 307 -328 341 -265 b 489 16 404 -134 461 -50 b 795 615 577 219 691 419 b 810 635 804 631 798 621 b 839 665 815 641 831 658 b 643 665 772 665 710 665 z "},"z":{"ha":753,"x_min":0,"x_max":0,"o":"m 716 146 b 696 138 705 142 698 141 b 591 73 675 103 628 82 b 348 45 524 52 440 47 b 743 664 463 230 590 498 b 697 660 721 663 709 660 b 514 660 631 660 578 660 b 150 660 369 660 295 657 b 83 660 131 661 108 660 b 88 510 89 613 82 553 b 107 530 100 520 105 526 b 213 589 128 565 176 580 b 423 618 290 613 316 616 b 282 404 363 541 335 473 b 7 4 220 324 76 88 b -4 -8 3 0 0 -4 b 43 -3 18 -6 31 -4 b 217 1 108 5 153 1 b 656 1 362 1 511 1 b 721 1 676 1 698 1 b 716 146 715 48 722 103 z "},"{":{"ha":421,"x_min":0,"x_max":0,"o":"m 190 -56 b 261 -133 210 -87 233 -113 b 533 -165 311 -172 446 -165 l 533 -156 b 392 -41 488 -139 415 -88 b 344 130 368 7 351 42 b 330 275 340 174 332 210 b 337 491 328 337 337 411 b 332 585 337 518 332 560 b 331 766 333 656 328 712 b 344 884 333 808 341 852 b 389 1062 351 971 365 1015 b 533 1163 412 1109 485 1148 l 533 1178 b 277 1144 448 1178 327 1182 b 188 1060 244 1120 209 1098 b 156 983 175 1037 165 1012 b 125 779 140 931 130 851 b 117 609 123 746 117 646 b 108 579 118 598 114 588 l 21 493 l 99 426 b 122 363 114 408 122 386 b 127 159 122 298 120 210 b 151 49 132 115 141 83 b 190 -56 161 14 174 -29 z "},"|":{"ha":188,"x_min":0,"x_max":0,"o":"m 127 538 l 121 987 l 121 1176 l 65 1176 l 60 1089 l 71 811 l 65 425 l 60 305 l 60 -165 l 121 -165 l 115 -14 z "},"}":{"ha":418,"x_min":0,"x_max":0,"o":"m 226 1069 b 156 1146 207 1100 184 1126 b -117 1178 106 1185 -30 1178 l -117 1169 b 25 1053 -71 1152 2 1101 b 73 883 49 1006 66 970 b 87 738 77 839 85 803 b 80 522 88 676 80 602 b 84 428 80 495 84 453 b 86 247 84 357 88 301 b 73 129 84 205 76 161 b 27 -49 66 42 52 -2 b -117 -150 5 -96 -68 -135 l -117 -165 b 140 -132 -31 -165 90 -169 b 229 -47 172 -107 208 -85 b 261 30 241 -24 252 1 b 291 233 276 81 287 162 b 299 404 294 267 299 366 b 309 434 299 415 303 425 l 396 520 l 318 587 b 295 650 303 605 295 627 b 290 854 295 715 297 803 b 266 964 285 897 276 929 b 226 1069 256 999 243 1042 z "},"":{"ha":524,"x_min":0,"x_max":0,"o":""},"":{"ha":283,"x_min":0,"x_max":0,"o":"m 255 -159 b 237 -54 249 -125 243 -89 b 169 430 209 114 180 290 l 121 431 b 115 364 121 410 117 384 b 65 63 108 256 87 164 b 42 -74 53 11 52 -23 b -24 -294 28 -142 4 -225 b 298 -294 87 -290 202 -295 b 255 -159 282 -250 266 -204 z m 146 492 b 245 592 202 491 245 533 b 143 681 246 643 202 681 b 36 584 80 682 34 641 b 146 492 37 538 90 494 z "},"":{"ha":579,"x_min":0,"x_max":0,"o":"m 528 356 b 520 365 523 361 529 358 b 479 323 512 353 497 334 b 428 292 459 309 445 298 b 363 277 405 284 384 277 l 371 531 l 367 694 b 416 665 391 688 401 680 b 450 576 434 645 447 610 l 454 575 b 549 675 482 607 526 648 b 532 684 546 680 533 684 b 523 690 529 686 526 688 b 366 738 475 717 421 733 l 365 744 l 365 859 l 320 859 l 320 782 l 326 761 l 325 740 b 193 717 280 740 235 732 b 32 507 105 685 45 606 b 161 260 20 408 72 307 b 317 223 211 234 262 223 l 320 92 l 365 92 l 359 182 l 361 224 b 428 241 379 226 396 230 b 547 331 469 256 504 281 b 528 356 547 331 557 328 z m 245 366 b 244 607 224 457 219 510 b 325 694 257 658 286 687 l 320 418 l 314 298 l 315 289 b 245 366 275 308 257 337 z "},"":{"ha":915,"x_min":0,"x_max":0,"o":"m 238 85 b 473 359 323 129 437 201 b 484 457 474 364 479 406 l 670 456 l 726 458 l 726 505 l 675 506 l 489 505 b 503 657 496 577 503 650 b 514 780 511 694 509 744 b 592 937 519 816 530 946 b 698 664 656 928 686 730 b 863 836 757 726 806 776 b 685 946 807 874 737 923 b 578 981 633 969 629 981 b 411 918 511 981 462 957 b 305 712 367 885 335 837 b 284 504 304 686 296 600 l 200 503 l 158 505 l 158 458 l 250 456 l 278 457 b 236 208 266 361 250 263 b 108 60 223 160 138 95 b 62 6 95 45 84 31 b 194 6 94 6 174 6 b 357 6 255 7 296 7 b 766 6 530 6 591 9 b 827 46 815 5 813 2 b 880 202 841 94 862 154 b 889 238 883 210 884 218 b 238 85 723 77 430 78 z "},"":{"ha":1149,"x_min":0,"x_max":0,"o":"m 814 969 b 843 842 849 941 859 871 b 803 777 830 821 820 805 b 698 629 773 731 739 680 b 518 896 644 701 570 826 b 531 969 501 920 519 947 l 66 969 b 63 954 65 964 64 959 b 87 939 71 949 78 940 b 188 880 128 932 160 908 b 388 627 254 814 320 701 b 457 527 400 614 431 567 l 369 526 l 327 528 l 327 481 l 401 479 l 472 480 b 471 431 472 464 472 447 l 369 429 l 327 431 l 327 385 l 401 383 l 470 384 b 469 319 470 360 469 338 b 468 176 468 271 467 223 b 447 61 469 126 477 95 b 399 5 434 46 421 30 b 458 5 431 5 438 5 b 520 6 482 6 498 6 b 563 7 536 6 547 7 b 586 7 573 7 576 7 b 615 7 595 7 605 7 b 664 6 631 7 648 6 b 720 5 686 6 696 6 b 791 5 740 5 760 5 b 744 61 770 30 757 46 b 712 185 714 95 711 135 b 713 383 713 233 713 306 l 796 383 l 852 384 l 852 431 l 801 433 l 713 432 b 713 480 713 448 713 464 l 796 479 l 852 481 l 852 528 l 801 529 l 723 529 b 934 844 788 622 871 748 b 1033 928 960 884 985 898 b 1086 969 1040 932 1074 956 b 814 969 1004 965 893 973 z "},"":{"ha":0,"x_min":0,"x_max":0,"o":""},"":{"ha":865,"x_min":0,"x_max":0,"o":"m 766 170 b 766 376 769 222 767 332 l 766 420 b 767 521 767 444 767 499 b 823 656 769 576 787 619 b 826 669 830 663 826 669 b 576 669 796 669 576 669 l 471 669 b 473 665 471 668 472 667 b 523 604 484 644 511 632 b 542 434 535 575 542 497 b 537 237 539 369 536 309 b 536 223 537 232 537 228 b 536 218 536 221 536 219 b 536 223 536 219 536 221 b 444 91 535 174 483 99 b 324 180 380 79 328 102 b 322 309 323 208 324 282 b 321 330 321 317 321 324 b 321 332 321 331 321 331 b 321 361 321 343 321 353 l 321 420 b 322 521 321 444 322 499 b 378 656 323 576 341 619 b 381 669 384 663 381 669 b 130 669 351 669 130 669 l 28 669 b 71 610 42 654 50 632 b 96 422 93 586 96 485 b 93 316 95 389 93 347 b 92 309 92 313 92 311 b 92 277 92 294 92 284 b 92 237 92 264 92 251 b 92 223 92 232 92 228 b 92 -55 92 216 92 -48 b 88 -151 91 -87 90 -119 b 82 -264 86 -189 83 -226 b 88 -263 84 -263 86 -263 b 246 -233 141 -252 193 -239 b 286 -228 261 -231 274 -229 b 385 -224 319 -226 344 -225 b 386 -218 386 -218 385 -224 b 322 -88 379 -213 320 -136 b 323 -2 323 -77 323 -45 b 459 47 369 6 420 25 b 532 97 482 60 506 78 b 526 -7 530 63 528 28 b 532 -5 528 -6 530 -6 b 691 25 585 5 638 18 b 730 29 706 27 718 28 b 830 34 763 32 788 32 b 830 39 830 39 830 34 b 766 170 824 44 764 121 z "},"":{"ha":585,"x_min":0,"x_max":0,"o":"m 448 492 b 547 591 504 491 547 533 b 446 681 548 642 504 681 b 338 584 382 681 336 640 b 448 492 339 537 392 494 z m 638 -18 b 622 -66 634 -32 627 -49 b 401 -240 591 -191 530 -250 b 313 -62 303 -233 309 -118 b 418 73 319 28 329 73 b 513 73 432 73 496 73 b 528 96 529 73 528 79 b 515 147 528 109 519 123 b 488 304 507 193 499 253 b 471 409 475 358 471 403 b 407 410 442 410 438 410 b 401 270 407 382 401 322 b 360 157 400 217 392 157 b 199 125 294 157 274 155 b 95 42 156 107 123 77 b 79 -154 58 -17 53 -104 b 264 -287 123 -235 170 -265 b 516 -296 369 -312 409 -309 b 715 -221 609 -284 636 -273 b 783 -167 741 -203 765 -181 b 638 -18 732 -115 686 -68 z "},"":{"ha":897,"x_min":0,"x_max":0,"o":"m 453 1062 l 580 1039 l 632 1027 l 541 1091 l 451 1162 l 400 1195 l 332 1251 l 319 1214 l 303 1185 l 277 1130 l 262 1090 l 360 1073 z m 914 6 b 809 144 884 45 828 102 b 560 758 756 263 636 564 b 500 906 535 823 513 876 b 450 1012 486 937 469 982 b 163 319 443 986 249 533 b 83 135 132 251 114 191 b 7 31 63 99 35 65 b -21 6 4 28 -9 13 b 184 6 22 6 143 6 b 147 83 146 31 140 60 b 219 260 165 138 198 205 l 508 258 b 548 158 529 194 532 214 b 551 108 549 153 547 129 b 500 6 558 70 527 33 b 914 6 623 6 793 6 z m 240 320 b 370 653 279 427 332 546 b 482 319 374 652 436 429 z "},"":{"ha":897,"x_min":0,"x_max":0,"o":"m 441 1062 l 534 1073 l 632 1090 l 617 1130 l 591 1185 l 575 1214 l 562 1251 l 493 1195 l 443 1162 l 353 1091 l 262 1027 l 314 1039 z m 914 6 b 809 144 884 45 828 102 b 560 758 756 263 636 564 b 500 906 535 823 513 876 b 450 1012 486 937 469 982 b 163 319 442 986 249 533 b 83 135 132 251 114 191 b 7 31 63 99 35 65 b -21 6 4 28 -9 13 b 184 6 22 6 143 6 b 147 83 146 31 140 60 b 219 260 165 138 199 205 l 508 258 b 548 158 529 194 532 214 b 551 108 549 153 547 129 b 500 6 558 70 527 33 b 914 6 623 6 793 6 z m 240 320 b 370 653 279 427 332 546 b 482 319 374 652 436 429 z "},"":{"ha":897,"x_min":0,"x_max":0,"o":"m 400 1061 l 447 1085 l 482 1074 l 570 1039 l 610 1016 l 649 1000 l 579 1092 l 513 1171 l 484 1202 l 447 1247 l 414 1199 l 376 1159 l 272 1034 l 245 1007 l 245 1001 l 332 1043 z m 914 6 b 809 144 884 45 828 102 b 560 758 756 263 636 564 b 500 906 535 823 513 876 b 450 1012 486 937 469 982 b 163 319 443 986 249 533 b 83 135 132 251 114 191 b 7 31 63 99 35 65 b -21 6 4 28 -9 13 b 184 6 22 6 143 6 b 147 83 146 31 140 60 b 219 260 165 138 199 205 l 508 258 b 548 158 529 194 532 214 b 551 108 549 153 547 129 b 500 6 558 70 527 33 b 914 6 623 6 793 6 z m 240 320 b 370 653 279 427 332 546 b 482 319 374 652 436 429 z "},"":{"ha":897,"x_min":0,"x_max":0,"o":"m 241 1042 b 268 1069 248 1052 257 1063 b 320 1083 284 1077 298 1083 b 411 1060 352 1083 385 1069 b 484 1044 434 1053 461 1051 b 546 1030 505 1038 523 1030 b 600 1035 567 1030 586 1030 b 646 1077 620 1044 636 1061 b 663 1129 656 1092 660 1110 b 667 1215 668 1157 669 1187 b 648 1178 664 1200 657 1187 b 619 1157 641 1170 629 1161 b 565 1151 603 1150 586 1151 b 522 1159 547 1151 537 1155 b 472 1169 507 1162 486 1164 b 423 1191 455 1175 440 1185 b 344 1201 399 1198 372 1201 b 255 1169 305 1201 273 1189 b 233 1115 241 1155 239 1136 b 226 1013 225 1084 225 1047 b 241 1042 229 1026 234 1033 z m 914 6 b 809 144 884 45 828 102 b 560 758 756 263 636 564 b 500 906 535 823 513 876 b 450 1012 486 937 469 982 b 163 319 442 986 249 533 b 83 135 132 251 114 191 b 7 31 63 99 35 65 b -21 6 4 28 -9 13 b 184 6 22 6 143 6 b 147 83 146 31 140 60 b 219 260 165 138 198 205 l 508 258 b 548 158 529 194 532 214 b 551 108 549 153 547 129 b 500 6 558 70 527 33 b 914 6 623 6 793 6 z m 240 320 b 370 653 279 427 332 546 b 482 319 374 652 436 429 z "},"":{"ha":897,"x_min":0,"x_max":0,"o":"m 588 1029 b 699 1134 657 1029 701 1073 b 586 1232 697 1184 646 1231 b 484 1126 525 1234 485 1188 b 588 1029 484 1070 525 1029 z m 299 1029 b 409 1134 368 1029 411 1073 b 296 1232 408 1184 357 1231 b 195 1126 235 1234 195 1188 b 299 1029 194 1070 235 1029 z m 914 6 b 809 144 884 45 828 102 b 560 758 756 263 636 564 b 500 906 535 823 513 876 b 450 1012 486 937 469 982 b 308 674 446 997 378 842 b 205 412 271 586 238 491 b 163 319 190 376 175 348 b 83 135 132 251 114 191 b 7 31 63 99 35 65 b -21 6 4 28 -9 13 b 184 6 22 6 143 6 b 147 83 146 31 140 60 b 219 260 165 138 199 205 l 508 258 b 548 158 529 194 532 214 b 551 108 549 153 547 129 b 500 6 558 70 527 33 b 914 6 623 6 793 6 z m 240 320 b 277 422 252 353 263 387 b 322 527 291 456 308 493 b 370 653 339 570 356 612 b 482 319 374 652 436 429 z "},"":{"ha":897,"x_min":0,"x_max":0,"o":"m 447 1030 b 538 1068 489 1030 516 1039 b 570 1152 553 1088 570 1123 b 563 1205 570 1170 568 1191 b 447 1276 547 1252 505 1276 b 396 1265 429 1276 411 1270 b 330 1194 363 1252 341 1228 b 324 1152 326 1181 324 1167 b 348 1073 324 1122 332 1093 b 447 1030 370 1045 405 1030 z m 392 1152 b 392 1166 392 1157 392 1161 b 395 1192 393 1181 392 1180 b 417 1232 398 1206 410 1226 b 447 1243 426 1239 436 1243 b 474 1234 457 1243 466 1240 b 493 1215 479 1231 490 1221 b 504 1179 501 1204 502 1199 b 504 1152 505 1172 504 1160 b 505 1126 504 1144 506 1133 b 497 1100 503 1113 502 1109 b 479 1076 494 1093 484 1081 b 447 1065 470 1067 459 1065 b 412 1080 431 1065 423 1070 b 401 1092 410 1082 402 1090 b 392 1128 395 1103 394 1111 b 392 1152 391 1134 392 1146 z m 914 6 b 809 144 884 45 828 102 b 560 758 756 263 636 564 b 500 906 535 823 513 876 b 450 1012 486 937 469 982 b 163 319 442 986 249 533 b 83 135 132 251 114 191 b 7 31 63 99 35 65 b -21 6 4 28 -9 13 b 184 6 22 6 143 6 b 147 83 146 31 140 60 b 219 260 165 138 199 205 l 508 258 b 548 158 529 194 532 214 b 551 108 549 153 547 129 b 500 6 558 70 527 33 b 914 6 623 6 793 6 z m 240 320 b 370 653 279 427 332 546 b 482 319 374 652 436 429 z "},"":{"ha":1182,"x_min":0,"x_max":0,"o":"m 847 95 b 816 144 834 112 823 129 b 609 653 771 243 681 468 b 734 652 662 653 714 653 b 996 616 847 649 887 661 b 1021 605 1002 613 1021 599 b 1023 738 1024 642 1023 706 b 584 715 899 706 727 715 b 567 758 578 730 573 744 b 507 906 542 823 520 875 b 506 907 507 906 506 906 b 875 895 607 904 814 906 b 1087 836 946 883 1015 857 b 1065 969 1079 881 1072 930 b 882 969 1003 969 942 968 b 664 969 822 970 724 968 b 479 970 650 969 514 969 b 479 970 479 970 479 970 l 478 970 b 472 970 475 970 473 970 l 472 969 l 440 969 b 170 319 390 846 242 498 b 90 134 139 250 121 190 b 14 31 70 99 42 64 b -14 5 11 28 -3 13 b 191 5 29 5 150 5 b 154 82 153 30 147 60 b 226 259 172 138 205 205 l 515 257 b 554 157 536 194 539 214 b 558 107 556 153 554 128 b 507 5 565 69 534 32 b 921 5 630 5 800 5 b 921 6 921 6 921 6 b 1054 5 951 7 972 6 b 1115 45 1103 5 1102 1 b 1168 189 1129 94 1150 141 b 1177 224 1171 197 1172 206 b 847 95 1023 75 1007 87 z m 247 320 b 377 652 286 426 339 546 b 489 319 381 652 443 429 z "},"":{"ha":924,"x_min":0,"x_max":0,"o":"m 535 -72 b 473 -58 518 -64 497 -60 l 496 -27 l 505 -7 b 516 -7 509 -7 512 -7 b 912 127 611 -9 804 35 b 874 218 907 143 887 191 b 828 316 853 261 849 277 b 795 387 818 337 801 376 b 780 382 789 385 780 382 b 699 170 778 324 724 223 b 528 70 646 83 591 71 b 336 220 444 69 372 107 b 348 808 280 403 276 633 b 381 857 356 828 368 841 b 515 920 416 898 457 922 b 704 776 605 918 677 857 b 744 690 714 745 732 734 b 884 862 803 752 828 803 b 759 933 830 895 811 909 b 513 982 687 967 600 984 b 284 925 428 981 364 967 b 149 825 236 899 190 866 b 187 106 -34 641 -8 255 b 459 -6 293 25 382 0 l 428 -49 l 405 -88 l 371 -132 l 352 -159 l 355 -161 b 414 -168 369 -159 393 -160 b 451 -215 434 -175 451 -190 b 424 -286 451 -240 442 -265 b 362 -332 409 -305 388 -320 b 472 -310 403 -330 441 -322 b 539 -273 498 -300 521 -289 b 596 -184 572 -244 595 -224 b 586 -112 597 -164 595 -127 b 535 -72 577 -95 556 -81 z "},"":{"ha":896,"x_min":0,"x_max":0,"o":"m 456 1062 l 582 1039 l 634 1027 l 544 1091 l 454 1162 l 403 1195 l 334 1251 l 322 1214 l 306 1185 l 280 1130 l 265 1090 l 362 1073 z m 356 97 b 349 304 356 160 349 242 b 356 527 349 385 356 446 b 356 659 356 571 356 615 b 452 659 398 659 416 662 b 710 622 565 649 601 668 b 735 611 715 620 734 605 b 736 744 737 648 736 712 b 360 719 576 703 517 731 b 356 784 360 743 356 758 b 360 847 356 801 360 829 b 360 915 360 870 360 893 b 588 902 438 909 518 915 b 800 843 659 889 728 864 b 778 969 792 887 785 931 b 596 970 716 969 656 969 b 408 969 535 971 468 968 b 226 969 347 971 287 969 b 37 969 168 969 107 969 b 103 722 120 895 96 804 b 105 634 105 693 105 663 b 100 181 103 485 98 329 b 54 60 101 131 84 94 b 8 6 41 44 30 31 b 85 6 40 6 65 6 b 259 6 145 6 199 7 b 767 6 433 6 593 8 b 828 45 816 5 815 2 b 881 189 842 94 863 141 b 891 225 884 197 886 206 b 356 97 725 64 549 91 z "},"":{"ha":896,"x_min":0,"x_max":0,"o":"m 443 1062 l 537 1073 l 634 1090 l 619 1130 l 593 1185 l 577 1214 l 565 1251 l 496 1195 l 445 1162 l 355 1091 l 265 1027 l 317 1039 z m 356 97 b 349 304 356 160 349 242 b 356 527 349 385 356 446 b 356 659 356 571 356 615 b 452 659 398 659 416 662 b 710 622 565 649 601 668 b 735 611 715 620 734 605 b 736 744 737 648 736 712 b 360 719 576 703 517 731 b 356 784 360 743 356 758 b 360 847 356 801 360 829 b 360 915 360 870 360 893 b 588 902 438 909 518 915 b 800 843 659 889 728 864 b 778 969 792 887 785 931 b 596 970 716 969 656 969 b 408 969 535 971 468 968 b 226 969 347 971 287 969 b 37 969 168 969 107 969 b 103 722 120 895 96 804 b 105 634 105 693 105 663 b 100 181 103 485 98 329 b 54 60 101 131 84 94 b 8 6 41 44 30 31 b 85 6 40 6 65 6 b 259 6 145 6 199 7 b 767 6 433 6 593 8 b 828 45 816 5 815 2 b 881 189 842 94 863 141 b 891 225 884 197 886 206 b 356 97 725 64 549 91 z "},"":{"ha":896,"x_min":0,"x_max":0,"o":"m 402 1061 l 450 1085 l 485 1074 l 573 1039 l 613 1016 l 651 1000 l 582 1092 l 516 1171 l 486 1202 l 449 1247 l 416 1199 l 379 1159 l 275 1034 l 248 1007 l 248 1001 l 334 1043 z m 356 97 b 349 304 356 160 349 242 b 356 527 349 385 356 446 b 356 659 356 571 356 615 b 452 659 398 659 416 662 b 710 622 565 649 601 668 b 735 611 715 620 734 605 b 736 744 737 648 736 712 b 360 719 576 703 517 731 b 356 784 360 743 356 758 b 360 847 356 801 360 829 b 360 915 360 870 360 893 b 588 902 438 909 518 915 b 800 843 659 889 728 864 b 778 969 792 887 785 931 b 596 970 716 969 656 969 b 408 969 535 971 468 968 b 226 969 347 971 287 969 b 37 969 168 969 107 969 b 103 722 120 895 96 804 b 105 634 105 693 105 663 b 100 181 103 485 98 329 b 54 60 101 131 84 94 b 8 6 41 44 30 31 b 85 6 40 6 65 6 b 259 6 145 6 199 7 b 767 6 433 6 593 8 b 828 45 816 5 815 2 b 881 189 842 94 863 141 b 891 225 884 197 886 206 b 356 97 725 64 549 91 z "},"":{"ha":896,"x_min":0,"x_max":0,"o":"m 591 1029 b 701 1134 660 1029 703 1073 b 588 1232 700 1184 649 1231 b 487 1126 528 1234 488 1188 b 591 1029 487 1070 527 1029 z m 301 1029 b 412 1134 370 1029 414 1073 b 298 1232 410 1184 359 1231 b 197 1126 238 1234 198 1188 b 301 1029 197 1070 238 1029 z m 356 97 b 349 304 356 160 349 242 b 356 527 349 385 356 446 b 356 659 356 571 356 615 b 452 659 398 659 416 662 b 710 622 565 649 601 668 b 735 611 715 620 734 605 b 736 744 737 648 736 712 b 360 719 576 703 517 731 b 356 784 360 743 356 758 b 360 847 356 801 360 829 b 360 915 360 870 360 893 b 588 902 438 909 518 915 b 800 843 659 889 728 864 b 778 969 792 887 785 931 b 596 970 716 969 656 969 b 408 969 535 971 468 968 b 226 969 347 971 287 969 b 37 969 168 969 107 969 b 103 722 120 895 96 804 b 105 634 105 693 105 663 b 100 181 103 485 98 329 b 54 60 101 131 84 94 b 8 6 41 44 30 31 b 85 6 40 6 65 6 b 259 6 145 6 199 7 b 767 6 433 6 593 8 b 828 45 816 5 815 2 b 881 189 842 94 863 141 b 891 225 884 197 886 206 b 356 97 725 64 549 91 z "},"":{"ha":425,"x_min":0,"x_max":0,"o":"m 219 1062 l 346 1039 l 397 1027 l 307 1091 l 217 1162 l 166 1195 l 97 1251 l 85 1214 l 69 1185 l 43 1130 l 28 1090 l 126 1073 z m 363 61 b 331 186 333 96 330 136 b 331 588 333 319 333 453 l 331 700 b 332 722 331 707 332 715 b 337 853 336 763 330 810 b 355 916 340 876 344 894 b 398 969 365 934 379 952 l 331 969 l 331 970 b 205 969 289 970 247 969 b 91 970 163 969 133 970 l 91 969 l 18 969 b 52 930 32 957 43 943 b 83 830 73 899 79 863 b 90 722 87 793 87 758 b 91 700 90 715 91 707 l 94 575 b 88 319 93 488 89 404 b 87 176 87 271 86 224 b 66 61 88 126 96 96 b 18 6 53 46 40 31 b 77 6 50 6 57 6 b 139 7 101 6 117 6 b 182 7 155 7 166 7 b 205 8 192 7 195 7 b 234 7 214 7 224 7 b 283 7 250 7 267 7 b 339 6 305 6 315 6 b 410 6 359 6 379 6 b 363 61 389 31 376 46 z "},"":{"ha":425,"x_min":0,"x_max":0,"o":"m 197 1062 l 290 1073 l 388 1090 l 373 1130 l 347 1185 l 331 1214 l 318 1251 l 249 1195 l 199 1162 l 109 1091 l 18 1027 l 70 1039 z m 363 61 b 331 186 333 96 330 136 b 331 588 333 319 333 453 l 331 700 b 332 722 331 707 332 715 b 337 853 336 763 330 810 b 355 916 340 876 344 894 b 398 969 365 934 379 952 l 331 969 l 331 970 b 205 969 289 970 247 969 b 91 970 163 969 133 970 l 91 969 l 18 969 b 52 930 32 957 43 943 b 83 830 73 899 79 863 b 90 722 87 793 87 758 b 91 700 90 715 91 707 l 94 575 b 88 319 93 488 89 404 b 87 176 87 271 86 224 b 66 61 88 126 96 96 b 18 6 53 46 40 31 b 77 6 50 6 57 6 b 139 7 101 6 117 6 b 182 7 155 7 166 7 b 205 7 192 7 195 7 b 234 7 214 7 224 7 b 283 7 250 7 267 7 b 339 6 305 6 315 6 b 410 6 359 6 379 6 b 363 61 389 31 376 46 z "},"":{"ha":425,"x_min":0,"x_max":0,"o":"m 167 1061 l 214 1085 l 250 1074 l 338 1039 l 378 1016 l 416 1000 l 346 1092 l 281 1171 l 251 1202 l 214 1247 l 181 1199 l 143 1159 l 40 1034 l 12 1007 l 12 1001 l 99 1043 z m 331 186 b 331 588 333 319 333 453 l 331 700 b 333 722 331 707 332 715 b 337 853 336 763 330 810 b 356 916 341 876 344 894 b 398 969 365 934 379 952 l 331 969 l 331 970 b 205 969 289 970 247 969 b 91 970 163 969 133 970 l 91 969 l 18 969 b 53 930 32 957 44 943 b 83 830 73 899 79 863 b 90 722 87 793 87 758 b 91 700 91 715 91 707 l 94 575 b 88 319 93 488 90 404 b 87 176 87 271 86 224 b 66 61 88 126 96 96 b 18 6 53 46 40 31 b 77 6 50 6 57 6 b 139 7 101 6 117 6 b 182 7 156 7 166 7 b 205 7 192 7 196 7 b 234 7 215 7 224 7 b 283 7 250 7 267 7 b 339 6 305 6 316 6 b 410 6 359 6 379 6 b 363 61 389 31 376 46 b 331 186 333 96 330 136 z "},"":{"ha":425,"x_min":0,"x_max":0,"o":"m 353 1232 b 252 1126 293 1234 253 1188 b 356 1029 252 1070 293 1029 b 467 1134 425 1029 468 1073 b 353 1232 465 1184 414 1231 z m 177 1134 b 64 1232 175 1184 125 1231 b -37 1126 3 1234 -37 1188 b 66 1029 -38 1070 3 1029 b 177 1134 135 1029 179 1073 z m 331 186 b 331 588 333 319 334 453 l 331 700 b 333 722 332 707 332 715 b 337 853 336 763 330 810 b 356 916 341 876 344 894 b 398 969 366 934 379 952 l 331 969 l 331 970 b 205 969 289 970 248 969 b 92 970 163 969 133 970 l 92 969 l 19 969 b 53 930 33 957 44 943 b 83 830 73 899 80 863 b 90 722 87 793 87 758 b 92 700 91 715 91 707 l 95 575 b 88 319 93 488 90 404 b 87 176 87 271 87 224 b 66 61 88 126 96 96 b 19 6 53 46 40 31 b 78 6 50 6 58 6 b 139 7 101 6 117 6 b 182 7 156 7 166 7 b 205 7 192 7 196 7 b 234 7 215 7 225 7 b 284 7 251 7 267 7 b 339 6 306 6 316 6 b 411 6 359 6 379 6 b 363 61 389 31 376 46 b 331 186 333 96 330 136 z "},"":{"ha":1022,"x_min":0,"x_max":0,"o":"m 850 855 b 510 963 751 935 633 957 b 133 972 385 969 258 969 b 70 979 112 973 91 976 b 65 968 68 975 67 972 b 96 938 75 958 88 950 b 139 853 112 910 139 882 b 141 528 141 752 141 640 l 50 527 l 7 529 l 7 483 l 81 481 l 140 482 b 140 210 140 388 140 295 b 81 10 140 136 136 67 b 82 7 80 10 82 7 b 243 7 138 9 188 6 b 409 7 293 8 359 5 b 730 58 506 7 626 -1 b 997 478 886 146 981 263 b 850 855 1004 609 950 774 z m 676 180 b 402 80 624 80 506 59 b 402 481 402 203 402 342 l 470 481 l 526 482 l 526 529 l 475 531 l 402 530 b 402 897 402 658 402 784 b 693 784 507 943 655 886 b 723 638 711 738 720 687 b 676 180 736 465 735 293 z "},"":{"ha":888,"x_min":0,"x_max":0,"o":"m 236 1030 b 263 1057 243 1041 252 1052 b 316 1072 279 1065 294 1072 b 407 1049 348 1072 380 1058 b 479 1033 430 1041 456 1040 b 542 1019 500 1027 518 1019 b 596 1024 563 1019 581 1018 b 642 1066 616 1033 632 1050 b 659 1118 651 1081 655 1099 b 663 1204 664 1146 664 1176 b 643 1167 659 1188 653 1176 b 615 1146 636 1159 624 1150 b 560 1140 598 1139 582 1140 b 517 1148 543 1140 533 1144 b 468 1158 502 1151 482 1153 b 419 1180 451 1164 436 1174 b 340 1190 395 1187 368 1190 b 250 1158 301 1190 268 1178 b 229 1104 237 1144 234 1125 b 222 1002 221 1072 220 1036 b 236 1030 225 1015 230 1022 z m 789 451 b 791 761 787 555 789 658 l 792 761 b 792 773 792 765 792 769 b 792 784 792 777 792 780 b 874 958 794 845 831 902 b 750 958 843 958 788 959 b 647 958 718 959 677 958 b 704 798 686 906 701 854 b 705 774 704 790 704 782 b 704 485 704 693 706 499 b 646 556 701 487 679 515 b 482 775 597 619 546 694 b 420 841 468 792 433 825 b 374 898 404 862 388 881 b 346 958 361 914 356 938 b 11 958 241 958 120 958 b 98 813 67 924 99 879 b 97 148 98 598 98 363 b 36 17 96 97 84 48 b 16 -5 32 14 19 3 b 282 -5 103 -5 199 -5 b 187 177 203 33 188 103 b 188 666 186 336 187 507 b 190 723 188 681 189 695 b 271 630 223 686 249 659 b 283 614 275 625 279 619 b 391 465 318 568 356 511 b 566 250 451 388 505 328 b 765 -7 631 167 701 77 b 804 -43 773 -18 784 -26 b 804 27 804 -10 804 9 b 789 451 798 169 790 310 z "},"":{"ha":1000,"x_min":0,"x_max":0,"o":"m 506 1060 l 633 1038 l 684 1025 l 594 1090 l 504 1160 l 453 1193 l 384 1249 l 372 1212 l 356 1183 l 330 1128 l 315 1088 l 413 1072 z m 902 771 b 638 965 844 870 750 941 b 500 980 586 977 549 982 b 361 965 451 982 413 977 b 97 771 249 941 155 870 b 175 108 -21 569 11 274 b 398 -2 241 42 308 22 b 484 -8 422 -8 460 -6 b 500 -8 489 -8 495 -8 b 515 -8 505 -8 510 -8 b 601 -2 540 -6 578 -8 b 824 108 691 22 759 42 b 902 771 988 274 1020 569 z m 660 174 b 549 51 643 114 618 62 b 500 46 533 48 516 43 b 450 51 483 43 467 48 b 339 174 381 62 356 114 b 309 487 311 271 311 369 b 318 650 311 528 309 590 b 360 826 326 709 340 770 b 499 922 382 888 433 923 l 500 922 b 639 826 566 923 617 888 b 681 650 659 770 673 709 b 690 487 690 590 688 528 b 660 174 688 369 688 271 z "},"":{"ha":1000,"x_min":0,"x_max":0,"o":"m 493 1060 l 587 1072 l 684 1088 l 669 1128 l 643 1183 l 627 1212 l 615 1249 l 546 1193 l 495 1160 l 406 1090 l 315 1025 l 367 1038 z m 902 771 b 638 965 844 870 750 941 b 500 980 586 977 549 982 b 361 965 451 982 413 977 b 97 771 249 941 155 870 b 175 108 -21 569 11 274 b 398 -2 241 42 308 22 b 484 -8 422 -8 460 -6 b 500 -8 489 -8 495 -8 b 515 -8 505 -8 510 -8 b 601 -2 540 -6 578 -8 b 824 108 691 22 759 42 b 902 771 988 274 1020 569 z m 660 174 b 549 51 643 114 618 62 b 500 46 533 48 516 43 b 450 51 483 43 467 48 b 339 174 381 62 356 114 b 309 487 311 271 311 369 b 318 650 311 528 309 590 b 360 826 326 709 340 770 b 499 922 382 888 433 923 l 500 922 b 639 826 566 923 617 888 b 681 650 659 770 673 709 b 690 487 690 590 688 528 b 660 174 688 369 688 271 z "},"":{"ha":1000,"x_min":0,"x_max":0,"o":"m 453 1060 l 500 1084 l 535 1072 l 623 1037 l 663 1014 l 701 998 l 632 1091 l 566 1170 l 536 1200 l 500 1246 l 466 1198 l 429 1158 l 325 1033 l 298 1005 l 298 999 l 384 1041 z m 902 771 b 638 965 844 870 750 941 b 500 980 586 977 549 982 b 361 965 451 982 413 977 b 97 771 249 941 155 870 b 175 108 -21 569 11 274 b 398 -2 241 42 308 22 b 484 -8 422 -8 460 -6 b 500 -8 489 -8 495 -8 b 515 -8 505 -8 510 -8 b 601 -2 540 -6 578 -8 b 824 108 691 22 759 42 b 902 771 988 274 1020 569 z m 660 174 b 549 51 643 114 618 62 b 500 46 533 48 516 43 b 450 51 483 43 467 48 b 339 174 381 62 356 114 b 309 487 311 271 311 369 b 318 650 311 528 309 590 b 360 826 326 709 340 770 b 499 922 382 888 433 923 l 500 922 b 639 826 566 923 617 888 b 681 650 659 770 673 709 b 690 487 690 590 688 528 b 660 174 688 369 688 271 z "},"":{"ha":1000,"x_min":0,"x_max":0,"o":"m 293 1040 b 321 1067 301 1050 309 1062 b 373 1081 337 1075 351 1081 b 464 1059 405 1081 438 1067 b 537 1043 487 1051 514 1049 b 599 1029 557 1036 575 1029 b 653 1034 620 1029 638 1028 b 699 1076 673 1042 689 1059 b 716 1128 709 1091 713 1109 b 720 1214 721 1155 721 1185 b 701 1176 717 1198 710 1186 b 672 1156 693 1169 682 1160 b 617 1149 655 1149 639 1149 b 575 1157 600 1149 590 1154 b 525 1168 560 1160 539 1163 b 476 1189 508 1174 493 1184 b 397 1199 452 1197 425 1199 b 308 1168 358 1199 326 1187 b 286 1114 294 1153 291 1134 b 279 1012 278 1082 278 1046 b 293 1040 282 1024 287 1031 z m 902 771 b 638 965 844 870 750 941 b 500 980 586 977 549 982 b 361 965 451 982 413 977 b 97 771 249 941 155 870 b 175 108 -21 569 11 274 b 398 -2 241 42 308 22 b 484 -8 422 -8 460 -6 b 500 -8 489 -8 495 -8 b 515 -8 505 -8 510 -8 b 601 -2 540 -6 578 -8 b 824 108 691 22 759 42 b 902 771 988 274 1020 569 z m 660 174 b 549 51 643 114 618 62 b 500 46 533 48 516 43 b 450 51 483 43 467 48 b 339 174 381 62 356 114 b 309 487 311 271 311 369 b 318 650 311 528 309 590 b 360 826 326 709 340 770 b 499 922 382 888 433 923 l 500 922 b 639 826 566 923 617 888 b 681 650 659 770 673 709 b 690 487 690 590 688 528 b 660 174 688 369 688 271 z "},"":{"ha":1000,"x_min":0,"x_max":0,"o":"m 641 1027 b 752 1132 710 1027 753 1071 b 638 1231 750 1182 699 1229 b 537 1124 578 1233 538 1187 b 641 1027 537 1069 578 1028 z m 351 1027 b 462 1132 420 1027 464 1071 b 349 1231 460 1182 410 1229 b 248 1124 288 1233 248 1187 b 351 1027 247 1069 288 1028 z m 902 771 b 638 965 844 870 750 941 b 500 980 586 977 549 982 b 361 965 451 982 413 977 b 97 771 249 941 155 870 b 175 108 -21 569 11 274 b 398 -2 241 42 308 22 b 484 -8 422 -8 460 -6 b 500 -8 489 -8 495 -8 b 515 -8 505 -8 510 -8 b 601 -2 540 -6 578 -8 b 824 108 691 22 759 42 b 902 771 988 274 1020 569 z m 660 174 b 549 51 643 114 618 62 b 500 46 533 48 516 43 b 450 51 483 43 467 48 b 339 174 381 62 356 114 b 309 487 311 271 311 369 b 318 650 311 528 309 590 b 360 826 326 709 340 770 b 499 922 382 888 433 923 l 500 922 b 639 826 566 923 617 888 b 681 650 659 770 673 709 b 690 487 690 590 688 528 b 660 174 688 369 688 271 z "},"":{"ha":1000,"x_min":0,"x_max":0,"o":"m 902 772 b 684 953 853 857 776 921 l 726 1081 l 670 1081 l 632 968 b 500 981 584 978 547 983 b 361 966 451 983 413 978 b 97 772 249 942 155 871 b 175 110 -21 571 11 275 b 317 23 219 64 265 41 l 263 -140 l 324 -140 l 372 6 b 398 -1 381 4 389 2 b 484 -7 422 -7 460 -5 b 500 -7 489 -7 495 -7 b 515 -7 505 -7 510 -7 b 601 -1 540 -5 578 -7 b 824 110 691 23 759 43 b 902 772 988 275 1020 571 z m 339 175 b 309 488 311 272 311 370 b 318 651 311 529 309 591 b 360 827 326 711 340 771 b 499 923 382 889 433 925 l 500 923 b 604 884 542 924 578 910 l 354 133 b 339 175 348 146 343 161 z m 660 175 b 549 52 643 115 618 63 b 500 47 533 49 516 44 b 450 52 483 44 467 49 b 395 75 427 56 410 64 l 641 822 b 681 651 660 767 673 709 b 690 488 690 591 688 529 b 660 175 688 370 688 272 z "},"":{"ha":918,"x_min":0,"x_max":0,"o":"m 466 1064 l 593 1042 l 644 1030 l 554 1094 l 464 1164 l 413 1197 l 344 1254 l 332 1216 l 316 1188 l 290 1133 l 275 1092 l 373 1076 z m 644 972 b 739 790 723 934 738 864 b 739 322 740 645 739 468 l 739 322 b 739 314 739 319 739 316 b 712 178 739 268 731 219 b 423 96 657 55 516 51 b 335 246 372 126 335 161 b 330 375 335 290 333 332 b 329 590 330 439 330 526 l 329 703 b 330 725 329 710 329 717 b 334 856 333 766 327 813 b 353 919 338 878 342 897 b 395 972 363 937 377 955 l 329 972 l 329 973 b 196 972 287 973 239 972 b 83 973 154 972 125 973 l 83 972 l 10 972 b 44 932 24 959 35 946 b 74 833 64 901 71 866 b 81 725 78 796 78 760 b 83 703 82 717 82 710 l 86 577 b 81 355 85 517 83 414 l 81 355 b 101 183 84 303 85 233 b 296 12 126 104 215 32 b 590 5 413 -17 496 -9 b 775 114 673 17 727 49 b 828 322 817 171 826 252 l 828 322 b 828 354 828 332 828 343 b 828 359 828 355 828 357 l 828 359 b 829 819 828 509 828 678 b 890 950 830 870 842 919 b 909 972 894 953 907 964 l 644 972 z "},"":{"ha":918,"x_min":0,"x_max":0,"o":"m 453 1064 l 547 1076 l 644 1092 l 629 1133 l 603 1188 l 587 1216 l 575 1254 l 506 1197 l 455 1164 l 366 1094 l 275 1030 l 327 1042 z m 644 972 b 739 790 723 934 738 864 b 739 322 740 645 739 468 l 739 322 b 739 314 739 319 739 316 b 712 178 739 268 731 219 b 423 96 657 55 516 51 b 335 246 372 126 335 161 b 330 375 335 290 333 332 b 329 590 330 439 330 526 l 329 703 b 330 725 329 710 329 717 b 334 856 333 766 327 813 b 353 919 338 878 342 897 b 395 972 363 937 377 955 l 329 972 l 329 973 b 196 972 287 973 239 972 b 83 973 154 972 125 973 l 83 972 l 10 972 b 44 932 24 959 35 946 b 74 833 64 901 71 866 b 81 725 78 796 78 760 b 83 703 82 717 82 710 l 86 577 b 81 355 85 517 83 414 l 81 355 b 101 183 84 303 85 233 b 296 12 126 104 215 32 b 590 5 413 -17 496 -9 b 775 114 673 17 727 49 b 828 322 817 171 826 252 l 828 322 b 828 354 828 332 828 343 b 828 359 828 355 828 357 l 828 359 b 829 819 828 509 828 678 b 890 950 830 870 842 919 b 909 972 894 953 907 964 l 644 972 z "},"":{"ha":918,"x_min":0,"x_max":0,"o":"m 413 1064 l 460 1088 l 495 1076 l 583 1041 l 623 1019 l 661 1002 l 592 1095 l 526 1174 l 496 1204 l 460 1250 l 426 1202 l 389 1162 l 285 1037 l 258 1009 l 258 1003 l 345 1045 z m 644 972 b 739 790 723 934 738 864 b 739 322 740 645 739 468 l 739 322 b 739 314 739 319 739 316 b 712 178 739 268 731 219 b 423 96 657 55 516 51 b 335 246 372 126 335 161 b 330 375 335 290 333 332 b 329 590 330 439 330 526 l 329 703 b 330 725 329 710 329 717 b 334 856 333 766 327 813 b 353 919 338 878 342 897 b 395 972 363 937 377 955 l 329 972 l 329 973 b 196 972 287 973 239 972 b 83 973 154 972 125 973 l 83 972 l 10 972 b 44 932 24 959 35 946 b 74 833 64 901 71 866 b 81 725 78 796 78 760 b 83 703 82 717 82 710 l 86 577 b 81 355 85 517 83 414 l 81 355 b 101 183 84 303 85 233 b 296 12 126 104 215 32 b 590 5 413 -17 496 -9 b 775 114 673 17 727 49 b 828 322 817 171 826 252 l 828 322 b 828 354 828 332 828 343 b 828 359 828 356 828 357 l 828 359 b 829 819 828 509 828 678 b 890 950 830 870 842 919 b 909 972 894 953 907 964 l 644 972 z "},"":{"ha":918,"x_min":0,"x_max":0,"o":"m 601 1032 b 712 1136 670 1031 713 1075 b 598 1235 710 1186 659 1233 b 497 1128 538 1237 498 1191 b 601 1032 497 1073 538 1032 z m 312 1032 b 422 1136 380 1031 424 1075 b 309 1235 420 1186 370 1233 b 208 1128 248 1237 208 1191 b 312 1032 207 1073 248 1032 z m 644 972 b 739 790 723 934 738 864 b 739 322 740 645 739 468 l 739 322 b 739 314 739 319 739 316 b 712 178 739 268 731 219 b 423 96 657 55 516 51 b 335 246 372 126 335 161 b 330 375 335 290 333 332 b 329 590 330 439 330 526 l 329 703 b 330 725 329 710 329 717 b 334 856 333 766 327 813 b 353 919 338 878 342 897 b 395 972 363 937 377 955 l 329 972 l 329 973 b 196 972 287 973 239 972 b 83 973 154 972 125 973 l 83 972 l 10 972 b 44 932 24 959 35 946 b 74 833 64 901 71 866 b 81 725 78 796 78 760 b 83 703 82 717 82 710 l 86 577 b 81 355 85 517 83 414 l 81 355 b 101 183 84 303 85 233 b 296 12 126 104 215 32 b 590 5 413 -17 496 -9 b 775 114 673 17 727 49 b 828 322 817 171 826 252 l 828 322 b 828 354 828 332 828 343 b 828 359 828 356 828 357 l 828 359 b 829 819 828 509 828 678 b 890 950 830 870 842 919 b 909 972 894 953 907 964 l 644 972 z "},"":{"ha":988,"x_min":0,"x_max":0,"o":"m 489 1062 l 582 1073 l 680 1090 l 665 1130 l 639 1185 l 623 1214 l 610 1251 l 541 1195 l 491 1162 l 401 1091 l 310 1027 l 362 1039 z m 734 969 b 763 843 769 942 780 871 b 723 778 751 822 741 805 b 619 630 694 731 660 681 b 439 897 565 702 491 826 b 452 969 422 920 440 947 l -14 969 b -17 954 -15 964 -16 959 b 8 939 -9 949 -1 941 b 109 880 49 932 80 909 b 309 627 175 815 241 701 b 394 502 323 611 367 544 b 390 319 392 438 391 367 b 389 176 389 271 388 224 b 368 61 390 126 397 96 b 320 6 355 46 342 31 b 379 6 352 6 359 6 b 441 7 402 6 419 6 b 484 7 457 7 468 7 b 507 7 494 7 497 7 b 536 7 516 7 526 7 b 585 7 552 7 569 7 b 641 6 607 6 617 6 b 712 6 661 6 680 6 b 664 61 691 31 677 46 b 633 186 635 96 632 136 b 634 515 634 260 635 396 b 635 516 634 515 634 515 b 855 845 700 609 789 743 b 954 928 881 885 906 898 b 1006 969 961 932 994 957 b 734 969 925 965 814 974 z "},"":{"ha":853,"x_min":0,"x_max":0,"o":"m 812 631 b 661 729 775 681 722 719 b 539 743 619 736 582 743 b 333 743 497 743 402 743 b 333 763 333 749 333 756 b 334 882 333 805 334 854 b 336 970 335 891 336 970 l 317 970 b 332 970 322 970 327 970 l 332 969 l 263 969 b 278 969 271 969 267 969 b 241 969 266 969 253 969 b 206 969 229 969 218 969 b 93 970 164 969 134 970 l 93 969 l 20 969 b 54 929 34 956 45 943 b 84 830 74 898 81 863 b 91 721 88 792 88 757 b 93 700 92 714 92 707 l 96 574 b 89 317 94 488 91 402 b 88 176 88 269 88 223 b 67 61 89 126 97 95 b 19 5 54 46 41 30 b 79 5 51 5 59 5 b 140 6 102 5 118 6 b 183 7 157 6 167 7 b 206 7 193 7 197 7 b 235 7 216 7 225 7 b 284 6 252 7 268 6 b 340 5 307 6 317 5 b 412 5 360 5 380 5 b 364 61 390 30 377 46 b 332 185 334 95 331 135 b 333 287 333 219 333 253 b 529 290 416 287 437 290 b 788 361 640 290 736 305 b 812 631 848 428 864 559 z m 586 415 b 515 351 574 380 552 357 b 334 347 466 344 396 346 b 334 380 334 358 334 369 b 333 688 334 416 333 616 b 530 672 391 688 486 693 b 585 606 557 659 575 637 b 586 415 603 548 604 473 z "},"":{"ha":971,"x_min":0,"x_max":0,"o":"m 175 7 b 175 7 175 6 176 5 z m 805 585 b 727 619 785 596 754 612 b 637 635 701 627 668 631 b 713 652 661 642 696 645 b 822 805 773 679 828 746 b 712 946 816 871 767 925 b 671 959 704 949 679 958 b 534 971 627 965 582 971 b 414 971 491 972 457 971 b 401 971 410 971 405 971 b 342 971 399 971 364 971 l 342 971 b 313 971 334 971 324 971 b 86 726 180 971 76 858 b 86 723 86 725 86 724 b 87 705 87 717 87 711 b 87 569 87 660 87 615 b 83 176 85 440 82 302 b 56 61 84 126 86 96 b 10 7 43 46 31 32 l 53 7 b 53 7 53 7 53 7 b 53 7 53 7 53 7 b 179 7 101 7 167 7 b 201 7 188 7 192 7 b 219 7 207 7 213 7 b 325 7 254 7 288 7 b 342 7 331 7 336 7 l 342 319 b 340 439 341 359 340 399 b 341 928 339 468 341 806 b 401 928 363 928 399 928 b 461 931 420 929 441 931 b 573 871 508 931 551 917 b 555 707 598 820 591 750 b 405 642 516 661 470 644 b 404 642 403 642 407 642 l 404 596 b 406 597 406 596 403 597 b 428 597 413 597 416 597 b 679 359 565 591 666 534 b 642 178 683 296 669 235 b 425 64 600 92 533 55 b 414 66 419 65 420 65 l 410 7 b 415 8 414 8 411 8 b 546 10 462 8 502 7 b 881 164 678 20 797 54 b 946 319 915 208 942 262 b 805 585 955 433 899 532 z "},"":{"ha":807,"x_min":0,"x_max":0,"o":"m 358 761 l 485 739 l 537 727 l 446 791 l 356 862 l 306 895 l 237 957 l 224 920 l 208 891 l 182 836 l 167 796 l 265 779 z m 694 171 b 693 235 691 209 695 206 b 692 455 688 308 700 382 b 496 671 678 591 610 641 b 442 678 479 675 460 677 b 311 676 397 681 351 681 b 181 628 241 667 250 655 b 90 512 160 620 106 567 b 249 471 145 497 194 485 b 250 500 251 486 249 489 b 366 641 260 568 289 639 b 454 580 417 642 438 627 b 463 466 467 543 467 498 b 368 435 426 454 396 446 b 250 404 323 418 293 417 b 141 358 216 393 175 376 b 38 260 86 328 55 301 b 20 155 25 231 17 191 b 69 57 24 117 46 81 b 162 6 93 31 125 18 b 261 -8 192 -4 229 -8 b 477 89 326 -8 412 5 b 602 -8 490 42 548 -8 b 808 65 671 -8 747 -8 b 694 171 791 65 700 73 z m 465 159 b 395 87 465 150 443 108 b 271 143 332 67 292 89 b 344 377 243 216 249 330 b 462 420 379 392 416 402 b 465 323 462 380 465 358 b 462 282 465 311 462 294 b 460 202 462 253 460 232 b 465 159 460 197 465 165 z "},"":{"ha":807,"x_min":0,"x_max":0,"o":"m 469 761 l 562 779 l 660 796 l 645 836 l 619 891 l 603 920 l 591 957 l 522 901 l 471 862 l 381 791 l 291 727 l 342 739 z m 694 171 b 693 235 691 209 695 206 b 692 455 688 308 700 382 b 496 671 678 591 610 641 b 442 678 479 675 460 677 b 311 676 397 681 351 681 b 181 628 241 667 250 655 b 90 512 160 620 106 567 b 249 471 145 497 194 485 b 250 500 251 486 249 489 b 366 641 260 568 289 639 b 454 580 417 642 437 627 b 463 466 467 543 467 498 b 368 435 426 454 396 446 b 250 404 323 418 293 417 b 141 358 216 393 175 376 b 38 260 86 328 55 301 b 20 155 25 231 17 191 b 69 57 24 117 46 81 b 162 6 93 31 125 18 b 261 -8 192 -4 229 -8 b 477 89 326 -8 412 5 b 602 -8 490 42 548 -8 b 808 65 671 -8 747 -8 b 694 171 791 65 700 73 z m 465 159 b 395 87 465 150 443 108 b 271 143 332 67 292 89 b 344 377 243 216 249 330 b 462 420 379 392 416 402 b 465 323 462 380 465 358 b 462 282 465 311 462 294 b 460 202 462 253 460 232 b 465 159 460 197 465 165 z "},"":{"ha":807,"x_min":0,"x_max":0,"o":"m 367 769 l 414 792 l 449 781 l 537 752 l 577 729 l 616 713 l 546 800 l 480 879 l 450 909 l 414 954 l 381 906 l 343 867 l 239 748 l 212 720 l 212 714 l 299 750 z m 694 171 b 693 235 691 209 695 206 b 692 455 688 308 700 382 b 496 671 678 591 610 641 b 442 678 479 675 460 677 b 311 676 397 681 351 681 b 181 628 241 667 250 655 b 90 512 160 620 106 567 b 249 471 145 497 194 485 b 250 500 251 486 249 489 b 366 641 260 568 289 639 b 454 580 417 642 437 627 b 463 466 467 543 467 498 b 368 435 426 454 396 446 b 250 404 323 418 293 417 b 141 358 216 393 175 376 b 38 260 86 328 55 301 b 20 155 25 231 17 191 b 69 57 24 117 46 81 b 162 6 93 31 125 18 b 261 -8 192 -4 229 -8 b 477 89 326 -8 412 5 b 602 -8 490 42 548 -8 b 808 65 671 -8 747 -8 b 694 171 791 65 700 73 z m 465 159 b 395 87 465 150 443 108 b 271 143 332 67 292 89 b 344 377 243 216 249 330 b 462 420 379 392 416 402 b 465 323 462 380 465 358 b 462 282 465 311 462 294 b 460 202 462 253 460 232 b 465 159 460 197 465 165 z "},"":{"ha":807,"x_min":0,"x_max":0,"o":"m 209 748 b 236 775 216 758 225 769 b 289 789 252 783 266 789 b 379 766 321 789 353 775 b 452 750 403 759 429 757 b 515 736 473 744 491 736 b 568 741 536 736 554 736 b 615 783 589 750 604 767 b 632 835 624 798 628 816 b 636 921 637 863 637 893 b 616 884 632 906 625 893 b 587 863 609 877 597 867 b 533 857 571 856 554 857 b 490 865 516 857 506 861 b 441 875 475 868 455 870 b 391 897 424 881 409 891 b 313 907 367 905 341 907 b 223 876 274 907 241 895 b 195 821 209 861 201 842 b 195 719 187 790 193 753 b 209 748 197 732 203 739 z m 694 171 b 693 235 691 209 695 206 b 692 455 688 308 700 382 b 496 671 678 591 610 641 b 442 678 479 675 460 677 b 311 676 397 681 351 681 b 181 628 241 667 250 655 b 90 512 160 620 106 567 b 249 471 145 497 194 485 b 250 500 251 486 249 489 b 366 641 260 568 289 639 b 454 580 417 642 437 627 b 463 466 467 543 466 498 b 368 435 426 454 396 446 b 250 404 323 418 293 417 b 141 358 216 393 175 376 b 38 260 86 328 55 301 b 20 155 25 231 17 191 b 69 57 24 117 46 81 b 162 6 93 31 125 18 b 261 -8 192 -4 229 -8 b 477 89 326 -8 412 5 b 602 -8 490 42 548 -8 b 808 65 671 -8 747 -8 b 694 171 791 65 700 73 z m 465 159 b 395 87 465 150 443 108 b 271 143 332 67 292 89 b 344 377 243 216 249 330 b 462 420 379 392 416 402 b 465 323 462 380 465 358 b 462 282 465 311 462 294 b 460 202 462 253 460 232 b 465 159 460 197 465 165 z "},"":{"ha":807,"x_min":0,"x_max":0,"o":"m 552 736 b 661 839 620 736 662 779 b 550 936 659 888 609 934 b 451 831 490 937 451 893 b 552 736 450 777 490 737 z m 269 736 b 377 839 336 736 379 779 b 266 936 375 888 326 934 b 167 831 207 937 168 893 b 269 736 166 777 206 737 z m 694 171 b 693 235 691 209 695 206 b 692 455 688 308 700 382 b 496 671 678 591 610 641 b 442 678 479 675 460 677 b 311 676 397 681 351 681 b 181 628 241 667 250 655 b 90 512 160 620 106 567 b 249 471 145 497 194 485 b 250 500 251 486 249 489 b 366 641 260 568 289 639 b 454 580 417 642 437 627 b 463 466 467 543 467 498 b 368 435 426 454 396 446 b 250 404 323 418 293 417 b 141 358 216 393 175 376 b 38 260 86 328 55 301 b 20 155 25 231 17 191 b 69 57 24 117 46 81 b 162 6 93 31 125 18 b 261 -8 192 -4 229 -8 b 477 89 326 -8 412 5 b 602 -8 490 42 548 -8 b 808 65 671 -8 747 -8 b 694 171 791 65 700 73 z m 465 159 b 395 87 465 150 443 108 b 271 143 332 67 292 89 b 344 377 243 216 249 330 b 462 420 379 392 416 402 b 465 323 462 380 465 358 b 462 282 465 311 462 294 b 460 202 462 253 460 232 b 465 159 460 197 465 165 z "},"":{"ha":807,"x_min":0,"x_max":0,"o":"m 403 718 b 494 755 445 718 472 726 b 526 840 509 776 526 811 b 519 893 526 857 524 878 b 403 964 503 940 461 964 b 352 952 385 964 367 958 b 286 882 319 939 297 916 b 280 840 282 869 280 855 b 304 760 280 810 288 781 b 403 718 326 733 361 718 z m 348 840 b 348 853 348 845 348 849 b 351 879 349 868 349 868 b 374 920 354 894 366 913 b 403 928 382 927 392 928 b 430 922 413 928 422 927 b 449 903 435 918 446 908 b 460 867 457 892 458 886 b 460 840 461 860 460 848 b 461 814 460 831 462 821 b 453 788 459 801 458 796 b 436 764 450 781 440 768 b 404 756 426 755 416 756 b 368 768 389 756 379 758 b 357 780 366 769 358 777 b 348 815 351 790 350 798 b 348 840 347 821 348 833 z m 694 171 b 693 235 691 209 695 206 b 692 455 688 308 700 382 b 496 671 678 591 610 641 b 442 678 479 675 460 677 b 311 676 397 681 351 681 b 181 628 241 667 250 655 b 90 512 160 620 106 567 b 249 471 145 497 194 485 b 250 500 251 486 249 489 b 366 641 260 568 289 639 b 454 580 417 642 438 627 b 463 466 467 543 467 498 b 368 435 426 454 396 446 b 250 404 323 418 293 417 b 141 358 216 393 175 376 b 38 260 86 328 55 301 b 20 155 25 231 17 191 b 69 57 24 117 46 81 b 162 6 93 31 125 18 b 261 -8 192 -4 229 -8 b 477 89 326 -8 412 5 b 602 -8 490 42 548 -8 b 808 65 671 -8 747 -8 b 694 171 791 65 700 73 z m 465 159 b 395 87 465 150 443 108 b 271 143 332 67 292 89 b 344 377 243 216 249 330 b 462 420 379 392 416 402 b 465 323 462 380 465 358 b 462 282 465 311 462 294 b 460 202 462 253 460 232 b 465 159 460 197 465 165 z "},"":{"ha":1168,"x_min":0,"x_max":0,"o":"m 1101 236 b 1008 117 1079 187 1069 156 b 907 91 978 99 941 93 b 794 125 871 88 826 106 b 696 360 706 180 695 280 b 696 421 696 381 697 401 l 1135 421 b 1129 464 1135 421 1133 446 b 1082 579 1124 495 1115 543 b 838 681 1026 642 926 678 b 660 651 768 683 722 673 b 606 625 641 644 623 635 b 498 670 576 645 540 659 b 444 678 480 675 462 677 b 312 675 398 680 353 681 b 182 628 242 666 251 655 b 91 511 161 620 107 567 b 250 470 146 496 196 484 b 252 499 252 485 250 488 b 368 641 261 568 290 639 b 455 579 418 642 439 626 b 464 465 468 542 468 497 b 369 434 427 453 398 445 b 252 403 324 417 294 417 b 142 357 217 392 177 376 b 39 259 87 328 57 300 b 22 154 26 230 18 190 b 70 57 26 117 47 81 b 176 6 94 31 139 18 b 287 -9 206 -4 255 -9 b 413 12 342 -9 369 -3 b 531 96 449 24 511 79 b 534 98 532 97 533 97 b 622 38 559 74 589 55 b 791 -7 680 7 729 -4 b 962 17 854 -11 903 -8 b 1144 217 1017 41 1092 90 b 1101 236 1144 217 1117 229 z m 821 633 b 903 580 874 633 884 614 b 932 464 919 551 927 508 l 697 464 b 821 633 712 585 754 635 z m 466 147 b 397 86 466 137 451 101 b 272 143 334 67 293 89 b 346 377 244 215 251 329 b 463 420 380 391 417 402 b 466 322 463 379 466 357 b 463 282 466 310 463 294 b 461 189 463 252 461 219 b 466 147 461 184 466 152 z "},"":{"ha":731,"x_min":0,"x_max":0,"o":"m 687 170 b 676 181 680 176 689 172 b 622 126 665 167 646 141 b 554 84 596 107 577 92 b 406 79 503 66 460 54 b 311 184 351 104 326 143 b 309 504 283 304 275 375 b 468 621 332 593 390 631 b 538 581 503 613 517 602 b 584 463 561 555 579 508 l 589 461 b 715 595 626 504 684 558 b 693 607 711 601 694 606 b 680 614 689 610 684 612 b 242 651 549 688 382 701 b 27 371 124 608 44 503 b 199 43 11 239 81 104 b 370 -6 254 14 311 -1 l 327 -68 l 305 -104 l 273 -145 l 256 -170 l 259 -173 b 313 -179 271 -171 294 -171 b 348 -223 332 -186 348 -199 b 323 -289 348 -246 340 -269 b 265 -332 309 -306 289 -321 b 368 -311 304 -330 338 -323 b 431 -277 392 -302 414 -291 b 484 -194 461 -250 482 -232 b 474 -126 485 -175 482 -141 b 427 -89 466 -111 446 -98 b 368 -76 411 -82 391 -78 l 390 -47 l 412 -7 b 416 -7 413 -7 414 -7 b 554 18 472 -6 487 -6 b 713 137 608 37 655 70 b 687 170 713 137 726 133 z "},"":{"ha":747,"x_min":0,"x_max":0,"o":"m 381 761 l 508 739 l 560 727 l 469 791 l 379 862 l 328 895 l 260 957 l 247 920 l 231 891 l 205 836 l 190 796 l 288 779 z m 680 236 b 587 118 658 188 648 156 b 486 91 557 99 520 94 b 373 126 450 89 405 106 b 275 376 280 184 273 293 b 275 418 276 427 275 370 b 275 421 275 419 275 420 l 714 421 b 708 464 714 421 712 447 b 661 580 703 496 694 543 b 417 681 605 642 505 678 b 239 651 347 684 301 674 b 28 370 120 608 38 503 b 201 38 16 213 85 99 b 370 -7 259 7 308 -3 b 541 18 433 -11 482 -8 b 723 217 596 42 671 91 b 680 236 723 217 696 230 z m 400 634 b 481 581 453 633 463 614 b 511 464 498 551 506 508 l 276 464 b 400 634 291 585 333 636 z "},"":{"ha":747,"x_min":0,"x_max":0,"o":"m 369 761 l 462 779 l 560 796 l 545 836 l 519 891 l 503 920 l 490 957 l 421 901 l 371 862 l 281 791 l 190 727 l 242 739 z m 680 236 b 587 118 658 188 648 156 b 486 91 557 99 520 94 b 373 126 450 89 405 106 b 275 376 280 184 273 293 b 275 418 276 427 275 370 b 275 421 275 419 275 420 l 714 421 b 708 464 714 421 712 447 b 661 580 703 496 694 543 b 417 681 605 642 505 678 b 239 651 347 684 301 674 b 28 370 120 608 38 503 b 201 38 16 213 85 99 b 370 -7 259 7 308 -3 b 541 18 433 -11 482 -8 b 723 217 596 42 671 91 b 680 236 723 217 696 230 z m 400 634 b 482 581 453 633 463 614 b 511 464 498 551 506 508 l 276 464 b 400 634 291 585 333 636 z "},"":{"ha":747,"x_min":0,"x_max":0,"o":"m 328 769 l 375 792 l 410 781 l 498 752 l 538 729 l 577 713 l 507 800 l 442 879 l 412 909 l 375 954 l 342 906 l 304 867 l 200 748 l 173 720 l 173 714 l 260 750 z m 680 236 b 587 118 658 188 648 156 b 486 91 557 99 520 94 b 373 126 450 89 405 106 b 275 376 280 184 273 293 b 275 418 276 427 275 370 b 275 421 275 419 275 420 l 714 421 b 708 464 714 421 712 447 b 661 580 703 496 694 543 b 417 681 605 642 505 678 b 239 651 347 684 301 674 b 28 370 120 608 38 503 b 201 38 16 213 85 99 b 370 -7 259 7 308 -3 b 541 18 433 -11 482 -8 b 723 217 596 42 671 91 b 680 236 723 217 696 230 z m 400 634 b 481 581 453 633 463 614 b 511 464 498 551 506 508 l 276 464 b 400 634 291 585 333 636 z "},"":{"ha":747,"x_min":0,"x_max":0,"o":"m 514 736 b 622 839 581 736 623 779 b 511 936 620 888 570 934 b 412 831 452 937 412 893 b 514 736 411 777 451 737 z m 230 736 b 338 839 297 736 340 779 b 227 936 337 888 287 934 b 128 831 168 937 129 893 b 230 736 127 777 168 737 z m 680 236 b 587 118 658 188 648 156 b 486 91 557 99 520 94 b 373 126 450 89 405 106 b 275 376 280 184 273 293 b 275 418 276 427 275 370 b 275 421 275 419 275 420 l 714 421 b 708 464 714 421 712 447 b 661 580 703 496 694 543 b 417 681 605 642 505 678 b 239 651 347 684 301 674 b 28 370 120 608 38 503 b 201 38 16 213 85 99 b 370 -7 259 7 308 -3 b 541 18 433 -11 482 -8 b 723 217 596 42 671 91 b 680 236 723 217 696 230 z m 400 634 b 481 581 453 633 463 614 b 511 464 498 551 506 508 l 276 464 b 400 634 291 585 333 636 z "},"":{"ha":400,"x_min":0,"x_max":0,"o":"m 149 763 l 276 734 l 328 722 l 237 787 l 147 863 l 97 896 l 28 958 l 15 921 l -1 892 l -27 837 l -42 797 l 56 781 z m 343 74 b 308 253 325 99 308 190 b 313 437 311 318 314 366 b 324 681 313 518 320 599 b 159 650 269 671 214 657 b 20 641 103 643 77 644 b 20 636 20 636 20 641 b 84 505 26 631 86 554 b 84 298 81 452 83 343 l 84 255 b 83 154 83 231 83 175 b 39 18 82 99 75 56 b 36 5 32 12 36 5 b 274 5 66 5 274 5 l 385 5 b 343 74 374 28 361 49 z "},"":{"ha":401,"x_min":0,"x_max":0,"o":"m 204 763 l 297 781 l 395 797 l 380 837 l 354 892 l 338 921 l 326 958 l 257 902 l 206 863 l 116 787 l 25 722 l 77 734 z m 309 253 b 314 437 312 318 315 366 b 325 681 314 518 321 599 b 160 650 269 671 215 657 b 21 641 104 643 78 644 b 21 636 21 636 21 641 b 84 505 27 631 87 554 b 85 298 82 452 84 343 l 85 255 b 84 154 84 231 84 175 b 40 18 82 99 76 56 b 37 5 33 12 37 5 b 275 5 67 5 275 5 l 386 5 b 344 74 375 28 362 49 b 309 253 326 99 309 190 z "},"":{"ha":401,"x_min":0,"x_max":0,"o":"m 156 770 l 203 794 l 239 782 l 326 754 l 367 731 l 405 715 l 335 801 l 270 880 l 240 910 l 203 956 l 170 908 l 132 868 l 29 749 l 1 722 l 1 715 l 88 751 z m 309 253 b 314 437 312 318 314 366 b 324 681 314 518 321 599 b 160 650 269 671 215 657 b 21 641 104 643 77 644 b 20 636 20 636 21 641 b 84 505 27 631 86 554 b 84 298 82 452 84 343 l 84 255 b 83 154 84 231 84 175 b 40 18 82 99 76 56 b 36 5 33 12 36 5 b 275 5 67 5 275 5 l 386 5 b 344 74 375 28 362 49 b 309 253 326 99 309 190 z "},"":{"ha":400,"x_min":0,"x_max":0,"o":"m 338 937 b 239 832 279 939 240 894 b 341 738 239 778 279 738 b 449 840 409 737 451 781 b 338 937 448 889 398 936 z m 166 840 b 55 937 164 889 114 936 b -44 832 -5 939 -44 894 b 57 738 -45 778 -5 738 b 166 840 125 737 167 781 z m 308 253 b 313 437 311 318 313 366 b 324 681 313 518 320 599 b 159 650 268 671 214 657 b 20 641 103 643 76 644 b 20 636 20 636 20 641 b 83 505 26 631 85 554 b 83 298 81 452 83 343 l 83 255 b 82 154 83 231 83 175 b 39 18 81 99 75 56 b 36 5 32 12 36 5 b 274 5 66 5 274 5 l 385 5 b 343 74 374 28 361 49 b 308 253 325 99 308 190 z "},"":{"ha":854,"x_min":0,"x_max":0,"o":"m 225 749 b 253 776 233 759 241 771 b 305 790 269 784 283 790 b 396 768 337 790 370 776 b 469 752 419 760 446 758 b 531 738 490 745 507 738 b 585 743 552 738 570 737 b 631 785 605 751 621 768 b 648 837 641 800 645 818 b 652 923 653 864 653 894 b 633 885 649 907 642 895 b 604 864 625 878 614 869 b 549 858 587 858 571 858 b 507 866 532 858 522 863 b 457 877 492 869 471 872 b 408 898 440 882 425 893 b 329 908 384 906 357 908 b 240 877 290 908 258 896 b 212 823 226 862 217 843 b 211 721 204 791 210 755 b 225 749 214 733 219 740 z m 796 65 b 771 253 774 88 771 190 b 775 359 773 286 774 328 b 775 366 775 362 775 364 b 775 503 775 439 775 391 b 596 681 775 626 698 678 b 409 627 534 683 461 657 b 319 575 385 614 350 593 b 325 681 321 611 323 646 b 319 680 323 681 321 681 b 160 650 265 669 213 656 b 121 646 145 648 133 647 b 21 641 88 643 63 643 b 21 636 21 636 21 641 b 84 505 27 631 87 554 b 85 298 82 452 84 343 l 85 255 b 84 154 84 231 84 175 b 28 18 82 99 64 56 b 24 5 21 12 24 5 b 275 5 55 5 275 5 l 380 5 b 378 9 379 7 379 8 b 328 71 367 30 340 43 b 309 240 316 100 309 177 b 314 437 312 306 315 366 b 314 452 314 442 314 447 b 315 472 315 459 315 466 b 316 511 315 485 316 498 b 421 587 333 550 384 583 b 547 498 486 595 543 576 b 546 366 548 471 544 393 b 546 314 546 345 546 327 l 546 255 b 545 154 546 231 546 175 b 490 18 544 99 526 56 b 486 5 483 12 486 5 b 737 5 517 5 737 5 l 840 5 b 796 65 825 20 817 42 z "},"":{"ha":858,"x_min":0,"x_max":0,"o":"m 435 757 l 562 735 l 613 723 l 523 787 l 433 857 l 382 891 l 313 953 l 301 916 l 285 887 l 259 832 l 244 792 l 342 775 z m 591 653 b 429 676 531 670 497 674 b 266 653 361 674 326 670 b 26 321 97 603 17 462 b 205 39 33 197 102 100 b 354 -2 253 10 302 5 b 429 -9 388 -6 395 -9 b 503 -2 463 -9 469 -6 b 652 39 555 5 605 10 b 832 321 755 100 824 197 b 591 653 840 462 761 603 z m 540 131 b 470 48 524 90 505 73 b 429 38 458 39 444 40 b 387 48 413 40 399 39 b 317 131 352 73 333 90 b 307 509 273 247 282 389 b 334 583 312 535 322 559 b 429 634 351 620 389 633 b 524 583 468 633 506 620 b 550 509 535 559 545 535 b 540 131 575 389 585 247 z "},"":{"ha":858,"x_min":0,"x_max":0,"o":"m 422 757 l 516 775 l 613 792 l 598 832 l 572 887 l 556 916 l 544 953 l 475 897 l 424 857 l 335 787 l 244 723 l 296 735 z m 591 653 b 429 676 531 670 497 674 b 266 653 361 674 326 670 b 26 321 97 603 17 462 b 205 39 33 197 102 100 b 354 -2 253 10 302 5 b 429 -9 388 -6 395 -9 b 503 -2 463 -9 469 -6 b 652 39 555 5 604 10 b 832 321 755 100 824 197 b 591 653 840 462 761 603 z m 540 131 b 470 48 524 90 505 73 b 429 38 458 39 444 40 b 387 48 413 40 399 39 b 317 131 352 73 333 90 b 307 509 273 247 282 389 b 334 583 312 535 322 559 b 429 634 351 620 389 633 b 524 583 468 633 506 620 b 550 509 535 559 545 535 b 540 131 575 389 585 247 z "},"":{"ha":858,"x_min":0,"x_max":0,"o":"m 382 764 l 429 788 l 464 777 l 552 748 l 592 725 l 630 709 l 561 795 l 495 875 l 465 905 l 429 950 l 395 902 l 358 863 l 254 743 l 227 716 l 227 710 l 314 746 z m 591 653 b 429 676 531 670 497 674 b 266 653 361 674 326 670 b 26 321 97 603 17 462 b 205 39 33 197 102 100 b 354 -2 253 10 302 5 b 429 -9 388 -6 395 -9 b 503 -2 463 -9 469 -6 b 652 39 555 5 605 10 b 832 321 755 100 824 197 b 591 653 840 462 761 603 z m 540 131 b 470 48 524 90 505 73 b 429 38 458 39 444 40 b 387 48 413 40 399 39 b 317 131 352 73 333 90 b 307 509 273 247 282 389 b 334 583 312 535 322 559 b 429 634 351 620 389 633 b 524 583 468 633 506 620 b 550 509 535 559 545 535 b 540 131 575 389 585 247 z "},"":{"ha":858,"x_min":0,"x_max":0,"o":"m 224 744 b 251 771 231 754 240 765 b 304 785 267 778 281 785 b 394 762 335 785 368 771 b 467 746 417 754 444 753 b 530 732 488 740 506 732 b 583 737 550 732 569 731 b 630 779 604 746 619 763 b 647 831 639 794 643 812 b 651 917 652 859 652 889 b 631 880 647 901 640 889 b 602 859 624 872 612 863 b 548 853 586 852 569 853 b 505 861 530 853 520 857 b 455 871 490 864 469 866 b 406 893 438 877 423 887 b 328 903 382 900 356 903 b 238 871 289 903 256 891 b 210 817 224 857 216 838 b 209 715 202 785 208 749 b 224 744 212 728 218 735 z m 591 653 b 429 676 531 670 497 674 b 266 653 361 674 326 670 b 26 321 97 603 17 462 b 205 39 33 197 102 100 b 354 -2 253 10 302 5 b 429 -9 388 -6 395 -9 b 503 -2 463 -9 469 -6 b 652 39 555 5 604 10 b 832 321 755 100 824 197 b 591 653 840 462 761 603 z m 540 131 b 470 48 524 90 505 73 b 429 38 458 39 444 40 b 387 48 413 40 399 39 b 317 131 352 73 333 90 b 307 509 273 247 282 389 b 334 583 312 535 322 559 b 429 634 351 620 389 633 b 524 583 468 633 506 620 b 550 509 535 559 545 535 b 540 131 575 389 585 247 z "},"":{"ha":858,"x_min":0,"x_max":0,"o":"m 567 732 b 675 835 635 732 677 775 b 564 932 674 884 624 930 b 465 827 505 933 466 888 b 567 732 465 773 505 733 z m 284 732 b 392 835 351 732 394 775 b 281 932 390 884 340 930 b 182 827 222 933 182 888 b 284 732 181 773 221 733 z m 591 653 b 429 676 531 670 497 674 b 266 653 361 674 326 670 b 26 321 97 603 17 462 b 205 39 33 197 102 100 b 354 -2 253 10 302 5 b 429 -9 388 -6 395 -9 b 503 -2 463 -9 469 -6 b 652 39 555 5 605 10 b 832 321 755 100 824 197 b 591 653 840 462 761 603 z m 540 131 b 470 48 524 90 505 73 b 429 38 458 39 444 40 b 387 48 413 40 399 39 b 317 131 352 73 333 90 b 307 509 273 247 282 389 b 334 583 312 535 322 559 b 429 634 351 620 389 633 b 524 583 468 633 506 620 b 550 509 535 559 545 535 b 540 131 575 389 585 247 z "},"":{"ha":838,"x_min":0,"x_max":0,"o":"m 421 761 l 548 739 l 600 727 l 509 791 l 419 862 l 369 895 l 300 957 l 287 920 l 271 891 l 245 836 l 230 796 l 328 779 z m 753 168 b 753 375 755 221 753 330 l 753 418 b 754 519 753 443 753 498 b 809 655 755 574 773 617 b 813 668 816 661 813 668 b 562 668 782 668 562 668 l 457 668 b 459 664 458 666 458 665 b 509 602 470 643 497 630 b 528 433 521 573 528 496 b 523 236 525 367 523 307 b 523 221 523 231 523 226 b 523 216 523 219 523 218 b 522 221 522 218 522 219 b 430 89 521 172 469 97 b 310 179 366 77 314 101 b 308 308 309 206 310 280 b 307 359 307 328 307 347 l 307 418 b 308 519 307 443 308 498 b 364 655 309 574 328 617 b 367 668 371 661 367 668 b 117 668 337 668 117 668 l 14 668 b 57 608 28 653 36 631 b 82 421 79 585 82 484 b 79 314 81 387 80 345 b 78 308 79 311 78 309 b 78 170 78 235 78 282 b 264 -8 78 47 162 -8 b 445 45 320 -8 392 16 b 518 96 468 58 492 76 b 512 -8 516 61 514 27 b 518 -7 514 -8 516 -7 b 677 23 572 4 624 17 b 716 27 692 25 705 26 b 816 32 749 30 774 30 b 816 38 816 38 816 32 b 753 168 810 42 751 119 z "},"":{"ha":838,"x_min":0,"x_max":0,"o":"m 409 761 l 502 779 l 600 796 l 585 836 l 559 891 l 543 920 l 530 957 l 462 901 l 411 862 l 321 791 l 230 727 l 282 739 z m 753 168 b 753 375 755 221 753 330 l 753 418 b 754 519 753 443 753 498 b 809 655 755 574 773 617 b 813 668 816 661 813 668 b 562 668 782 668 562 668 l 457 668 b 459 664 458 666 458 665 b 509 602 470 643 497 630 b 528 433 521 573 528 496 b 523 236 525 367 523 307 b 523 221 523 231 523 226 b 523 216 523 219 523 218 b 522 221 522 218 522 219 b 430 89 521 172 469 97 b 310 179 366 77 314 101 b 308 308 309 206 310 280 b 307 359 307 328 307 347 l 307 418 b 308 519 307 443 308 498 b 364 655 309 574 328 617 b 367 668 371 661 367 668 b 116 668 337 668 116 668 l 14 668 b 57 608 28 653 36 631 b 82 421 79 585 82 484 b 79 314 81 387 80 345 b 78 308 79 311 78 309 b 78 170 78 235 78 282 b 264 -8 78 47 162 -8 b 445 45 320 -8 392 16 b 518 96 468 58 492 76 b 512 -8 516 61 514 27 b 518 -7 514 -8 516 -7 b 677 23 572 4 624 17 b 716 27 692 25 705 26 b 816 32 749 30 774 30 b 816 38 816 38 816 32 b 753 168 810 42 751 119 z "},"":{"ha":838,"x_min":0,"x_max":0,"o":"m 368 769 l 415 792 l 450 781 l 538 752 l 579 729 l 617 713 l 547 800 l 482 879 l 452 909 l 415 954 l 382 906 l 344 867 l 241 748 l 213 720 l 213 714 l 300 750 z m 753 168 b 753 375 755 221 753 330 l 753 418 b 754 519 753 443 753 498 b 809 655 755 574 773 617 b 813 668 816 661 813 668 b 562 668 782 668 562 668 l 457 668 b 459 664 458 666 458 665 b 509 602 470 643 497 630 b 528 433 521 573 528 496 b 523 236 525 367 523 307 b 523 221 523 231 523 226 b 523 216 523 219 523 218 b 522 221 522 218 522 219 b 430 89 521 172 469 97 b 310 179 366 77 314 101 b 308 308 309 206 310 280 b 307 359 307 328 307 347 l 307 418 b 308 519 307 443 308 498 b 364 655 309 574 328 617 b 367 668 371 661 367 668 b 117 668 337 668 117 668 l 14 668 b 57 608 28 653 36 631 b 82 421 79 585 82 484 b 79 314 81 387 80 345 b 78 308 79 311 78 309 b 78 170 78 235 78 282 b 264 -8 78 47 162 -8 b 445 45 320 -8 392 16 b 518 96 468 58 492 76 b 512 -8 516 61 514 27 b 518 -7 514 -8 516 -7 b 677 23 572 4 624 17 b 716 27 692 25 705 26 b 816 32 749 30 774 30 b 816 38 816 38 816 32 b 753 168 810 42 751 119 z "},"":{"ha":838,"x_min":0,"x_max":0,"o":"m 554 736 b 662 839 621 736 664 779 b 551 936 660 888 611 934 b 452 831 492 937 453 893 b 554 736 451 777 491 737 z m 270 736 b 378 839 338 736 380 779 b 267 936 377 888 327 934 b 168 831 208 937 169 893 b 270 736 168 777 208 737 z m 753 168 b 753 375 755 221 753 330 l 753 418 b 754 519 753 443 753 498 b 809 655 755 574 773 617 b 813 668 816 661 813 668 b 562 668 782 668 562 668 l 457 668 b 459 664 458 666 458 665 b 509 602 470 643 497 630 b 528 433 521 573 528 496 b 523 236 525 367 523 307 b 523 221 523 231 523 226 b 523 216 523 219 523 218 b 522 221 522 218 522 219 b 430 89 521 172 469 97 b 310 179 366 77 314 101 b 308 308 309 206 310 280 b 307 359 307 328 307 347 l 307 418 b 308 519 307 443 308 498 b 364 655 309 574 328 617 b 367 668 371 661 367 668 b 116 668 337 668 116 668 l 14 668 b 57 608 28 653 36 631 b 82 421 79 585 82 484 b 79 314 81 387 80 345 b 78 308 79 311 78 309 b 78 170 78 235 78 282 b 264 -8 78 47 162 -8 b 445 45 320 -8 392 16 b 518 96 468 58 492 76 b 512 -8 516 61 514 27 b 518 -7 514 -8 516 -7 b 677 23 572 4 624 17 b 716 27 692 25 705 26 b 816 32 749 30 774 30 b 816 38 816 38 816 32 b 753 168 810 42 751 119 z "},"":{"ha":833,"x_min":0,"x_max":0,"o":"m 411 759 l 504 777 l 602 793 l 587 834 l 561 889 l 545 918 l 532 955 l 463 899 l 413 859 l 323 789 l 232 725 l 284 737 z m 643 665 b 677 530 679 644 699 573 b 582 348 641 461 617 418 b 557 311 577 338 570 329 b 412 585 523 380 449 499 b 382 665 399 614 387 633 b 332 665 346 665 361 669 b 76 665 242 665 161 665 b -5 665 57 670 13 665 b -5 660 -5 661 -6 661 b 152 484 89 603 115 548 b 417 15 231 348 335 149 b 388 -51 417 15 400 -31 b 327 -161 363 -94 357 -113 b 106 -196 295 -217 206 -207 b 89 -221 102 -195 95 -213 b 299 -325 121 -239 267 -312 b 373 -198 307 -328 341 -265 b 489 16 404 -134 461 -50 b 795 615 577 219 691 419 b 810 635 804 631 798 621 b 839 665 815 641 831 658 b 643 665 772 665 710 665 z "},"":{"ha":849,"x_min":0,"x_max":0,"o":"m 817 371 b 646 653 807 518 744 607 b 447 675 586 681 512 689 b 354 637 421 670 381 655 b 279 552 328 619 292 583 l 279 970 b 91 970 248 970 91 970 l 4 970 b 46 899 15 948 28 924 b 57 420 64 873 57 483 b 55 265 54 354 55 300 b 56 147 55 234 56 179 b 52 -53 56 74 51 18 b 41 -264 52 -134 45 -182 b 206 -233 97 -253 151 -239 b 351 -224 262 -226 295 -226 b 351 -218 351 -218 351 -224 b 282 -94 345 -213 280 -142 b 284 31 284 -41 284 -21 b 284 81 284 49 284 65 b 371 17 301 59 329 32 b 607 13 465 -17 497 -13 b 664 39 630 18 644 27 b 817 371 776 110 827 230 z m 453 92 b 284 232 398 70 311 89 b 279 276 281 249 280 257 l 279 346 b 292 464 280 397 283 438 b 411 585 308 518 343 583 b 563 379 510 589 559 514 b 564 336 564 363 564 350 b 565 303 564 312 564 304 b 530 161 559 243 546 197 b 453 92 513 124 473 100 z "},"":{"ha":833,"x_min":0,"x_max":0,"o":"m 556 734 b 664 837 623 734 665 777 b 553 933 662 886 612 932 b 454 829 493 935 454 890 b 556 734 453 775 493 734 z m 272 734 b 380 837 339 734 382 777 b 269 933 379 886 329 932 b 170 829 210 935 171 890 b 272 734 169 775 210 734 z m 643 665 b 677 530 679 644 699 573 b 582 348 641 461 617 418 b 557 311 577 338 570 329 b 412 585 523 380 449 499 b 382 665 399 614 387 633 b 332 665 346 665 361 669 b 76 665 242 665 161 665 b -5 665 57 670 13 665 b -5 660 -5 661 -6 661 b 152 484 89 603 115 548 b 417 15 231 348 335 149 b 388 -51 417 15 400 -31 b 327 -161 363 -94 357 -113 b 106 -196 295 -217 206 -207 b 89 -221 102 -195 95 -213 b 299 -325 121 -239 267 -312 b 373 -198 307 -328 341 -265 b 489 16 404 -134 461 -50 b 795 615 577 219 691 419 b 810 635 804 631 798 621 b 839 665 815 641 831 658 b 643 665 772 665 710 665 z "},"":{"ha":924,"x_min":0,"x_max":0,"o":"m 874 217 b 828 315 853 260 849 276 b 795 386 818 335 801 374 b 780 381 789 384 780 381 b 699 168 778 323 724 222 b 528 68 646 82 591 69 b 336 219 443 68 372 105 b 348 806 280 402 276 632 b 381 855 356 826 368 839 b 515 919 416 897 457 920 b 704 775 605 916 677 856 b 744 688 714 744 732 733 b 884 861 803 750 828 801 b 759 932 830 893 811 908 b 513 981 687 965 600 983 b 284 923 428 979 364 965 b 149 823 236 898 190 865 b 187 105 -34 639 -8 254 b 516 -8 321 2 427 -10 b 912 125 611 -10 804 33 b 874 217 907 142 887 190 z m 402 1074 l 432 1044 l 468 999 l 502 1047 l 539 1086 l 643 1205 l 670 1233 l 670 1239 l 583 1203 l 515 1184 l 468 1161 l 433 1172 l 345 1201 l 305 1224 l 267 1240 l 336 1153 z "},"":{"ha":731,"x_min":0,"x_max":0,"o":"m 687 168 b 676 180 680 175 689 171 b 622 124 665 165 646 140 b 554 83 596 106 577 91 b 406 78 503 65 460 53 b 311 182 351 103 326 142 b 309 503 283 303 275 374 b 468 620 332 591 390 630 b 538 579 503 612 517 601 b 584 462 561 554 579 507 l 589 460 b 715 594 626 503 684 557 b 693 606 711 600 694 605 b 680 613 689 608 684 611 b 242 649 549 687 382 700 b 27 369 124 607 44 501 b 199 41 11 238 81 103 b 415 -8 268 5 340 -9 b 554 16 472 -8 487 -7 b 713 136 608 35 655 69 b 687 168 713 136 726 132 z m 303 788 l 333 758 l 370 713 l 403 761 l 441 800 l 545 919 l 572 947 l 572 953 l 485 917 l 417 898 l 370 875 l 335 886 l 247 915 l 207 938 l 168 954 l 238 867 z "},"":{"ha":974,"x_min":0,"x_max":0,"o":"m 802 855 b 462 963 703 935 584 957 b 84 972 336 969 210 969 b 21 979 63 973 42 976 b 17 968 20 975 18 972 b 47 938 27 958 40 950 b 91 853 64 910 90 882 b 91 210 94 653 91 410 b 33 10 92 136 87 67 b 33 7 32 10 33 7 b 195 7 89 9 139 6 b 360 7 245 8 310 5 b 681 58 458 7 578 -1 b 949 478 838 146 933 263 b 802 855 956 609 902 774 z m 628 180 b 353 80 576 80 457 59 b 353 897 353 332 353 646 b 645 784 459 943 606 886 b 675 638 662 738 671 687 b 628 180 688 465 686 293 z m 416 1077 l 446 1047 l 483 1001 l 516 1049 l 554 1089 l 658 1208 l 685 1236 l 685 1242 l 598 1206 l 530 1187 l 483 1163 l 448 1175 l 360 1204 l 320 1226 l 281 1243 l 351 1156 z "},"":{"ha":865,"x_min":0,"x_max":0,"o":"m 1113 880 l 1088 922 l 1041 983 l 990 932 l 811 729 l 863 741 l 1031 810 l 1129 848 z m 791 255 b 792 409 794 320 792 375 b 791 527 792 441 791 496 b 796 728 792 600 796 656 b 806 972 796 809 802 889 b 642 940 751 961 697 947 b 496 931 586 933 553 934 b 496 926 496 926 496 931 b 566 802 503 921 568 850 b 564 643 564 749 564 696 b 564 594 563 626 564 610 b 477 657 547 615 518 642 b 241 662 383 691 350 687 b 183 635 218 656 203 648 b 30 303 71 564 21 445 b 201 21 40 156 103 68 b 400 -1 261 -7 335 -15 b 494 38 427 5 467 20 b 569 123 520 55 555 91 l 569 7 b 757 7 599 7 757 7 l 843 7 b 801 76 832 30 819 50 b 791 255 783 101 791 191 z m 437 89 b 284 295 337 86 289 161 b 283 338 284 312 283 324 b 283 372 283 362 283 370 b 318 513 288 432 301 478 b 394 582 335 551 374 574 b 563 442 449 604 536 586 b 569 399 566 426 568 417 l 569 329 b 556 210 568 278 564 236 b 437 89 539 157 505 92 z "},"":{"ha":865,"x_min":0,"x_max":0,"o":"m 810 787 l 797 787 b 806 971 799 848 803 909 b 642 939 751 960 697 946 b 496 930 586 933 553 933 b 496 925 496 925 496 930 b 566 801 503 920 568 849 b 565 786 566 796 566 791 l 510 785 l 434 783 l 392 785 l 392 739 l 478 737 l 527 739 l 564 739 b 564 642 564 707 564 674 b 564 593 563 625 564 609 b 477 656 547 614 518 641 b 241 661 383 690 350 687 b 183 634 218 656 203 647 b 30 302 71 564 21 444 b 201 21 40 155 103 67 b 400 -2 261 -8 335 -16 b 494 37 427 4 467 19 b 569 122 520 54 555 90 l 569 7 b 757 7 599 7 757 7 l 843 7 b 801 75 832 29 819 50 b 791 254 783 101 791 191 b 792 408 794 319 792 374 b 791 527 792 440 791 495 b 796 727 792 599 796 656 b 796 737 796 730 796 734 l 805 737 l 862 739 l 862 785 z m 437 89 b 284 294 337 85 289 160 b 284 338 284 311 284 323 b 283 371 284 361 283 369 b 318 513 288 431 301 477 b 394 581 335 550 374 573 b 563 441 449 604 536 585 b 569 398 566 425 568 417 l 569 328 b 556 209 568 277 564 236 b 437 89 539 156 505 91 z "},"":{"ha":803,"x_min":0,"x_max":0,"o":"m 414 742 l 581 811 l 679 849 l 664 881 l 638 923 l 592 984 l 541 932 l 362 730 z m 621 97 b 358 98 580 97 417 96 b 355 107 357 101 356 104 l 350 332 l 350 332 b 349 589 350 418 350 503 l 349 701 b 350 723 349 708 349 716 b 354 854 353 764 347 811 b 373 917 358 877 362 895 b 415 970 383 935 396 953 l 349 970 l 349 971 b 223 970 307 971 265 970 b 109 971 180 970 151 971 l 109 970 l 36 970 b 70 931 50 958 61 944 b 100 831 90 900 97 864 b 107 723 104 794 104 759 b 109 701 108 716 108 708 l 112 576 b 106 327 111 492 107 409 l 106 327 b 105 325 106 326 106 325 b 105 318 105 323 105 321 b 104 235 105 291 104 263 b 104 189 104 220 104 205 b 53 61 105 139 83 95 b 7 7 40 45 28 32 b 157 6 32 7 134 6 b 200 7 173 6 183 6 b 219 7 208 7 212 7 b 232 7 223 7 228 7 b 252 7 238 7 245 7 b 301 6 268 6 284 6 b 726 7 323 6 615 7 b 747 46 730 7 734 3 b 794 203 761 95 776 155 b 804 238 797 211 798 219 b 621 97 686 129 632 97 z "},"":{"ha":383,"x_min":0,"x_max":0,"o":"m 618 879 l 592 920 l 546 982 l 495 930 l 316 728 l 368 740 l 535 809 l 633 847 z m 295 253 b 297 407 298 318 297 373 b 296 526 297 439 296 494 b 301 726 296 598 301 655 b 311 970 300 807 307 888 b 146 938 256 959 201 945 b 7 929 90 932 64 932 b 7 924 7 924 7 929 b 71 794 13 919 73 842 b 68 641 68 741 68 694 b 74 440 68 566 73 507 b 71 299 74 396 71 343 l 71 255 b 70 154 70 231 70 176 b 26 18 69 99 62 56 b 23 6 19 12 23 6 b 261 6 53 6 261 6 l 372 6 b 330 74 361 28 348 49 b 295 253 312 100 295 190 z "},"":{"ha":810,"x_min":0,"x_max":0,"o":"m 632 97 b 369 98 591 97 428 96 b 366 107 368 101 367 104 l 361 332 l 361 332 b 360 531 361 398 361 465 l 517 620 l 496 670 l 359 593 l 359 701 b 361 723 360 708 360 716 b 365 854 364 764 358 811 b 384 917 369 877 372 895 b 426 970 394 935 407 953 l 359 970 l 359 971 b 233 970 318 971 276 970 b 120 971 191 970 161 971 l 120 970 l 47 970 b 81 931 61 958 72 944 b 111 831 101 900 108 864 b 118 723 115 794 115 759 b 120 701 119 716 119 708 l 123 576 b 120 458 122 536 121 497 l 17 400 l 39 347 l 118 392 b 116 327 117 370 117 348 l 116 327 b 116 325 116 326 116 325 b 116 318 116 323 116 321 b 115 235 116 291 115 263 b 115 189 115 220 115 205 b 64 61 116 139 94 95 b 18 7 51 45 39 32 b 167 6 43 7 145 6 b 210 7 184 6 194 6 b 230 7 219 7 223 7 b 243 7 234 7 238 7 b 262 7 249 7 256 7 b 312 6 279 6 295 6 b 737 7 334 6 625 7 b 758 46 741 7 745 3 b 805 203 772 95 787 155 b 814 238 808 211 809 219 b 632 97 697 129 642 97 z "},"":{"ha":458,"x_min":0,"x_max":0,"o":"m 337 253 b 338 407 339 318 338 373 b 337 525 338 439 337 494 b 337 527 337 526 337 526 l 448 588 l 427 637 l 338 589 b 342 726 340 635 342 677 b 352 970 341 807 348 887 b 187 938 297 959 242 945 b 48 929 131 932 105 932 b 48 924 48 924 48 929 b 112 793 55 919 114 842 b 109 641 109 741 110 694 b 114 468 109 577 112 524 l 11 413 l 34 360 l 114 404 b 112 298 114 369 112 332 l 112 255 b 111 154 112 231 111 175 b 67 18 110 99 103 56 b 64 5 60 12 64 5 b 302 5 94 5 302 5 l 413 5 b 371 74 402 28 389 48 b 337 253 353 99 337 190 z "},"":{"ha":888,"x_min":0,"x_max":0,"o":"m 789 451 b 791 761 787 554 789 658 l 791 761 b 791 772 791 765 791 769 b 792 784 792 776 792 780 b 874 958 794 845 831 902 b 750 958 843 958 788 958 b 647 958 718 958 677 958 b 704 797 686 906 701 853 b 705 773 704 789 704 781 b 704 484 704 693 706 498 b 646 556 701 486 679 514 b 482 774 597 618 546 694 b 420 841 468 791 433 825 b 374 897 404 862 388 881 b 346 958 361 914 356 937 b 11 958 241 958 120 958 b 98 813 67 923 99 878 b 97 147 98 597 98 363 b 36 17 96 96 84 48 b 16 -6 32 13 19 3 b 282 -6 103 -6 199 -6 b 187 177 203 33 188 102 b 188 666 186 336 187 507 b 190 723 188 680 189 695 b 271 629 223 685 249 659 b 283 614 275 624 279 619 b 391 465 318 568 356 511 b 566 250 451 387 505 327 b 765 -8 631 167 701 77 b 804 -43 773 -18 784 -26 b 804 27 804 -10 804 8 b 789 451 798 168 790 310 z m 376 1065 l 406 1034 l 442 989 l 476 1037 l 513 1077 l 617 1196 l 644 1223 l 644 1229 l 557 1193 l 489 1175 l 442 1151 l 407 1162 l 319 1191 l 279 1214 l 241 1230 l 310 1144 z "},"":{"ha":854,"x_min":0,"x_max":0,"o":"m 796 64 b 771 252 774 88 771 189 b 775 359 773 285 774 327 b 775 365 775 361 775 363 b 775 502 775 438 775 391 b 596 681 775 626 698 678 b 409 627 534 683 462 656 b 319 575 385 614 350 593 b 325 681 321 610 323 645 b 319 680 323 680 321 680 b 160 649 265 669 213 656 b 121 645 145 648 133 646 b 21 640 88 643 63 642 b 21 635 21 635 21 640 b 84 505 27 630 87 553 b 85 298 82 452 84 343 l 85 254 b 84 154 84 230 84 175 b 28 18 82 99 64 55 b 24 5 21 12 24 5 b 275 5 55 5 275 5 l 380 5 b 378 9 380 6 379 8 b 328 70 367 30 340 42 b 309 240 316 99 309 177 b 314 437 312 305 315 366 b 314 452 314 442 314 447 b 315 472 315 458 315 465 b 316 510 315 485 316 498 b 421 587 333 549 384 582 b 547 498 486 595 543 576 b 546 365 548 470 544 393 b 546 313 546 344 546 326 l 546 254 b 545 154 546 230 546 175 b 490 18 544 99 526 55 b 486 5 483 12 486 5 b 737 5 517 5 737 5 l 840 5 b 796 64 825 20 817 42 z m 364 790 l 394 760 l 430 714 l 463 762 l 501 802 l 605 921 l 632 948 l 632 954 l 545 918 l 477 900 l 430 876 l 395 887 l 307 916 l 267 939 l 228 955 l 298 869 z "},"":{"ha":1482,"x_min":0,"x_max":0,"o":"m 943 95 b 936 302 943 158 936 240 b 943 525 936 383 943 445 b 943 657 943 569 943 613 b 1039 657 985 657 1003 660 b 1297 620 1152 647 1188 666 b 1322 610 1302 618 1321 603 b 1323 743 1324 646 1323 710 b 947 717 1163 701 1104 729 b 943 782 947 742 943 756 b 947 845 943 799 947 827 b 947 913 947 868 947 891 b 1175 900 1025 907 1105 913 b 1387 841 1246 887 1315 862 b 1365 968 1380 886 1372 929 b 1183 968 1303 968 1243 967 b 995 968 1122 969 1055 966 b 813 968 934 969 874 968 b 626 968 756 968 694 968 b 500 980 580 977 545 981 b 361 965 451 982 413 976 b 97 770 249 940 155 870 b 175 108 -21 569 11 274 b 398 -2 241 41 308 22 b 484 -8 422 -8 460 -6 b 500 -8 489 -9 495 -9 b 515 -8 505 -9 510 -9 b 601 -2 540 -6 578 -8 b 623 4 609 0 616 2 b 672 4 642 4 658 4 b 846 4 732 4 786 5 b 1354 4 1020 4 1180 7 b 1415 43 1403 3 1402 0 b 1468 188 1429 92 1450 140 b 1478 223 1471 196 1473 204 b 943 95 1312 63 1136 89 z m 500 46 b 450 51 483 42 467 48 b 339 174 381 62 356 114 b 309 487 311 270 311 369 b 318 649 311 528 309 589 b 360 826 326 709 340 769 b 499 922 382 887 433 923 l 500 922 b 656 817 566 923 630 896 b 681 649 674 760 673 709 b 690 501 689 596 688 541 b 687 333 689 445 688 389 b 663 166 684 274 678 219 b 549 51 645 106 618 62 b 500 46 533 48 516 42 z "},"":{"ha":1293,"x_min":0,"x_max":0,"o":"m 1225 236 b 1133 117 1204 187 1193 156 b 1031 91 1103 99 1065 93 b 918 125 996 88 950 106 b 820 375 825 184 819 293 b 820 418 821 427 820 369 b 820 421 820 419 820 420 l 1259 421 b 1254 464 1259 421 1257 446 b 1207 579 1248 495 1240 543 b 963 681 1151 642 1051 678 b 784 651 893 683 846 673 b 699 605 753 639 725 624 b 591 656 668 627 632 644 b 429 679 531 674 497 678 b 266 656 361 678 326 674 b 26 325 97 607 17 465 b 205 42 33 201 102 104 b 354 2 253 14 302 8 b 429 -5 388 -3 395 -5 b 503 2 463 -5 469 -3 b 652 42 555 8 604 14 b 694 71 667 51 681 61 b 746 38 710 59 727 47 b 916 -7 805 7 853 -4 b 1086 17 978 -11 1027 -8 b 1269 217 1141 41 1216 90 b 1225 236 1269 217 1242 229 z m 945 633 b 1027 580 998 633 1008 614 b 1056 464 1043 551 1051 508 l 822 464 b 945 633 836 585 878 635 z m 540 134 b 470 51 524 94 505 77 b 429 41 458 43 444 44 b 387 51 413 44 399 43 b 317 134 352 77 333 94 b 307 513 273 251 282 392 b 334 587 312 539 322 562 b 429 638 351 623 389 637 b 524 587 468 637 506 623 b 550 513 535 562 545 539 b 540 134 575 392 585 251 z "},"":{"ha":1015,"x_min":0,"x_max":0,"o":"m 435 1074 l 465 1044 l 502 998 l 535 1046 l 573 1086 l 676 1211 l 703 1239 l 703 1245 l 617 1203 l 549 1184 l 502 1160 l 466 1172 l 378 1207 l 338 1229 l 300 1246 l 370 1153 z m 997 399 b 980 464 991 419 984 444 b 863 635 967 522 912 597 b 664 708 813 675 725 691 b 483 746 600 726 547 727 b 310 796 447 757 331 764 b 352 900 283 836 308 880 b 501 918 369 907 461 921 b 776 848 576 913 698 892 b 834 803 798 836 810 819 b 875 938 849 852 861 894 b 737 958 829 945 787 953 b 569 979 687 964 616 977 b 312 960 485 985 385 977 b 124 836 235 942 169 904 b 96 673 96 795 79 722 b 132 608 104 652 122 623 b 280 519 167 557 214 549 b 440 483 339 501 375 493 b 594 453 488 475 545 470 b 724 379 638 435 695 421 b 756 226 751 339 763 266 b 685 107 748 188 721 137 b 553 69 649 76 593 78 b 398 87 485 55 465 70 b 160 346 292 115 197 233 b 147 354 159 349 152 351 b 6 167 118 312 35 210 b 177 62 46 122 124 80 b 308 15 226 37 257 28 b 649 4 412 -13 545 -15 b 889 121 762 33 801 33 b 996 325 948 180 972 215 b 997 399 997 329 999 395 z "},"":{"ha":722,"x_min":0,"x_max":0,"o":"m 292 789 l 322 759 l 359 713 l 392 761 l 429 801 l 533 920 l 560 947 l 560 953 l 474 918 l 406 899 l 358 875 l 323 887 l 235 915 l 195 938 l 157 954 l 226 868 z m 699 244 b 691 290 694 258 694 276 b 614 400 682 330 648 373 b 459 462 579 428 502 450 b 355 494 414 475 400 480 b 297 525 330 501 312 503 b 343 617 279 553 294 601 b 394 621 355 622 381 622 b 563 580 446 617 506 612 b 603 548 578 571 586 559 b 631 643 613 582 622 611 b 534 659 600 647 569 655 b 393 679 498 663 426 678 b 221 662 335 683 271 673 b 84 571 167 649 115 618 b 58 435 64 541 46 469 b 83 387 63 420 76 398 b 188 312 108 352 142 333 b 342 267 226 294 300 277 b 400 245 376 259 370 262 b 465 141 451 215 474 191 b 387 63 455 92 425 72 b 252 63 340 52 299 51 b 93 184 178 82 119 105 b 84 189 92 186 87 187 b 18 94 63 160 39 124 b 128 30 43 71 91 43 b 208 5 155 22 181 10 b 473 0 296 -14 390 -10 b 629 69 536 17 583 22 b 697 218 670 110 681 141 b 699 244 698 221 700 241 z "},"":{"ha":878,"x_min":0,"x_max":0,"o":"m 802 979 b 678 969 799 979 718 969 b 677 969 678 969 678 969 l 609 969 l 609 970 b 434 969 567 970 476 969 b 174 969 391 969 213 969 b 75 979 134 969 78 979 b -4 743 55 911 11 811 b 6 737 -1 741 3 739 b 90 795 49 772 56 782 b 315 894 135 812 264 894 b 315 855 316 878 315 865 b 315 837 315 851 315 841 b 316 814 315 829 315 821 b 316 812 316 814 316 813 b 316 810 316 811 316 811 l 316 810 b 319 722 320 774 316 756 b 320 700 319 714 320 707 l 323 574 b 317 319 322 488 318 404 b 316 176 316 271 315 223 b 294 61 317 126 324 96 b 247 5 281 46 268 31 b 306 5 278 5 286 5 b 368 6 329 6 346 6 b 411 7 384 7 395 7 b 434 7 421 7 424 7 b 463 7 443 7 453 7 b 512 6 479 7 495 7 b 568 5 534 6 544 6 b 639 5 587 5 607 5 b 591 61 617 31 604 46 b 560 185 561 96 559 135 b 560 587 562 318 562 453 b 562 806 560 587 561 733 l 562 806 b 563 851 562 819 563 838 b 563 892 563 861 562 876 b 799 795 613 892 755 813 b 871 737 834 780 833 767 b 881 743 874 739 878 741 b 802 979 865 815 824 924 z m 707 969 b 707 969 707 969 707 969 b 707 969 709 969 710 969 z m 372 1076 l 402 1046 l 439 1000 l 472 1048 l 509 1088 l 613 1207 l 640 1234 l 640 1240 l 554 1204 l 486 1186 l 438 1162 l 403 1173 l 315 1202 l 275 1225 l 237 1241 l 306 1155 z "},"":{"ha":508,"x_min":0,"x_max":0,"o":"m 693 836 l 667 891 l 651 919 l 639 957 l 570 900 l 519 861 l 429 791 l 338 726 l 390 739 l 517 761 l 610 779 l 708 795 z m 411 104 b 327 189 359 104 327 155 b 327 228 327 189 327 219 l 327 228 b 325 402 328 281 325 373 b 324 478 325 422 324 452 l 103 482 b 104 438 104 467 104 453 b 101 272 105 394 101 317 l 101 252 b 104 157 101 221 104 190 b 283 -9 110 97 139 -9 b 475 79 366 -9 423 28 b 503 126 479 87 496 109 l 497 131 b 411 104 485 118 427 104 z m 103 482 l 324 478 b 325 569 324 489 325 559 b 325 592 325 578 325 585 b 325 601 325 595 325 598 b 329 601 328 601 329 601 b 356 601 329 601 323 601 b 434 599 399 601 404 599 b 460 667 434 599 462 664 b 347 667 407 667 416 665 l 325 667 b 325 667 325 667 325 667 b 325 934 325 684 321 891 b 315 933 321 930 321 934 b 58 666 256 874 99 710 b 55 661 56 665 55 663 b 7 603 43 646 -3 603 b 109 602 7 603 52 602 b 103 482 109 585 103 497 z "},"":{"ha":988,"x_min":0,"x_max":0,"o":"m 636 1029 b 747 1134 705 1029 749 1073 b 634 1232 745 1184 695 1231 b 532 1126 573 1234 533 1188 b 636 1029 532 1070 573 1029 z m 347 1029 b 457 1134 416 1029 459 1073 b 344 1232 456 1184 405 1231 b 243 1126 283 1234 243 1188 b 347 1029 242 1070 283 1029 z m 734 969 b 763 843 770 942 780 871 b 723 778 751 822 741 805 b 619 630 694 731 660 681 b 439 897 565 702 491 826 b 452 969 422 920 440 947 l -14 969 b -17 954 -15 964 -16 959 b 8 939 -9 949 -1 941 b 109 880 49 932 80 909 b 309 627 175 815 241 701 b 394 502 323 611 367 544 b 390 319 392 438 391 367 b 389 176 389 271 388 224 b 368 61 390 126 397 96 b 320 6 355 46 341 31 b 379 6 352 6 359 6 b 441 7 402 6 419 6 b 484 7 457 7 468 7 b 507 7 494 7 497 7 b 536 7 516 7 526 7 b 585 7 552 7 569 7 b 641 6 607 6 617 6 b 712 6 661 6 680 6 b 664 61 691 31 677 46 b 633 186 635 96 632 136 b 634 515 634 260 635 396 b 635 516 634 515 634 515 b 855 845 700 609 789 743 b 954 928 881 885 906 898 b 1006 969 961 932 994 957 b 734 969 925 965 814 974 z "},"":{"ha":861,"x_min":0,"x_max":0,"o":"m 360 1075 l 390 1045 l 427 1000 l 460 1048 l 498 1087 l 602 1213 l 629 1240 l 629 1246 l 542 1204 l 474 1185 l 427 1162 l 392 1173 l 304 1208 l 264 1231 l 225 1247 l 295 1155 z m 363 93 b 406 191 378 126 395 170 b 717 769 513 386 592 585 b 806 909 759 830 769 860 b 858 969 810 915 852 963 b 538 969 741 969 651 970 b 537 968 538 969 538 969 b 174 969 415 968 288 967 b 113 930 125 970 126 973 b 60 785 98 881 78 833 b 50 750 57 777 55 769 b 503 883 175 871 345 886 b 500 877 502 881 501 879 b 167 284 365 679 305 481 b 71 110 124 223 122 166 b -4 6 46 83 25 30 b 33 6 43 6 10 6 b 199 6 103 6 151 6 b 198 6 199 6 199 6 b 255 6 217 6 236 6 b 272 6 261 6 267 6 b 277 6 274 6 276 6 b 719 6 422 7 581 8 b 780 45 769 5 767 2 b 834 189 795 94 816 141 b 843 225 837 197 838 206 b 363 93 705 91 529 87 z "},"":{"ha":750,"x_min":0,"x_max":0,"o":"m 304 796 l 334 766 l 371 720 l 404 768 l 442 808 l 545 927 l 573 954 l 573 960 l 486 925 l 418 906 l 371 882 l 335 894 l 248 922 l 207 945 l 169 961 l 239 875 z m 718 160 b 698 152 706 156 700 155 b 592 87 676 117 629 96 b 349 59 525 66 441 61 b 744 678 465 244 592 512 b 698 674 723 677 710 674 b 515 674 633 674 579 674 b 152 674 370 674 297 671 b 84 674 133 675 109 674 b 89 524 90 627 84 567 b 108 544 102 534 106 540 b 215 603 130 579 178 594 b 425 632 292 627 318 630 b 283 418 365 555 336 487 b 9 18 221 338 77 102 b -3 6 5 14 1 10 b 45 11 19 8 32 10 b 219 15 109 19 154 15 b 658 15 364 15 513 15 b 723 15 678 15 700 15 b 718 160 717 62 723 117 z "},"":{"ha":742,"x_min":0,"x_max":0,"o":"m 671 525 l 185 523 l 61 521 l 18 523 l 18 446 l 92 444 l 202 446 l 666 444 l 722 445 l 722 523 z "},"":{"ha":554,"x_min":0,"x_max":0,"o":"m 517 776 b 496 813 512 789 505 801 b 418 853 478 836 444 849 b 466 979 420 908 436 942 l 464 983 b 346 889 417 959 377 935 b 303 799 324 857 310 832 b 299 753 300 784 299 768 b 329 669 299 714 308 695 b 405 629 350 644 374 629 b 492 665 433 629 471 642 b 524 732 513 688 524 699 b 517 776 524 748 521 762 z m 228 813 b 150 853 210 836 176 849 b 198 979 152 908 168 942 l 196 983 b 77 889 149 959 109 935 b 35 799 56 857 42 832 b 31 753 32 784 31 768 b 61 669 31 714 40 695 b 136 629 81 644 106 629 b 224 665 165 629 203 642 b 255 732 244 688 255 699 b 248 776 255 748 253 762 b 228 813 244 789 237 801 z "},"":{"ha":554,"x_min":0,"x_max":0,"o":"m 148 983 b 61 947 119 983 81 971 b 29 880 40 924 29 913 b 36 836 29 864 32 850 b 57 799 41 823 48 811 b 134 759 75 776 108 764 b 86 633 133 704 117 670 l 89 629 b 207 724 136 654 176 677 b 249 813 229 756 243 780 b 254 860 253 828 254 844 b 224 943 254 898 244 917 b 148 983 203 968 178 983 z m 492 943 b 416 983 471 968 447 983 b 329 947 388 983 350 971 b 297 880 308 924 297 913 b 305 836 297 864 300 850 b 325 799 309 823 316 811 b 403 759 343 776 377 764 b 355 633 401 704 385 670 l 357 629 b 476 724 404 654 444 677 b 518 813 497 756 511 780 b 522 860 521 828 522 844 b 492 943 522 898 513 917 z "},"":{"ha":294,"x_min":0,"x_max":0,"o":"m 141 679 b 26 565 76 681 27 632 b 144 462 26 506 76 462 b 268 574 217 461 270 509 b 141 679 266 627 206 677 z "},"":{"ha":1101,"x_min":0,"x_max":0,"o":"m 1056 668 b 966 719 1027 683 999 700 b 800 362 938 576 869 428 b 478 837 693 519 587 676 b 807 851 585 877 693 900 b 818 1018 811 910 814 960 b 92 795 583 910 347 822 b 366 549 225 755 286 642 b 343 540 356 544 346 541 b 308 526 333 536 318 530 b 68 347 193 484 119 443 b 34 199 38 305 27 250 b 304 -8 51 84 178 -8 b 551 82 417 -8 478 26 b 616 123 570 97 592 108 b 680 4 640 79 660 41 b 1044 4 801 4 923 4 b 834 293 973 102 904 195 b 870 332 849 309 859 321 b 1052 565 939 403 1004 478 b 1079 643 1062 584 1073 623 b 1056 668 1084 662 1076 658 z m 518 107 b 298 226 408 80 333 109 b 305 433 277 295 277 365 b 392 515 322 475 342 494 b 603 153 462 395 531 276 b 518 107 572 136 547 114 z "}}}
